<svg width="76" height="30" viewBox="0 0 76 30" fill="none" xmlns="http://www.w3.org/2000/svg">
<path d="M2 13C0.89543 13 0 13.8954 0 15C0 16.1046 0.89543 17 2 17V13ZM75.4142 16.4142C76.1953 15.6332 76.1953 14.3668 75.4142 13.5858L62.6863 0.857864C61.9052 0.0768156 60.6389 0.0768156 59.8579 0.857864C59.0768 1.63891 59.0768 2.90524 59.8579 3.68629L71.1716 15L59.8579 26.3137C59.0768 27.0948 59.0768 28.3611 59.8579 29.1421C60.6389 29.9232 61.9052 29.9232 62.6863 29.1421L75.4142 16.4142ZM2 17H74V13H2V17Z" fill="#FF8A00"/>
</svg>
