<svg width="40" height="40" viewBox="0 0 40 40" fill="none" xmlns="http://www.w3.org/2000/svg">
<path d="M24.9045 15.0955C24.0367 14.2278 22.63 14.2278 21.7622 15.0955L15.0956 21.7622C14.2278 22.63 14.2278 24.0366 15.0956 24.9044C15.9633 25.7722 17.37 25.7722 18.2378 24.9044L24.9045 18.2378C25.7722 17.37 25.7722 15.9633 24.9045 15.0955Z" fill="black"/>
<path opacity="0.35" d="M29.3211 10.6789C26.9344 8.29225 23.0656 8.29225 20.6789 10.6789C20.4889 10.8689 19.7578 11.6 19.5678 11.79C17.8478 13.51 17.3867 15.9967 18.1467 18.1478C15.9956 17.3878 13.51 17.8478 11.79 19.5678C11.6 19.7578 10.8689 20.4889 10.6789 20.6789C8.29222 23.0656 8.29222 26.9345 10.6789 29.3211C13.0656 31.7078 16.9344 31.7078 19.3211 29.3211C19.5111 29.1311 20.2422 28.4 20.4322 28.21C22.1522 26.49 22.6133 24.0034 21.8533 21.8522C24.0044 22.6122 26.49 22.1522 28.21 20.4322C28.4 20.2422 29.1311 19.5111 29.3211 19.3211C31.7078 16.9345 31.7078 13.0656 29.3211 10.6789Z" fill="black"/>
</svg>
