<svg width="64" height="64" viewBox="0 0 64 64" fill="none" xmlns="http://www.w3.org/2000/svg">
<path d="M53.3333 7.99957H10.6666C7.71998 7.99957 5.33331 10.3862 5.33331 13.3329V34.6662C5.33331 37.6129 7.71998 39.9996 10.6666 39.9996H53.3333C56.28 39.9996 58.6666 37.6129 58.6666 34.6662V13.3329C58.6666 10.3862 56.28 7.99957 53.3333 7.99957Z" fill="#FFE4B0"/>
<path d="M32 34.6663C37.1547 34.6663 41.3334 29.8906 41.3334 23.9996C41.3334 18.1085 37.1547 13.3329 32 13.3329C26.8454 13.3329 22.6667 18.1085 22.6667 23.9996C22.6667 29.8906 26.8454 34.6663 32 34.6663Z" fill="#FF8A00"/>
<path d="M50.6667 26.6662C52.1394 26.6662 53.3333 25.4723 53.3333 23.9996C53.3333 22.5268 52.1394 21.3329 50.6667 21.3329C49.1939 21.3329 48 22.5268 48 23.9996C48 25.4723 49.1939 26.6662 50.6667 26.6662Z" fill="#FF8A00"/>
<path d="M13.3334 26.6662C14.8061 26.6662 16 25.4723 16 23.9996C16 22.5268 14.8061 21.3329 13.3334 21.3329C11.8606 21.3329 10.6667 22.5268 10.6667 23.9996C10.6667 25.4723 11.8606 26.6662 13.3334 26.6662Z" fill="#FF8A00"/>
<path d="M53.3333 39.9996H10.6666C7.71998 39.9996 5.33331 37.6102 5.33331 34.6662V31.9996V42.8049C5.33331 45.6609 7.56798 47.9916 10.4186 48.1222C24.6666 48.7782 41.824 52.0582 52.056 56.9782C55.1253 58.4529 58.6666 56.2582 58.6666 52.8529V34.6662C58.6666 37.6129 56.2773 39.9996 53.3333 39.9996Z" fill="#FF8A00"/>
</svg>
