<svg width="64" height="64" viewBox="0 0 64 64" fill="none" xmlns="http://www.w3.org/2000/svg">
<path d="M45.3333 55.9996H18.6666C14.248 55.9996 10.6666 52.4182 10.6666 47.9996H53.3333C53.3333 52.4182 49.752 55.9996 45.3333 55.9996Z" fill="#FF8A00"/>
<path d="M53.3333 39.9996H10.6666V47.9996H53.3333V39.9996Z" fill="#FFE4B0"/>
<path d="M42.6667 5.33292C38.4053 5.33292 35.496 7.34892 33.8987 8.86892C35.5147 9.77292 36.72 11.3089 37.1493 13.1622C37.7947 12.4156 39.6267 10.6662 42.6667 10.6662C44.1413 10.6662 45.3333 9.47158 45.3333 7.99958C45.3333 6.52758 44.1413 5.33292 42.6667 5.33292Z" fill="#FFE4B0"/>
<path d="M32 23.9996C36.4183 23.9996 40 20.4179 40 15.9996C40 11.5813 36.4183 7.99957 32 7.99957C27.5817 7.99957 24 11.5813 24 15.9996C24 20.4179 27.5817 23.9996 32 23.9996Z" fill="#FF8A00"/>
<path d="M45.3333 18.6662H18.6666C14.248 18.6662 10.6666 22.2476 10.6666 26.6662V39.9996H53.3333V26.6662C53.3333 22.2476 49.752 18.6662 45.3333 18.6662Z" fill="#FFE4B0"/>
<path d="M46.6666 31.9996C44.4746 31.9996 42.5493 30.9276 41.3333 29.2956C40.1173 30.9276 38.192 31.9996 36 31.9996C34.4933 31.9996 33.1173 31.4796 32 30.6369C30.8826 31.4796 29.5066 31.9996 28 31.9996C25.808 31.9996 23.8826 30.9276 22.6666 29.2956C21.4506 30.9276 19.5253 31.9996 17.3333 31.9996C13.6506 31.9996 10.6666 30.3489 10.6666 26.6662V39.9996H53.3333V26.6662C53.3333 30.3489 50.3493 31.9996 46.6666 31.9996Z" fill="#FF8A00"/>
</svg>
