<svg width="64" height="64" viewBox="0 0 64 64" fill="none" xmlns="http://www.w3.org/2000/svg">
<path d="M58.3786 45.3329H56V25.3329C56 17.2449 49.4213 10.6662 41.3333 10.6662C33.2453 10.6662 26.6666 17.2449 26.6666 25.3329V38.6662C26.6666 40.8716 24.872 42.6662 22.6666 42.6662C20.4613 42.6662 18.6666 40.8716 18.6666 38.6662V21.3329H21.0453C22.4853 21.3329 23.208 19.5969 22.1946 18.5729L14.9973 11.3062C14.08 10.3809 12.5866 10.3809 11.672 11.3062L4.47197 18.5729C3.45864 19.5969 4.18397 21.3329 5.62131 21.3329H7.99997V38.6662C7.99997 46.7542 14.5786 53.3329 22.6666 53.3329C30.7546 53.3329 37.3333 46.7542 37.3333 38.6662V25.3329C37.3333 23.1276 39.128 21.3329 41.3333 21.3329C43.5386 21.3329 45.3333 23.1276 45.3333 25.3329V45.3329H42.9546C41.5146 45.3329 40.792 47.0689 41.8053 48.0929L49.0026 55.3596C49.92 56.2849 51.4133 56.2849 52.328 55.3596L59.5253 48.0929C60.5413 47.0689 59.816 45.3329 58.3786 45.3329Z" fill="#FFE4B0"/>
<path d="M58.3786 45.3329H56V25.3329C56 17.2449 49.4213 10.6662 41.3333 10.6662C41.3333 10.6662 45.3333 15.9996 45.3333 25.3329V45.3329H42.9546C41.5146 45.3329 40.792 47.0689 41.8053 48.0929L49.0026 55.3596C49.92 56.2849 51.4133 56.2849 52.328 55.3596L59.5253 48.0929C60.5413 47.0689 59.816 45.3329 58.3786 45.3329Z" fill="#FF8A00"/>
</svg>
