<svg width="64" height="64" viewBox="0 0 64 64" fill="none" xmlns="http://www.w3.org/2000/svg">
<path d="M58.6587 21.264C58.8107 18.5707 56.912 16.0987 54.2347 15.6587C43.1093 13.8373 43.9653 5.33333 32 5.33333C20.0347 5.33333 20.8907 13.8373 9.76533 15.6587C7.09066 16.096 5.18933 18.568 5.34133 21.264C6.488 41.6107 14.672 51.2773 32 58.6667C49.328 51.2773 57.512 41.6107 58.6587 21.264Z" fill="#FFE4B0"/>
<path d="M42.6667 26.6667C42.6667 20.7733 37.8934 16 32 16C26.1067 16 21.3334 20.7733 21.3334 26.6667C19.8667 26.6667 18.6667 27.8667 18.6667 29.3333V40C18.6667 41.4667 19.8667 42.6667 21.3334 42.6667H42.6667C44.1334 42.6667 45.3334 41.4667 45.3334 40V29.3333C45.3334 27.8667 44.1334 26.6667 42.6667 26.6667ZM34.6667 34.6667C34.6667 36.1333 33.4667 37.3333 32 37.3333C30.5334 37.3333 29.3334 36.1333 29.3334 34.6667C29.3334 33.2 30.5334 32 32 32C33.4667 32 34.6667 33.2 34.6667 34.6667ZM26.6667 26.6667C26.6667 23.7333 29.0667 21.3333 32 21.3333C34.9334 21.3333 37.3334 23.7333 37.3334 26.6667H26.6667Z" fill="#FF8A00"/>
</svg>
