<svg width="64" height="64" viewBox="0 0 64 64" fill="none" xmlns="http://www.w3.org/2000/svg">
<path d="M36 50.3067V35.792L55.4827 23.3733L51.184 16.6267L32 28.8587L18.4427 20.2133L33.96 11.4853L30.04 4.51466L8.70667 16.5147L10.6667 20L8.51733 23.3733L28 35.792V50.3067L12.816 40.6267L8.51733 47.3733L29.8507 60.9733L32 57.6L34.1493 60.9733L55.4827 47.3733L51.184 40.6267L36 50.3067Z" fill="#FFE4B0"/>
<path d="M32 13.3333C34.9455 13.3333 37.3333 10.9455 37.3333 8C37.3333 5.05449 34.9455 2.66667 32 2.66667C29.0544 2.66667 26.6666 5.05449 26.6666 8C26.6666 10.9455 29.0544 13.3333 32 13.3333Z" fill="#FF8A00"/>
<path d="M53.3333 25.3333C56.2789 25.3333 58.6667 22.9455 58.6667 20C58.6667 17.0545 56.2789 14.6667 53.3333 14.6667C50.3878 14.6667 48 17.0545 48 20C48 22.9455 50.3878 25.3333 53.3333 25.3333Z" fill="#FF8A00"/>
<path d="M10.6667 25.3333C13.6122 25.3333 16 22.9455 16 20C16 17.0545 13.6122 14.6667 10.6667 14.6667C7.72119 14.6667 5.33337 17.0545 5.33337 20C5.33337 22.9455 7.72119 25.3333 10.6667 25.3333Z" fill="#FF8A00"/>
<path d="M32 61.3333C34.9455 61.3333 37.3333 58.9455 37.3333 56C37.3333 53.0545 34.9455 50.6667 32 50.6667C29.0544 50.6667 26.6666 53.0545 26.6666 56C26.6666 58.9455 29.0544 61.3333 32 61.3333Z" fill="#FF8A00"/>
<path d="M10.6667 49.3333C13.6122 49.3333 16 46.9455 16 44C16 41.0545 13.6122 38.6667 10.6667 38.6667C7.72119 38.6667 5.33337 41.0545 5.33337 44C5.33337 46.9455 7.72119 49.3333 10.6667 49.3333Z" fill="#FF8A00"/>
<path d="M53.3333 49.3333C56.2789 49.3333 58.6667 46.9455 58.6667 44C58.6667 41.0545 56.2789 38.6667 53.3333 38.6667C50.3878 38.6667 48 41.0545 48 44C48 46.9455 50.3878 49.3333 53.3333 49.3333Z" fill="#FF8A00"/>
<path d="M32 37.3333C34.9455 37.3333 37.3333 34.9455 37.3333 32C37.3333 29.0545 34.9455 26.6667 32 26.6667C29.0544 26.6667 26.6666 29.0545 26.6666 32C26.6666 34.9455 29.0544 37.3333 32 37.3333Z" fill="#FF8A00"/>
</svg>
