<svg width="64" height="64" viewBox="0 0 64 64" fill="none" xmlns="http://www.w3.org/2000/svg">
<path d="M44.1466 32.136C42.0346 36.8187 37.3146 40.0613 31.8506 40C26.3866 39.9387 21.7386 36.5893 19.7333 31.8613L18.8479 31.8507L18.5519 58.3013C18.5279 60.536 21.0986 61.808 22.8613 60.432L26.8986 57.2747C29.8453 54.9707 33.9973 55.016 36.8933 57.3867L40.8586 60.632C42.5893 62.048 45.1893 60.8347 45.2133 58.5973L45.5093 32.1467L44.1466 32.136Z" fill="#FFE4B0"/>
<path d="M52.176 21.832L51.1973 20.92C50.272 20.0587 49.9333 18.736 50.3307 17.5333L50.752 16.2613C51.352 14.4507 50.264 12.5173 48.4053 12.0907L47.1013 11.7893C45.8693 11.504 44.9147 10.5307 44.6587 9.29067L44.3867 7.98134C44 6.11467 42.0907 4.98401 40.2693 5.54134L38.9893 5.93334C37.7787 6.30401 36.4667 5.93601 35.624 4.99201L34.7333 3.99201C33.464 2.56801 31.248 2.54401 29.9467 3.93867L29.0347 4.91734C28.1733 5.84267 26.8507 6.18134 25.648 5.78401L24.376 5.36267C22.5653 4.76267 20.632 5.85067 20.2053 7.70934L19.904 9.01334C19.6187 10.2453 18.6427 11.2 17.4053 11.456L16.0933 11.7307C14.2267 12.1173 13.096 14.0267 13.6533 15.848L14.0453 17.128C14.416 18.3387 14.048 19.6507 13.104 20.4933L12.104 21.384C10.68 22.6533 10.656 24.8693 12.0507 26.1707L13.0293 27.0827C13.9547 27.944 14.2933 29.2667 13.896 30.4693L13.4747 31.7413C12.8747 33.552 13.9627 35.4853 15.8213 35.912L17.1253 36.2133C18.3573 36.4987 19.312 37.4747 19.568 38.712L19.84 40.0213C20.2267 41.888 22.136 43.0187 23.9573 42.4613L25.2373 42.0693C26.448 41.6987 27.76 42.0667 28.6027 43.0107L29.4933 44.0107C30.7627 45.4347 32.9787 45.4587 34.28 44.064L35.192 43.0853C36.0533 42.16 37.376 41.8213 38.5787 42.2187L39.8507 42.64C41.6613 43.24 43.5947 42.152 44.0213 40.2933L44.3227 38.9893C44.608 37.7573 45.584 36.8027 46.8213 36.5467L48.1333 36.2747C50 35.888 51.1307 33.9787 50.5733 32.1573L50.1813 30.8773C49.8107 29.6667 50.1787 28.3547 51.1227 27.512L52.1227 26.6213C53.5467 25.3493 53.5707 23.1307 52.176 21.832ZM31.8507 37.3333C24.488 37.2507 18.584 31.2133 18.6667 23.8507C18.7493 16.488 24.7867 10.584 32.1493 10.6667C39.512 10.7493 45.416 16.7867 45.3333 24.1493C45.2507 31.512 39.2133 37.416 31.8507 37.3333Z" fill="#FF8A00"/>
<path d="M32 37.3333C39.3638 37.3333 45.3333 31.3638 45.3333 24C45.3333 16.6362 39.3638 10.6667 32 10.6667C24.6362 10.6667 18.6666 16.6362 18.6666 24C18.6666 31.3638 24.6362 37.3333 32 37.3333Z" fill="#FFE4B0"/>
</svg>
