<svg width="64" height="64" viewBox="0 0 64 64" fill="none" xmlns="http://www.w3.org/2000/svg">
<path opacity="0.35" d="M42.6667 47.9995H21.3333C18.3876 47.9995 16 45.612 16 42.6662V21.3328C16 18.3871 18.3876 15.9995 21.3333 15.9995H42.6667C45.6124 15.9995 48 18.3871 48 21.3328V42.6662C48 45.612 45.6124 47.9995 42.6667 47.9995Z" fill="black"/>
<path d="M33.1041 47.9995V35.6244H28.9387V30.7799H33.1041V27.2155C33.1041 23.0839 35.6303 20.8315 39.3174 20.8315C40.5601 20.8279 41.8009 20.8919 43.0365 21.0182V25.3382H40.4978C38.4889 25.3382 38.0978 26.2875 38.0978 27.6884V30.7728H42.8978L42.2738 35.6173H38.0694V47.9995H33.1041Z" fill="black"/>
</svg>
