<svg width="64" height="64" viewBox="0 0 64 64" fill="none" xmlns="http://www.w3.org/2000/svg">
<path opacity="0.35" d="M39.1111 47.9995H24.8889C19.9804 47.9995 16 44.0191 16 39.1106V24.8884C16 19.98 19.9804 15.9995 24.8889 15.9995H39.1111C44.0196 15.9995 48 19.98 48 24.8884V39.1106C48 44.0191 44.0196 47.9995 39.1111 47.9995Z" fill="black"/>
<path d="M32 23.1106C27.0915 23.1106 23.1111 27.091 23.1111 31.9995C23.1111 36.9079 27.0915 40.8884 32 40.8884C36.9084 40.8884 40.8889 36.9079 40.8889 31.9995C40.8889 27.091 36.9084 23.1106 32 23.1106ZM32 37.3328C29.0542 37.3328 26.6666 34.9453 26.6666 31.9995C26.6666 29.0537 29.0542 26.6662 32 26.6662C34.9458 26.6662 37.3333 29.0537 37.3333 31.9995C37.3333 34.9453 34.9458 37.3328 32 37.3328Z" fill="black"/>
<path d="M40.8889 24.8884C41.8707 24.8884 42.6666 24.0924 42.6666 23.1106C42.6666 22.1288 41.8707 21.3328 40.8889 21.3328C39.907 21.3328 39.1111 22.1288 39.1111 23.1106C39.1111 24.0924 39.907 24.8884 40.8889 24.8884Z" fill="black"/>
</svg>
