<svg width="40" height="40" viewBox="0 0 40 40" fill="none" xmlns="http://www.w3.org/2000/svg">
<path opacity="0.35" d="M26.6667 30H13.3333C11.4922 30 10 28.5078 10 26.6667V13.3333C10 11.4922 11.4922 10 13.3333 10H26.6667C28.5078 10 30 11.4922 30 13.3333V26.6667C30 28.5078 28.5078 30 26.6667 30Z" fill="black"/>
<path d="M16.6667 25.5555H13.8633V17.7778H16.6667V25.5555ZM15.2156 16.3522C14.3589 16.3522 13.7867 15.7811 13.7867 15.0189C13.7867 14.2567 14.3578 13.6855 15.31 13.6855C16.1667 13.6855 16.7389 14.2567 16.7389 15.0189C16.7389 15.7811 16.1678 16.3522 15.2156 16.3522ZM26.6667 25.5555H23.9533V21.3044C23.9533 20.1289 23.23 19.8578 22.9589 19.8578C22.6878 19.8578 21.7833 20.0389 21.7833 21.3044C21.7833 21.4855 21.7833 25.5555 21.7833 25.5555H18.98V17.7778H21.7833V18.8633C22.1444 18.23 22.8678 17.7778 24.2244 17.7778C25.5811 17.7778 26.6667 18.8633 26.6667 21.3044V25.5555Z" fill="black"/>
</svg>
