<svg width="64" height="64" viewBox="0 0 64 64" fill="none" xmlns="http://www.w3.org/2000/svg">
<path d="M21.3333 40.8884C27.2243 40.8884 32 36.1128 32 30.2217C32 24.3307 27.2243 19.5551 21.3333 19.5551C15.4423 19.5551 10.6666 24.3307 10.6666 30.2217C10.6666 36.1128 15.4423 40.8884 21.3333 40.8884Z" fill="black"/>
<path opacity="0.35" d="M40.0001 40.8884C43.4365 40.8884 46.2223 36.1128 46.2223 30.2217C46.2223 24.3307 43.4365 19.5551 40.0001 19.5551C36.5636 19.5551 33.7778 24.3307 33.7778 30.2217C33.7778 36.1128 36.5636 40.8884 40.0001 40.8884Z" fill="black"/>
<path d="M50.6667 39.1106C52.1394 39.1106 53.3333 35.1309 53.3333 30.2217C53.3333 25.3125 52.1394 21.3328 50.6667 21.3328C49.1939 21.3328 48 25.3125 48 30.2217C48 35.1309 49.1939 39.1106 50.6667 39.1106Z" fill="black"/>
</svg>
