<svg width="64" height="64" viewBox="0 0 64 64" fill="none" xmlns="http://www.w3.org/2000/svg">
<path d="M48 56H16C11.5813 56 8 52.4187 8 48V16H48C52.4187 16 56 19.5813 56 24V48C56 52.4187 52.4187 56 48 56Z" fill="#FFE4B0"/>
<path d="M46.6666 40C48.8758 40 50.6666 38.2091 50.6666 36C50.6666 33.7909 48.8758 32 46.6666 32C44.4575 32 42.6666 33.7909 42.6666 36C42.6666 38.2091 44.4575 40 46.6666 40Z" fill="#FF8A00"/>
<path d="M8 16C8 11.5813 11.5813 8 16 8H40C44.4187 8 48 11.5813 48 16H8Z" fill="#FF8A00"/>
</svg>
