<svg width="64" height="64" viewBox="0 0 64 64" fill="none" xmlns="http://www.w3.org/2000/svg">
<path d="M32 58.6667C46.7276 58.6667 58.6667 46.7276 58.6667 32C58.6667 17.2724 46.7276 5.33334 32 5.33334C17.2724 5.33334 5.33337 17.2724 5.33337 32C5.33337 46.7276 17.2724 58.6667 32 58.6667Z" fill="#FFE4B0"/>
<path fill-rule="evenodd" clip-rule="evenodd" d="M34.6667 13.3333C34.6667 11.8613 33.472 10.6667 32 10.6667C30.528 10.6667 29.3333 11.8613 29.3333 13.3333V16H27.048C24.7173 16 22.8293 17.8907 22.8267 20.2213V43.7787C22.8267 46.1093 24.7173 48 27.048 48H29.3333V50.6667C29.3333 52.1387 30.528 53.3333 32 53.3333C33.472 53.3333 34.6667 52.1387 34.6667 50.6667V48C34.6667 47.9843 34.6665 47.9687 34.6663 47.9531C41.0848 47.4421 42.9413 42.85 42.9413 38.872C42.9413 32.84 38.4853 31.4747 37.88 31.32V31.232C41.858 28.9603 41.8568 26.2039 41.856 24.3071L41.856 24.2267C41.856 19.503 39.1449 16.8023 34.6623 16.1536C34.6652 16.1028 34.6667 16.0516 34.6667 16V13.3333ZM35.488 25.3787C35.488 22.7227 33.7707 21.968 32.0053 21.968H29.5653V28.928H32.0507C34.0773 28.928 35.488 27.6507 35.488 25.3787ZM36.0747 38.2133C36.0747 36.2 34.9947 34.2133 32.1867 34.2133H29.5653V42.0293H32.28C34.9387 42.032 36.0747 40.2107 36.0747 38.2133Z" fill="#FF8A00"/>
</svg>
