<svg width="64" height="64" viewBox="0 0 64 64" fill="none" xmlns="http://www.w3.org/2000/svg">
<path opacity="0.35" d="M15.8684 33.9515L21.3529 36.1008C21.9324 36.3284 22.3804 36.803 22.576 37.3933L24.864 44.3586C25.3511 45.843 27.1769 46.3746 28.384 45.3826L32.3449 42.131C32.8462 41.7186 33.5751 41.7399 34.0533 42.1808L39.1218 46.8564C40.9618 48.5542 43.9502 47.5817 44.4391 45.1266L49.7351 18.5293C50.0658 16.867 48.4071 15.5106 46.8427 16.1648L15.8133 29.1426C13.6658 30.0439 13.6996 33.1017 15.8684 33.9515Z" fill="black"/>
<path d="M31.0365 39.5924L43.4631 23.3026C44.0462 22.5382 43.088 21.5568 42.3111 22.1204L22.1636 36.7017C22.3378 36.9062 22.4907 37.1319 22.576 37.3933L24.864 44.3586C25.088 45.0395 25.5982 45.5088 26.1974 45.7328C27.8027 46.1879 31.0365 39.5924 31.0365 39.5924Z" fill="black"/>
</svg>
