<svg width="64" height="64" viewBox="0 0 64 64" fill="none" xmlns="http://www.w3.org/2000/svg">
<path d="M39.1112 21.3328C38.1298 21.3328 37.3334 22.1293 37.3334 23.1106C37.3334 24.0919 38.1298 24.8884 39.1112 24.8884C40.0925 24.8884 40.8889 24.0919 40.8889 23.1106C40.8889 22.1293 40.0925 21.3328 39.1112 21.3328Z" fill="black"/>
<path opacity="0.35" d="M49.1253 19.1569C49.6817 18.5026 48.9831 17.5391 48.1902 17.8715C46.8657 18.4262 45.4168 18.9222 44.3893 19.1249C44.3377 19.1391 44.2951 19.1551 44.2453 19.1693C42.6879 17.6333 40.5564 16.6822 38.1955 16.6822C33.4382 16.6822 29.5804 20.54 29.5804 25.2973C29.5804 25.548 29.5591 26.0102 29.5804 26.2537C24.2008 26.2537 19.8986 23.8929 16.5848 20.6004C15.7439 19.7649 14.3146 20.3302 14.2506 21.5124C14.2311 21.8377 14.2222 22.1649 14.2222 22.4866C14.2222 25.1693 16.3182 27.804 19.5839 29.436C18.9831 29.5906 18.3199 29.7026 17.6302 29.7026C16.9991 29.7026 16.1226 29.4431 15.4133 29.1675C14.8551 28.9506 14.2968 29.4662 14.4604 30.0422C15.3066 33.0111 18.7075 35.0129 21.7777 35.6297C21.0595 36.0529 19.6124 36.0955 18.9066 36.0955C18.6986 36.0955 18.2684 36.0564 17.8044 36.0031C17.0542 35.9177 16.5475 36.7657 16.9919 37.3755C18.4977 39.4449 21.3511 40.5915 24.0942 40.6395C22.2346 42.0973 19.1768 42.9115 16.1262 43.2653C15.0488 43.3915 14.8142 44.8653 15.8008 45.3151C18.6008 46.5933 21.3973 47.3151 24.4995 47.3151C38.7253 47.3151 46.8106 36.4724 46.8106 26.252C46.8106 26.0866 46.8071 25.7435 46.8017 25.3969C46.8017 25.3631 46.8106 25.3293 46.8106 25.2955C46.8106 25.244 46.7946 25.1942 46.7946 25.1426C46.7893 24.8831 46.7839 24.6395 46.7768 24.5133C47.8506 23.7382 48.8231 22.828 49.6675 21.8111C49.9644 21.4537 49.6088 20.9311 49.1679 21.0751C48.2151 21.3862 47.2213 21.6049 46.1973 21.7275C47.1022 21.1871 48.2204 20.2217 49.1253 19.1569Z" fill="black"/>
</svg>
