<svg width="64" height="64" viewBox="0 0 64 64" fill="none" xmlns="http://www.w3.org/2000/svg">
<path opacity="0.35" d="M45.3387 16.748C42.0658 16.3551 37.5662 15.9995 32 15.9995C26.4338 15.9995 21.9342 16.3551 18.6613 16.748C15.104 17.1746 12.4445 20.22 12.4445 23.804V40.1968C12.4445 43.7791 15.104 46.8244 18.6613 47.2528C21.9342 47.644 26.4338 47.9995 32 47.9995C37.5662 47.9995 42.0658 47.644 45.3387 47.2511C48.896 46.8226 51.5556 43.7791 51.5556 40.1951V23.804C51.5556 20.22 48.896 17.1746 45.3387 16.748Z" fill="black"/>
<path d="M38.2577 30.4066L29.6426 24.6626C29.0542 24.2715 28.2968 24.2324 27.6782 24.5666C27.056 24.9009 26.6666 25.5497 26.6666 26.2555V37.7435C26.6666 38.4511 27.056 39.0982 27.6782 39.4324C27.9608 39.5835 28.272 39.6582 28.5813 39.6582C28.9528 39.6582 29.3226 39.5497 29.6426 39.3364L38.2577 33.5924C38.7911 33.2369 39.1111 32.6395 39.1111 31.9995C39.1111 31.3595 38.7911 30.7622 38.2577 30.4066Z" fill="black"/>
</svg>
