<svg width="582" height="868" viewBox="0 0 582 868" fill="none" xmlns="http://www.w3.org/2000/svg">
    <path d="M138.18 33.88a4.25 4.25 0 10-7.5-4l-8.58 16.1a4.25 4.25 0 107.5 3.99l8.58-16.1z" fill="#000"/>
    <path d="M116.41 69.3c-1.67 8.46-14.97 19.75-29.63 9.86-14.66-9.88-35.75-39.04-39.2-50.97-3.46-11.92 4.45-31.65 40.35-7.43 35.91 24.22 30.15 40.06 28.48 48.53z" fill="#707BA3"/>
    <rect width="104.23" height="43.46" rx="21.73" transform="rotate(-31.98 174.65 -28.92) skewX(-.08)" fill="#FF8A00"/>
    <path d="M53.3 106.55a21.76 21.76 0 016.95-29.95l3.67-2.3 22.96 36.9-3.67 2.3a21.7 21.7 0 01-29.91-6.95zM131.09 83.6l-22.1 13.8-22.97-36.9 22.1-13.8 22.97 36.9zM152.16 44.33a4.25 4.25 0 10-5.5-6.47l-13.88 11.82a4.25 4.25 0 105.5 6.47l13.88-11.82z" fill="#000"/>
    <path d="M82.2 42.8c12.22 4.74 31.22 19.74 21.01 27.24-10.2 7.5-45.73 12.25-61.53 10.14-15.8-2.12-45.25-16.3-20.24-34.67 25-18.37 48.52-7.45 60.75-2.71z" fill="#97A2C7"/>
    <path d="M408.75 820.62a2.21 2.21 0 10-3.9-2.08l-4.45 8.37a2.21 2.21 0 103.9 2.07l4.45-8.37z" fill="#000"/>
    <path d="M397.44 839.03a9.83 9.83 0 01-15.38 5.13c-7.61-5.14-18.56-20.3-20.36-26.5-1.8-6.2 2.31-16.46 20.96-3.87 18.64 12.6 15.65 20.84 14.78 25.24z" fill="#707BA3"/>
    <rect width="54.14" height="22.59" rx="11.29" transform="rotate(-32.02 1658.67 -200.76) skewX(-.16)" fill="#FF8A00"/>
    <path d="M364.67 858.4a11.33 11.33 0 013.62-15.57l1.9-1.2 11.92 19.2-1.9 1.18a11.26 11.26 0 01-15.54-3.6zM405.06 846.47l-11.47 7.18-11.92-19.19 11.47-7.17 11.93 19.18zM416 826.05a2.21 2.21 0 00-2.85-3.36l-7.2 6.14a2.21 2.21 0 002.85 3.37l7.2-6.15z" fill="#000"/>
    <path d="M379.68 825.26c6.34 2.46 16.21 10.26 10.91 14.16-5.3 3.9-23.74 6.37-31.95 5.27-8.2-1.1-23.5-8.47-10.5-18.03 12.98-9.55 25.19-3.87 31.54-1.4z" fill="#97A2C7"/>
    <g opacity=".4" filter="url(#filter0_f)">
        <path d="M152 669.36a3.8 3.8 0 10-6.72-3.59l-7.7 14.42a3.8 3.8 0 106.73 3.58l7.7-14.41z" fill="#000"/>
        <path d="M132.47 701.09c-1.5 7.58-13.44 17.7-26.59 8.84S73.8 674.95 70.7 664.26c-3.1-10.68 4-28.36 36.23-6.66 32.22 21.7 27.05 35.9 25.55 43.49z" fill="#707BA3"/>
        <rect width="93.49" height="38.95" rx="19.48" transform="rotate(-31.94 1287.27 244.47)" fill="#FF8A00"/>
        <path d="M75.83 734.47a19.48 19.48 0 016.23-26.83l3.3-2.06 20.61 33.06-3.3 2.06a19.48 19.48 0 01-26.84-6.23zM145.64 713.9l-19.83 12.37-20.61-33.05 19.83-12.37 20.61 33.06zM164.55 678.72a3.8 3.8 0 10-4.94-5.8l-12.45 10.6a3.8 3.8 0 104.95 5.8l12.44-10.6z" fill="#000"/>
        <path d="M101.76 677.35c10.97 4.24 28.03 17.68 18.87 24.4-9.16 6.72-41.04 10.98-55.22 9.09-14.18-1.9-40.61-14.6-18.17-31.07 22.45-16.46 43.55-6.67 54.52-2.42z" fill="#97A2C7"/>
    </g>
    <g opacity=".6" filter="url(#filter1_f)">
        <path d="M561.64 588.88a2.23 2.23 0 10-3.94-2.1l-4.52 8.5a2.23 2.23 0 103.94 2.1l4.52-8.5z" fill="#000"/>
        <path d="M550.2 607.59a9.94 9.94 0 01-15.58 5.2c-7.7-5.21-18.8-20.6-20.61-26.9-1.82-6.3 2.34-16.72 21.21-3.93 18.88 12.79 15.85 21.15 14.97 25.63z" fill="#707BA3"/>
        <rect width="54.85" height="22.92" rx="11.46" transform="matrix(.84719 -.5313 .52671 .85004 510.98 617.52)" fill="#FF8A00"/>
        <path d="M517.01 627.26a11.53 11.53 0 013.68-15.83l1.9-1.2 12.08 19.48-1.91 1.2a11.38 11.38 0 01-15.75-3.65zM557.9 615.14l-11.61 7.29-12.07-19.48 11.61-7.29 12.07 19.48zM568.99 594.4c.94-.8 1.05-2.22.25-3.16a2.23 2.23 0 00-3.15-.25l-7.3 6.25a2.25 2.25 0 00-.26 3.16c.8.94 2.21 1.05 3.15.25l7.3-6.25z" fill="#000"/>
        <path d="M532.2 593.6c6.43 2.5 16.42 10.42 11.05 14.38-5.36 3.96-24.03 6.47-32.34 5.35-8.3-1.11-23.79-8.6-10.64-18.3 13.15-9.7 25.5-3.93 31.93-1.43z" fill="#97A2C7"/>
    </g>
    <defs>
        <filter id="filter0_f" x="16" y="627" width="164" height="136" filterUnits="userSpaceOnUse" color-interpolation-filters="sRGB">
            <feFlood flood-opacity="0" result="BackgroundImageFix"/>
            <feBlend in="SourceGraphic" in2="BackgroundImageFix" result="shape"/>
            <feGaussianBlur stdDeviation="6" result="effect1_foregroundBlur"/>
        </filter>
        <filter id="filter1_f" x="477" y="559" width="106" height="90" filterUnits="userSpaceOnUse" color-interpolation-filters="sRGB">
            <feFlood flood-opacity="0" result="BackgroundImageFix"/>
            <feBlend in="SourceGraphic" in2="BackgroundImageFix" result="shape"/>
            <feGaussianBlur stdDeviation="6" result="effect1_foregroundBlur"/>
        </filter>
    </defs>
</svg>
