<svg width="299" height="106" viewBox="0 0 299 106" fill="none" xmlns="http://www.w3.org/2000/svg">
<path d="M152 106L159.806 56.9371H175.088C177.998 56.9371 180.159 57.7065 181.571 59.2452C182.982 60.7839 183.423 63.092 182.894 66.1694L182.034 71.3131C181.725 73.5992 181.019 75.3797 179.917 76.6546C178.814 77.8856 177.623 78.6549 176.344 78.9627C179.74 80.2376 181.108 83.0293 180.446 87.3376L179.321 94.6575C178.66 98.6142 177.601 101.494 176.146 103.296C174.691 105.099 172.53 106 169.663 106H152ZM167.678 84.3701H166.025L163.974 97.2953H165.958C166.664 97.2953 167.171 97.1414 167.48 96.8337C167.789 96.482 168.031 95.8005 168.208 94.7894L169.398 87.0739C169.663 85.2714 169.09 84.3701 167.678 84.3701ZM170.523 65.3121H169.068L167.414 75.8633H169.068C170.214 75.8633 170.92 75.0499 171.185 73.4233L172.111 67.5542C172.331 66.0595 171.802 65.3121 170.523 65.3121Z" fill="white"/>
<path d="M193.747 106L194.078 98.812H189.182L187.396 106H178.002L191.895 56.9371H204.993L204.001 106H193.747ZM191.63 89.1181H194.607L195.335 74.2146L191.63 89.1181Z" fill="white"/>
<path d="M208.569 56.9371H231.061L229.473 67.0926H223.52L217.367 106H206.783L212.935 67.0926H206.915L208.569 56.9371Z" fill="white"/>
<path d="M232.537 56.9371H255.029L253.441 67.0926H247.487L241.335 106H230.751L236.903 67.0926H230.883L232.537 56.9371Z" fill="white"/>
<path d="M256.84 56.9371H267.424L261.272 95.5807H270.004L268.35 106H249.034L256.84 56.9371Z" fill="white"/>
<path d="M277.965 56.9371H298.142L296.554 67.0926H286.962L285.639 75.4676H293.379L291.725 85.8869H283.919L282.397 95.6467H292.386L290.733 106H270.159L277.965 56.9371Z" fill="white"/>
<path d="M18.9274 29.9508H13.1529L10.2657 48.3574H0L7.57097 0.641343H21.6863C27.9741 0.641343 30.6474 3.84807 29.7064 10.2615L28.1666 20.1382C27.1828 26.6799 24.103 29.9508 18.9274 29.9508ZM16.5535 8.97882L14.6286 21.1644H16.0402C16.6818 21.1644 17.1309 21.0147 17.3876 20.7154C17.687 20.3734 17.9008 19.7748 18.0292 18.9197L19.1841 11.3518C19.4407 9.76981 18.9702 8.97882 17.7725 8.97882H16.5535Z" fill="white"/>
<path d="M43.9782 9.6843C43.2938 9.6843 42.8019 9.89808 42.5025 10.3256C42.2031 10.7104 41.9678 11.3945 41.7967 12.3779L37.9471 36.8773C37.7332 38.4165 38.2679 39.1862 39.5511 39.1862C40.706 39.1862 41.4117 38.4379 41.6684 36.9414L45.5822 12.3779C45.8388 10.5822 45.3042 9.6843 43.9782 9.6843ZM43.4649 0H45.3255C49.4746 0 52.4688 1.21855 54.308 3.65566C56.1901 6.05001 56.8103 9.32087 56.1687 13.4682L52.5757 36.0436C51.1642 44.7231 47.0365 49.0629 40.1927 49.0629H38.2679C34.2043 49.0629 31.2102 47.9084 29.2854 45.5996C27.4033 43.2908 26.7831 39.9985 27.4247 35.7229L30.9535 13.4682C31.5951 9.06433 32.8784 5.72934 34.8032 3.46326C36.728 1.15442 39.6152 0 43.4649 0Z" fill="white"/>
<path d="M66.1026 28.7964L63.0229 48.3574H52.7572L60.3281 0.641343H75.7267C78.1648 0.641343 80.0469 1.38958 81.3728 2.88605C82.7416 4.33976 83.2335 6.39207 82.8485 9.04296L81.822 15.3281C81.1804 19.219 79.448 21.6347 76.6249 22.5753C79.0631 23.9435 80.0896 26.1241 79.7047 29.117L77.2666 44.5093C77.0099 45.8775 77.0527 47.0533 77.3949 48.0367L77.3307 48.3574H67.1292C66.6587 47.5878 66.5517 46.3906 66.8084 44.7658L68.9257 31.2335C69.0968 30.3356 69.0754 29.7156 68.8615 29.3736C68.6476 28.9888 68.1771 28.7964 67.45 28.7964H66.1026ZM69.3106 8.85055L67.5783 19.8175H69.054C70.2516 19.8175 70.936 19.0479 71.1071 17.5087L72.1337 11.0311C72.3903 9.57741 71.9198 8.85055 70.7222 8.85055H69.3106Z" fill="white"/>
<path d="M85.6922 0.641343H107.507L105.967 10.518H100.192L94.2255 48.3574H83.9598L89.9268 10.518H84.0881L85.6922 0.641343Z" fill="white"/>
<path d="M109.263 0.641343H129.025L127.421 10.518H117.989L116.706 18.599H124.02L122.352 28.7322H115.038L111.958 48.3574H101.692L109.263 0.641343Z" fill="white"/>
<path d="M141.347 9.6843C140.663 9.6843 140.171 9.89808 139.871 10.3256C139.572 10.7104 139.337 11.3945 139.166 12.3779L135.316 36.8773C135.102 38.4165 135.637 39.1862 136.92 39.1862C138.075 39.1862 138.781 38.4379 139.037 36.9414L142.951 12.3779C143.208 10.5822 142.673 9.6843 141.347 9.6843ZM140.834 0H142.694C146.844 0 149.838 1.21855 151.677 3.65566C153.559 6.05001 154.179 9.32087 153.538 13.4682L149.945 36.0436C148.533 44.7231 144.405 49.0629 137.562 49.0629H135.637C131.573 49.0629 128.579 47.9084 126.654 45.5996C124.772 43.2908 124.152 39.9985 124.794 35.7229L128.322 13.4682C128.964 9.06433 130.247 5.72934 132.172 3.46326C134.097 1.15442 136.984 0 140.834 0Z" fill="white"/>
<path d="M157.697 0.641343H167.963L161.996 38.2241H170.465L168.861 48.3574H150.126L157.697 0.641343Z" fill="white"/>
<path d="M188.452 0.641343L180.881 48.3574H170.615L178.186 0.641343H188.452Z" fill="white"/>
<path d="M201.623 9.6843C200.939 9.6843 200.447 9.89808 200.147 10.3256C199.848 10.7104 199.613 11.3945 199.442 12.3779L195.592 36.8773C195.378 38.4165 195.913 39.1862 197.196 39.1862C198.351 39.1862 199.057 38.4379 199.313 36.9414L203.227 12.3779C203.484 10.5822 202.949 9.6843 201.623 9.6843ZM201.11 0H202.97C207.12 0 210.114 1.21855 211.953 3.65566C213.835 6.05001 214.455 9.32087 213.814 13.4682L210.221 36.0436C208.809 44.7231 204.681 49.0629 197.838 49.0629H195.913C191.849 49.0629 188.855 47.9084 186.93 45.5996C185.048 43.2908 184.428 39.9985 185.07 35.7229L188.598 13.4682C189.24 9.06433 190.523 5.72934 192.448 3.46326C194.373 1.15442 197.26 0 201.11 0Z" fill="white"/>
</svg>
