<svg width="274" height="106" viewBox="0 0 274 106" fill="none" xmlns="http://www.w3.org/2000/svg">
<path d="M0 48.5206L7.70988 0H32.9957L31.1662 11.6736H18.556L17.6413 17.6083H23.587C26.2441 17.6083 28.2914 18.4996 29.7288 20.2821C31.2098 22.0647 31.6889 24.5864 31.1662 27.8472L29.4674 38.4774C28.3349 45.1729 24.6978 48.5206 18.556 48.5206H0ZM14.2437 38.9339H15.1584C15.7682 38.9339 16.2038 38.8035 16.4652 38.5426C16.7265 38.2383 16.9008 37.7383 16.9879 37.0426L18.164 29.608C18.2511 28.8689 18.2293 28.3689 18.0986 28.1081C17.968 27.8037 17.5977 27.6515 16.9879 27.6515H16.0731L14.2437 38.9339Z" fill="white"/>
<path d="M46.2644 48.5206L49.7927 26.2168L41.4947 48.5206H29.7339L37.4438 0H49.2046L45.6764 22.3691L53.9743 0H65.7351L58.0252 48.5206H46.2644Z" fill="white"/>
<path d="M67.2369 0H91.3466L89.5171 11.6736H83.7021L77.887 48.5206H65.2767L71.0918 11.6736H65.3421L67.2369 0Z" fill="white"/>
<path d="M84.9935 48.5206L92.7034 0H111.063C113.808 0 115.92 0.826068 117.401 2.4782C118.926 4.13034 119.448 6.52159 118.969 9.65195L118.316 13.5649C117.663 17.8257 115.593 20.4995 112.109 21.5865C113.459 22.1082 114.657 23.0864 115.702 24.5212C116.748 25.9559 117.074 27.9776 116.682 30.5863L115.702 36.9774C115.049 40.9773 113.916 43.912 112.305 45.7816C110.693 47.6076 108.341 48.5206 105.248 48.5206H84.9935ZM102.177 27.5211H101.001L99.1719 38.9339H100.675C101.284 38.9339 101.698 38.8035 101.916 38.5426C102.134 38.2383 102.286 37.7165 102.373 36.9774L103.549 29.5428C103.724 28.195 103.266 27.5211 102.177 27.5211ZM104.856 9.26066H103.876L102.439 18.4561H103.549C104.508 18.4561 105.074 17.8039 105.248 16.4996L106.098 11.0867C106.185 10.4345 106.141 9.97803 105.967 9.71717C105.836 9.41283 105.466 9.26066 104.856 9.26066Z" fill="white"/>
<path d="M130.597 48.5206L130.924 42.5208H126.285L124.782 48.5206H113.805L127.657 0H143.664L142.88 48.5206H130.597ZM128.963 31.6297H131.512L132.165 18.9126L128.963 31.6297Z" fill="white"/>
<path d="M12.6756 105.283H0L7.70988 56.762H35.6746L27.9647 105.283H15.2891L21.1695 68.4356H18.556L12.6756 105.283Z" fill="white"/>
<path d="M50.1862 67.3922C49.6635 67.3922 49.2715 67.5661 49.0101 67.9139C48.7923 68.2183 48.6181 68.7835 48.4874 69.6095L44.8285 92.5655C44.6107 93.8264 45.0463 94.4568 46.1353 94.4568C47.0936 94.4568 47.6598 93.8481 47.8341 92.6307L51.493 69.6095C51.6672 68.1313 51.2316 67.3922 50.1862 67.3922ZM49.8595 56.0446H51.9503C56.6982 56.0446 60.1394 57.3924 62.2738 60.088C64.4081 62.7836 65.1268 66.4792 64.4299 71.1747L61.2283 91.3916C59.6602 101.131 54.7817 106 46.5926 106H44.4365C39.7321 106 36.291 104.717 34.1131 102.152C31.9351 99.5871 31.2164 95.8915 31.9569 91.0656L35.0931 71.1747C35.9208 66.1313 37.4453 62.3488 39.6668 59.8271C41.8883 57.3055 45.2859 56.0446 49.8595 56.0446Z" fill="white"/>
<path d="M82.9665 87.3483H76.0407L73.2311 105.283H60.5556L68.2654 56.762H86.1027C88.934 56.762 91.1338 57.6098 92.7019 59.3054C94.27 60.9575 94.8145 63.4575 94.3353 66.8052L92.7672 77.1094C91.7654 83.9353 88.4985 87.3483 82.9665 87.3483ZM79.4383 66.3487L77.7395 77.305H78.7195C79.2422 77.305 79.6125 77.1746 79.8303 76.9137C80.0916 76.6094 80.2876 76.0876 80.4183 75.3485L81.5291 68.24C81.5726 67.8052 81.5944 67.4574 81.5944 67.1965C81.5944 66.9357 81.4855 66.74 81.2677 66.6096C81.0935 66.4357 80.8103 66.3487 80.4183 66.3487H79.4383Z" fill="white"/>
<path d="M96.907 56.762H121.017L119.187 68.4356H113.372L107.557 105.283H94.9468L100.762 68.4356H95.0122L96.907 56.762Z" fill="white"/>
<path d="M136.559 60.1532L137.213 56.1098H149.758L149.104 60.1532H155.05C157.881 60.1532 159.994 60.9793 161.388 62.6314C162.782 64.2401 163.239 66.7618 162.76 70.1965L159.493 90.8047C159.014 94.0655 157.729 96.5872 155.638 98.3697C153.591 100.152 151.261 101.044 148.647 101.044H142.571L141.787 105.935H129.242L130.026 101.044H123.949C121.292 101.044 119.223 100.152 117.742 98.3697C116.305 96.5872 115.847 94.0655 116.37 90.8047L119.637 70.1965C120.16 66.8052 121.401 64.2836 123.361 62.6314C125.321 60.9793 127.739 60.1532 130.614 60.1532H136.559ZM135.057 69.74H134.207C133.598 69.74 133.162 69.8921 132.901 70.1965C132.683 70.4573 132.53 70.9356 132.443 71.6312L129.699 89.0439C129.568 89.7395 129.568 90.2395 129.699 90.5438C129.873 90.8482 130.265 91.0003 130.875 91.0003H131.659L135.057 69.74ZM147.602 69.74L144.204 91.0003H144.988C145.598 91.0003 146.012 90.8699 146.23 90.609C146.491 90.3047 146.687 89.783 146.818 89.0439L149.562 71.6312C149.605 71.1964 149.605 70.8486 149.562 70.5878C149.562 70.3269 149.453 70.1313 149.235 70.0008C149.061 69.8269 148.756 69.74 148.32 69.74H147.602Z" fill="white"/>
<path d="M166.655 56.762H188.674L186.845 68.4356H177.501L176.587 74.2399H184.297L182.402 86.1744H174.627L173.45 93.4785H183.186L181.291 105.283H158.945L166.655 56.762Z" fill="white"/>
<path d="M199.858 105.283L205.738 68.4356H202.798C201.186 78.6963 199.792 86.8483 198.616 92.8916C197.702 97.8045 196.242 101.109 194.239 102.804C192.279 104.457 189.142 105.283 184.83 105.283H182.543L184.438 93.2177H184.961C185.788 93.2177 186.398 92.9786 186.79 92.5003C187.182 92.0221 187.509 91.1742 187.77 89.9569C188.946 84.7396 190.863 73.6746 193.52 56.762H220.243L212.533 105.283H199.858Z" fill="white"/>
<path d="M222.103 56.762H244.122L242.293 68.4356H232.949L232.035 74.2399H239.745L237.85 86.1744H230.074L228.898 93.4785H238.634L236.739 105.283H214.393L222.103 56.762Z" fill="white"/>
<path d="M254.529 105.283L258.058 82.9788L249.76 105.283H237.999L245.709 56.762H257.469L253.941 79.1311L262.239 56.762H274L266.29 105.283H254.529ZM260.279 55.3925H260.018C257.056 55.3925 254.878 54.6533 253.484 53.1751C252.134 51.6969 251.589 49.8056 251.85 47.5013L251.981 46.5883H259.103C258.798 48.1535 259.234 48.9361 260.41 48.9361H260.475C261.128 48.9361 261.586 48.7622 261.847 48.4144C262.152 48.0231 262.348 47.4144 262.435 46.5883H269.622L269.557 47.3057C269.078 52.6969 265.985 55.3925 260.279 55.3925Z" fill="white"/>
</svg>
