<svg width="203" height="164" viewBox="0 0 203 164" fill="black" xmlns="http://www.w3.org/2000/svg">
<path opacity="0.1" d="M169.167 -63C150.615 -63 135.333 -47.6209 135.333 -28.95C135.333 -26.7827 135.579 -24.6697 135.972 -22.61L55.5078 24.63C49.6058 19.6036 42.0895 16.45 33.8333 16.45C15.2813 16.45 0 31.8291 0 50.5C0 69.1709 15.2813 84.55 33.8333 84.55C42.0895 84.55 49.6058 81.3964 55.5078 76.37L135.972 123.588C135.576 125.654 135.333 127.775 135.333 129.95C135.333 148.621 150.615 164 169.167 164C187.719 164 203 148.621 203 129.95C203 111.279 187.719 95.9 169.167 95.9C160.905 95.9 153.396 99.0704 147.492 104.102L67.0279 56.84C67.4209 54.7803 67.6667 52.6673 67.6667 50.5C67.6667 48.3327 67.4209 46.2197 67.0279 44.16L147.492 -3.07998C153.394 1.94636 160.91 5.10001 169.167 5.10001C187.719 5.10001 203 -10.2791 203 -28.95C203 -47.6209 187.719 -63 169.167 -63ZM169.167 -40.3C175.529 -40.3 180.444 -35.3529 180.444 -28.95C180.444 -22.5471 175.529 -17.6 169.167 -17.6C162.805 -17.6 157.889 -22.5471 157.889 -28.95C157.889 -35.3529 162.805 -40.3 169.167 -40.3ZM33.8333 39.15C40.1955 39.15 45.1111 44.0971 45.1111 50.5C45.1111 56.9029 40.1955 61.85 33.8333 61.85C27.4712 61.85 22.5556 56.9029 22.5556 50.5C22.5556 44.0971 27.4712 39.15 33.8333 39.15ZM169.167 118.6C175.529 118.6 180.444 123.547 180.444 129.95C180.444 136.353 175.529 141.3 169.167 141.3C162.805 141.3 157.889 136.353 157.889 129.95C157.889 123.547 162.805 118.6 169.167 118.6Z"/>
</svg>
