<svg xmlns="http://www.w3.org/2000/svg" width="24" height="24" fill="none"><path fill="#fff" d="M10.4.79a.8.8 0 0 0-.742 1.107l.719 1.797-1.966-1.18a.8.8 0 1 0-.822 1.372l1.524.914H4a1.6 1.6 0 0 0-1.6 1.6V8h8.8V6.4h.569a.8.8 0 0 0 .223.031h.003a.8.8 0 0 0 .238-.031h.567V8h8.8V6.4A1.6 1.6 0 0 0 20 4.8h-5.113l1.524-.914a.8.8 0 1 0-.822-1.372l-1.966 1.18.72-1.797a.8.8 0 1 0-1.485-.594L12 3.448l-.858-2.145A.8.8 0 0 0 10.4.79ZM3.2 9.6v9.6a1.6 1.6 0 0 0 1.6 1.6h6.4V9.6h-8Zm9.6 0v11.2h6.4a1.6 1.6 0 0 0 1.6-1.6V9.6h-8Z"/></svg>
