<svg width="32" height="32" viewBox="0 0 32 32" fill="#FF8A00" xmlns="http://www.w3.org/2000/svg">
    <path d="M29.1893 22.6666H28V12.6666C28 8.62261 24.7107 5.33327 20.6667 5.33327C16.6227 5.33327 13.3333 8.62261 13.3333 12.6666V19.3333C13.3333 20.4359 12.436 21.3333 11.3333 21.3333C10.2307 21.3333 9.33332 20.4359 9.33332 19.3333V10.6666H10.5227C11.2427 10.6666 11.604 9.79861 11.0973 9.28661L7.49865 5.65327C7.03999 5.19061 6.29332 5.19061 5.83599 5.65327L2.23599 9.28661C1.72932 9.79861 2.09199 10.6666 2.81065 10.6666H3.99999V19.3333C3.99999 23.3773 7.28932 26.6666 11.3333 26.6666C15.3773 26.6666 18.6667 23.3773 18.6667 19.3333V12.6666C18.6667 11.5639 19.564 10.6666 20.6667 10.6666C21.7693 10.6666 22.6667 11.5639 22.6667 12.6666V22.6666H21.4773C20.7573 22.6666 20.396 23.5346 20.9027 24.0466L24.5013 27.6799C24.96 28.1426 25.7067 28.1426 26.164 27.6799L29.7627 24.0466C30.2707 23.5346 29.908 22.6666 29.1893 22.6666Z" fill="black"/>
    <path d="M29.1893 22.6667H28V12.6667C28 8.62271 24.7106 5.33337 20.6667 5.33337C20.6667 5.33337 22.6667 8.00004 22.6667 12.6667V22.6667H21.4773C20.7573 22.6667 20.396 23.5347 20.9027 24.0467L24.5013 27.68C24.96 28.1427 25.7066 28.1427 26.164 27.68L29.7626 24.0467C30.2706 23.5347 29.908 22.6667 29.1893 22.6667Z"/>
</svg>
