<svg width="24" height="24" viewBox="0 0 24 24" fill="#222" xmlns="http://www.w3.org/2000/svg">
<path d="M23 12C23 18.0658 18.0658 23 12 23C5.93422 23 1 18.0658 1 12C1 5.9347 5.93422 1 12 1C18.0658 1 23 5.9347 23 12ZM5.30435 10.5652H8.17391C8.30113 10.5652 8.42261 10.515 8.51204 10.4251L10.5561 8.381C10.8407 8.54935 11.1678 8.65217 11.5217 8.65217C12.5768 8.65217 13.4348 7.79417 13.4348 6.73913C13.4348 5.68409 12.5768 4.82609 11.5217 4.82609C10.4667 4.82609 9.6087 5.68409 9.6087 6.73913C9.6087 7.09304 9.71152 7.42017 9.87987 7.70474L7.97591 9.6087H5.30435C5.03987 9.6087 4.82609 9.82296 4.82609 10.087C4.82609 10.351 5.03987 10.5652 5.30435 10.5652ZM18.6957 13.4348H15.8261C15.6989 13.4348 15.5774 13.485 15.488 13.5749L13.4439 15.619C13.1593 15.4507 12.8322 15.3478 12.4783 15.3478C11.4232 15.3478 10.5652 16.2058 10.5652 17.2609C10.5652 18.3159 11.4232 19.1739 12.4783 19.1739C13.5333 19.1739 14.3913 18.3159 14.3913 17.2609C14.3913 16.907 14.2885 16.5798 14.1201 16.2953L16.0241 14.3913H18.6957C18.9601 14.3913 19.1739 14.1775 19.1739 13.913C19.1739 13.6486 18.9601 13.4348 18.6957 13.4348ZM10.9033 13.7729L13.6328 11.0435H18.6957C18.9601 11.0435 19.1739 10.8292 19.1739 10.5652C19.1739 10.3012 18.9601 10.087 18.6957 10.087H13.4348C13.3076 10.087 13.1861 10.1372 13.0967 10.2271L10.3672 12.9565H5.30435C5.03987 12.9565 4.82609 13.1703 4.82609 13.4348C4.82609 13.6993 5.03987 13.913 5.30435 13.913H10.5652C10.6924 13.913 10.8139 13.8628 10.9033 13.7729Z"/>
</svg>
