<svg width="96" height="96" viewBox="0 0 96 96" fill="none" xmlns="http://www.w3.org/2000/svg">
    <circle cx="48" cy="48" r="48" fill="#fff"/>
    <path d="m39.95 47.5 16.77-7.73a10.6 10.6 0 0 1-3.34-7.27l-16.77 7.74c1.96 1.83 3.2 4.4 3.34 7.27ZM56.73 56.24 39.95 48.5a10.6 10.6 0 0 1-3.34 7.27l16.77 7.74a10.58 10.58 0 0 1 3.35-7.27Z" fill="#FFE4B0"/>
    <path d="M29.33 37.33a10.67 10.67 0 1 0 0 21.34 10.67 10.67 0 0 0 0-21.34ZM64 21.33a10.67 10.67 0 1 0 0 21.34 10.67 10.67 0 0 0 0-21.34ZM64 53.33a10.67 10.67 0 1 0 0 21.34 10.67 10.67 0 0 0 0-21.34Z" fill="#FF8A00"/>
</svg>
