<svg width="24" height="24" viewBox="0 0 24 24" fill="none" xmlns="http://www.w3.org/2000/svg">
<g clip-path="url(#clip0_2478_3606)">
<path d="M3.6 24H20.4C22.3884 24 24 21.9855 24 19.5V4.5C24 2.0145 22.3884 0 20.4 0H3.6C1.6116 0 0 2.0145 0 4.5V19.5C0 21.9855 1.6116 24 3.6 24Z" fill="#FFE4B0"/>
<path d="M9.48411 11.8458L14.7258 9.42666C14.1133 8.85166 13.7233 8.05166 13.6816 7.15582L8.43994 9.57499C9.05327 10.1483 9.44244 10.9492 9.48411 11.8458Z" fill="#FF8A00"/>
<path d="M14.7266 14.5742L9.48496 12.155C9.4433 13.0508 9.0533 13.8517 8.4408 14.4267L13.6825 16.8458C13.7241 15.9492 14.1133 15.1483 14.7266 14.5742Z" fill="#FF8A00"/>
<path d="M6.16671 8.66666C4.32587 8.66666 2.83337 10.1592 2.83337 12C2.83337 13.8408 4.32587 15.3333 6.16671 15.3333C8.00754 15.3333 9.50004 13.8408 9.50004 12C9.50004 10.1592 8.00754 8.66666 6.16671 8.66666Z" fill="#FF8A00"/>
<path d="M17 3.66666C15.1591 3.66666 13.6666 5.15916 13.6666 6.99999C13.6666 8.84082 15.1591 10.3333 17 10.3333C18.8408 10.3333 20.3333 8.84082 20.3333 6.99999C20.3333 5.15916 18.8408 3.66666 17 3.66666Z" fill="#FF8A00"/>
<path d="M17 13.6667C15.1591 13.6667 13.6666 15.1592 13.6666 17C13.6666 18.8408 15.1591 20.3333 17 20.3333C18.8408 20.3333 20.3333 18.8408 20.3333 17C20.3333 15.1592 18.8408 13.6667 17 13.6667Z" fill="#FF8A00"/>
</g>
<defs>
<clipPath id="clip0_2478_3606">
<rect width="24" height="24" fill="white"/>
</clipPath>
</defs>
</svg>
