<svg xmlns="http://www.w3.org/2000/svg" width="24" height="24" version="1.0" viewBox="0 0 64 64">
    <circle cx="32" cy="32" r="32" fill="#AB56FF"/>
    <path d="M25 1.3m12.3 12.9c2.4 2.8 2.1 5.5-.8 8.4-2.8 2.8-3.3 7.5-1 9.4 2.6 2.2 1.6 3-3.5 3s-6.1-.8-3.5-3c2.2-1.9 1.8-5.8-1-9.2-2.7-3.2-3-4.9-1.4-7.9 2.2-4.2 7.9-4.5 11.2-.7zm-13.5 19c.3 1.5-.4 1.8-3.2 1.8-3.9 0-3.9 0-3-2.5.9-2.2 5.8-1.6 6.2.7z" fill="#fff"/>
    <path d="M48.8 38.2c1.6 1.6 1.6 8 0 9.6 c-1.7 1.7-31.9 1.7-33.6 0-1.6-1.6-1.6-8 0-9.6 1.7-1.7 31.9-1.7 33.6 0z" fill="#fff"/>
    <!--<path d="M49.3 38l 0 10 l -34.6 0 l 0 -10z" fill="red" />-->
</svg>
