<svg xmlns="http://www.w3.org/2000/svg" width="24" height="24" fill="#000">
    <path d="M19.667 15.167c.75 0 1.5.747 1.5 1.666v2.334c0 .919-.748 1.666-1.667 1.666h-2.333a1.669 1.669 0 0 1-1.667-1.666V19h-3.167a.667.667 0 0 1 0-1.333H15.5v-.834c0-.919.748-1.666 1.667-1.666h1.166v-1.5c0-.35.299-.635.667-.635.368 0 .667.284.667.635v1.5Zm-.5 3.333v-1a.334.334 0 0 0-.334-.333h-1a.334.334 0 0 0-.333.333v1c0 .184.15.333.333.333h1c.184 0 .334-.15.334-.333ZM10 17.667A.667.667 0 0 1 10 19H8.5v.164c0 .92-.748 1.667-1.667 1.667H4.5a1.669 1.669 0 0 1-1.667-1.667v-2.33c0-.92.748-1.667 1.667-1.667H5v-2.5a.667.667 0 0 1 1.333 0v2.5h.5c.925.01 1.747.895 1.667 1.666v.834H10Zm-3.5.833v-1a.334.334 0 0 0-.333-.333l-1-.003a.334.334 0 0 0-.334.333V18.5c0 .184.15.333.334.333h1c.184 0 .333-.15.333-.333Zm13-15.333c.919 0 1.667.747 1.667 1.666v2.334c0 .919-.834 1.666-1.5 1.666v2.511A.662.662 0 0 1 19 12a.661.661 0 0 1-.667-.656v-2.51h-1.25c-.919 0-1.583-.748-1.583-1.667v-.834H14A.667.667 0 0 1 14 5h1.5v-.167c0-.919.748-1.666 1.667-1.666H19.5ZM19.167 6.5v-1a.334.334 0 0 0-.334-.333h-1a.334.334 0 0 0-.333.333v1c0 .184.15.333.333.333h1c.184 0 .334-.15.334-.333Zm-7.5-1.5a.667.667 0 0 1 0 1.333H8.5v.834c0 .919-.748 1.666-1.667 1.666h-.5v1.5a.667.667 0 0 1-1.333 0v-1.5h-.583c-.92 0-1.584-.914-1.584-1.833V4.833c0-.919.748-1.666 1.667-1.666h2.333c.92 0 1.667.747 1.667 1.666V5h3.167ZM6.5 6.5v-1a.334.334 0 0 0-.333-.333h-1a.334.334 0 0 0-.334.333v1c0 .184.15.333.334.333h1c.184 0 .333-.15.333-.333Z"/>
</svg>
