<svg width="24" height="24" viewBox="0 0 24 24" fill="none" xmlns="http://www.w3.org/2000/svg">
    <path d="M5 22.25h14c1.66 0 3-1.68 3-3.75V6c0-2.07-1.34-3.75-3-3.75H5C3.34 2.25 2 3.93 2 6v12.5c0 2.07 1.34 3.75 3 3.75Z" fill="#FFE4B0"/>
    <path d="m13.1 7.1.69 1.38c.22.44.64.75 1.13.82l1.54.23a1.5 1.5 0 0 1 .83 2.57l-1.1 1.08c-.36.35-.52.85-.44 1.34l.26 1.52a1.5 1.5 0 0 1-2.19 1.6l-1.37-.73a1.5 1.5 0 0 0-1.4 0l-1.37.72a1.5 1.5 0 0 1-2.2-1.59l.27-1.52c.08-.5-.08-1-.43-1.34L6.2 12.1c-.9-.87-.4-2.4.83-2.57l1.54-.23c.49-.07.91-.38 1.13-.82l.69-1.39a1.5 1.5 0 0 1 2.7 0Z" fill="#FF8A00"/>
</svg>
