<svg width="24" height="24" viewBox="0 0 24 24" fill="#000" xmlns="http://www.w3.org/2000/svg">
    <path d="M12.48 0a.91.91 0 0 0-.71.38L4.66 10.43a.84.84 0 0 0 .33 1.25l7.11 3.42a.92.92 0 0 0 .8 0l7.1-3.42a.88.88 0 0 0 .47-.55.83.83 0 0 0-.13-.7L13.24.38a.92.92 0 0 0-.76-.37Zm.02 2.38v6.2l5.8 2.01-5.8 2.79v-4.8l-5.7 1.87 5.7-8.07ZM5.36 13.7a.91.91 0 0 0-.46.15.87.87 0 0 0-.32.35.83.83 0 0 0 .12.9l7.1 8.57a.88.88 0 0 0 .7.32.92.92 0 0 0 .7-.32l7.1-8.57a.84.84 0 0 0 0-1.08.92.92 0 0 0-1.09-.23l-6.71 3.24-6.71-3.24a.92.92 0 0 0-.43-.09Zm3.25 3.37 3.5 1.69c.12.06.25.09.39.09v2.91l-3.89-4.69Z"/>
</svg>
