<svg xmlns="http://www.w3.org/2000/svg" width="24" height="24" fill="#fff">
    <path fill-rule="evenodd" d="m6.011 14.307-3.085-1.209c-1.22-.478-1.239-2.198-.031-2.705l17.454-7.3a1.19 1.19 0 0 1 1.627 1.33l-2.979 14.961c-.275 1.381-1.956 1.928-2.991.973l-2.851-2.63a.732.732 0 0 0-.961-.028l-2.228 1.829a1.25 1.25 0 0 1-1.98-.576l-1.287-3.918a1.18 1.18 0 0 0-.688-.727Zm10.42-5.504-4.773 6.672s-1.242 2.702-1.859 2.516a.872.872 0 0 1-.512-.563l-.879-2.853a.86.86 0 0 0-.158-.284l7.739-5.973c.298-.23.666.171.442.485Z"/>
</svg>
