<svg width="24" height="24" viewBox="0 0 24 24" fill="#000" xmlns="http://www.w3.org/2000/svg">
    <path d="M20 5.36C20 4.6 19.43 4 18.72 4c-.7 0-1.27.6-1.27 1.36v13.28c0 .75.57 1.36 1.27 1.36.7 0 1.28-.6 1.28-1.36V5.36Zm-8.1 4.59 1.92-1.88a1.3 1.3 0 0 1 1.81 0c.5.48.5 1.27 0 1.76l-2.73 2.66a1.3 1.3 0 0 1-1.9.1L4.37 6.13c-.5-.49-.5-1.28 0-1.76a1.3 1.3 0 0 1 1.8 0l5.73 5.58Zm-6.62-.91c.7 0 1.27.63 1.27 1.41v8.13c0 .79-.57 1.42-1.27 1.42-.7 0-1.28-.63-1.28-1.42v-8.13c0-.78.57-1.41 1.28-1.41Z"/>
</svg>
