<svg width="32" height="32" viewBox="0 0 32 32" fill="#FF8A00" xmlns="http://www.w3.org/2000/svg">
    <path d="M22.2226 20.652C24.9106 18.7147 26.6666 15.5667 26.6666 12C26.6666 6.10937 21.8906 1.33337 16 1.33337C10.1093 1.33337 5.33331 6.10937 5.33331 12C5.33331 15.5667 7.08931 18.7147 9.77731 20.652L10.6346 24H21.3653L22.2226 20.652Z"/>
    <path d="M19.192 14.2614C19.192 10.7854 15.3547 11.26 15.3547 9.44804C15.3547 8.38138 16.1933 8.26938 16.484 8.26938C16.7707 8.26938 17.0227 8.33738 17.2373 8.43471C17.7413 8.66271 18.34 8.45071 18.66 7.99871C19.0693 7.41871 18.8573 6.60404 18.2107 6.31338C17.856 6.15338 17.4133 6.02538 16.8773 5.97471V5.46804C16.8773 5.00404 16.5013 4.62671 16.036 4.62671C15.5707 4.62671 15.1947 5.00271 15.1947 5.46804V6.15071C13.7867 6.62004 12.872 7.90938 12.872 9.55871C12.872 13.2067 16.6613 12.548 16.6613 14.444C16.6613 14.8094 16.4893 15.604 15.548 15.604C15.1293 15.604 14.7693 15.4867 14.476 15.332C13.9773 15.0707 13.3587 15.264 13.0413 15.728L13.008 15.7774C12.6413 16.3147 12.7893 17.0667 13.3547 17.3867C13.8307 17.656 14.4107 17.8654 15.112 17.94V18.5307C15.112 18.9947 15.488 19.372 15.9533 19.372C16.4173 19.372 16.7947 18.996 16.7947 18.5307V17.7894C18.352 17.312 19.192 15.892 19.192 14.2614Z" fill="black"/>
    <path d="M20.7693 26.3253L21.3653 24H10.6346L11.2293 26.3253C11.6826 28.0947 13.2773 29.3333 15.104 29.3333H16.8946C18.7226 29.3333 20.3173 28.0947 20.7693 26.3253Z" fill="black"/>
    <path d="M28 4.00004C28.7364 4.00004 29.3334 3.40309 29.3334 2.66671C29.3334 1.93033 28.7364 1.33337 28 1.33337C27.2636 1.33337 26.6667 1.93033 26.6667 2.66671C26.6667 3.40309 27.2636 4.00004 28 4.00004Z" fill="black"/>
    <path d="M4.00002 4.00004C4.7364 4.00004 5.33335 3.40309 5.33335 2.66671C5.33335 1.93033 4.7364 1.33337 4.00002 1.33337C3.26364 1.33337 2.66669 1.93033 2.66669 2.66671C2.66669 3.40309 3.26364 4.00004 4.00002 4.00004Z" fill="black"/>
    <path d="M28 22.6667C28.7364 22.6667 29.3334 22.0697 29.3334 21.3333C29.3334 20.597 28.7364 20 28 20C27.2636 20 26.6667 20.597 26.6667 21.3333C26.6667 22.0697 27.2636 22.6667 28 22.6667Z" fill="black"/>
    <path d="M4.00002 22.6667C4.7364 22.6667 5.33335 22.0697 5.33335 21.3333C5.33335 20.597 4.7364 20 4.00002 20C3.26364 20 2.66669 20.597 2.66669 21.3333C2.66669 22.0697 3.26364 22.6667 4.00002 22.6667Z" fill="black"/>
    <path d="M30.6666 13.3333C31.403 13.3333 32 12.7363 32 12C32 11.2636 31.403 10.6666 30.6666 10.6666C29.9303 10.6666 29.3333 11.2636 29.3333 12C29.3333 12.7363 29.9303 13.3333 30.6666 13.3333Z" fill="black"/>
    <path d="M1.33333 13.3333C2.06971 13.3333 2.66667 12.7363 2.66667 12C2.66667 11.2636 2.06971 10.6666 1.33333 10.6666C0.596954 10.6666 0 11.2636 0 12C0 12.7363 0.596954 13.3333 1.33333 13.3333Z" fill="black"/>
</svg>
