<svg width="24" height="24" viewBox="0 0 24 24" fill="#fff" xmlns="http://www.w3.org/2000/svg">
<path opacity="0.45" d="M2.926 13.098L6.011 14.307C6.337 14.435 6.589 14.702 6.699 15.034L7.986 18.952C8.26 19.787 9.287 20.086 9.966 19.528L12.194 17.699C12.476 17.467 12.886 17.479 13.155 17.727L16.006 20.357C17.041 21.312 18.722 20.765 18.997 19.384L21.976 4.42297C22.162 3.48797 21.229 2.72497 20.349 3.09297L2.895 10.393C1.687 10.9 1.70601 12.62 2.926 13.098Z"/>
<path d="M11.458 16.2711L18.448 7.10806C18.776 6.67806 18.237 6.12606 17.8 6.44306L6.46701 14.6451C6.56501 14.7601 6.65101 14.8871 6.69901 15.0341L7.98601 18.9521C8.11201 19.3351 8.39901 19.5991 8.73601 19.7251C9.63901 19.9811 11.458 16.2711 11.458 16.2711Z"/>
</svg>
