<svg width="32" height="32" viewBox="0 0 32 32" fill="#FF8A00" xmlns="http://www.w3.org/2000/svg">
    <path d="M26.6667 4H5.33335C3.86002 4 2.66669 5.19333 2.66669 6.66667V17.3333C2.66669 18.8067 3.86002 20 5.33335 20H26.6667C28.14 20 29.3334 18.8067 29.3334 17.3333V6.66667C29.3334 5.19333 28.14 4 26.6667 4Z"/>
    <path d="M16 17.3333C18.5773 17.3333 20.6666 14.9455 20.6666 12C20.6666 9.05447 18.5773 6.66666 16 6.66666C13.4227 6.66666 11.3333 9.05447 11.3333 12C11.3333 14.9455 13.4227 17.3333 16 17.3333Z" fill="black"/>
    <path d="M25.3333 13.3333C26.0697 13.3333 26.6667 12.7364 26.6667 12C26.6667 11.2636 26.0697 10.6667 25.3333 10.6667C24.597 10.6667 24 11.2636 24 12C24 12.7364 24.597 13.3333 25.3333 13.3333Z" fill="black"/>
    <path d="M6.66665 13.3333C7.40303 13.3333 7.99998 12.7364 7.99998 12C7.99998 11.2636 7.40303 10.6667 6.66665 10.6667C5.93027 10.6667 5.33331 11.2636 5.33331 12C5.33331 12.7364 5.93027 13.3333 6.66665 13.3333Z" fill="black"/>
    <path d="M26.6667 20H5.33335C3.86002 20 2.66669 18.8053 2.66669 17.3333V16V21.4027C2.66669 22.8307 3.78402 23.996 5.20935 24.0613C12.3334 24.3893 20.912 26.0293 26.028 28.4893C27.5627 29.2267 29.3334 28.1293 29.3334 26.4267V17.3333C29.3334 18.8067 28.1387 20 26.6667 20Z" fill="black"/>
</svg>
