<svg width="32" height="32" viewBox="0 0 32 32" fill="#000" xmlns="http://www.w3.org/2000/svg">
    <path fill-rule="evenodd" clip-rule="evenodd" d="M28.5587 23.9067C29.4467 23.0187 30.0387 20.736 27.628 18.3254C25.2254 15.9227 22.3707 17.1907 22.3707 17.1907C21.7134 17.1894 21.1827 16.656 21.1827 16C21.1827 15.344 21.7134 14.8107 22.3707 14.8094C22.3707 14.8094 25.2254 16.0774 27.628 13.6747C30.0387 11.264 29.4467 8.98136 28.5587 8.09336C27.2654 6.80002 26.2467 6.71069 25.768 6.23336C25.2894 5.75602 25.2 4.73469 23.9067 3.44136C23.0187 2.55336 20.736 1.96136 18.3254 4.37202C15.9227 6.77469 17.1907 9.62936 17.1907 9.62936C17.1894 10.2854 16.6574 10.8174 16 10.8174C15.344 10.8174 14.8107 10.2867 14.8094 9.62936C14.8094 9.62936 16.0774 6.77469 13.6747 4.37202C11.264 1.96136 8.98136 2.55336 8.09336 3.44136C6.80002 4.73469 6.71069 5.75469 6.23202 6.23202C5.75335 6.70936 4.73469 6.80002 3.44136 8.09336C2.55336 8.98136 1.96136 11.264 4.37202 13.6747C6.77469 16.0774 9.62936 14.8094 9.62936 14.8094C10.2854 14.8107 10.8174 15.3427 10.8174 16C10.8174 16.656 10.2867 17.1894 9.62936 17.1907C9.62936 17.1907 6.77469 15.9227 4.37202 18.3254C1.96136 20.736 2.55336 23.0187 3.44136 23.9067C4.73469 25.2 5.75335 25.2894 6.23202 25.7667C6.71069 26.244 6.80002 27.2654 8.09336 28.5587C8.98136 29.4467 11.264 30.0387 13.6747 27.628C16.0774 25.2254 14.8094 22.3707 14.8094 22.3707C14.8107 21.7134 15.344 21.1827 16 21.1827C16.656 21.1827 17.1894 21.7134 17.1907 22.3707C17.1907 22.3707 15.9227 25.2254 18.3254 27.628C20.736 30.0387 23.0187 29.4467 23.9067 28.5587C25.2 27.2654 25.2894 26.2467 25.7667 25.768C26.244 25.2894 27.2654 25.2 28.5587 23.9067Z"/>
    <path fill-rule="evenodd" clip-rule="evenodd" d="M12.776 14.012C12.5853 13.6574 12.648 13.2187 12.9333 12.9334C13.2186 12.648 13.6573 12.584 14.012 12.776L15.9026 13.8C15.932 13.816 15.9666 13.824 16 13.8254C16.0346 13.8254 16.068 13.8174 16.0973 13.8L17.988 12.776C18.3426 12.5854 18.7813 12.648 19.0666 12.9334C19.352 13.2187 19.416 13.6574 19.224 14.012L18.2 15.9027C18.184 15.932 18.176 15.9667 18.176 16C18.176 16.0347 18.184 16.068 18.2013 16.0974L19.2253 17.988C19.4173 18.3427 19.3533 18.7814 19.068 19.0667C18.7826 19.352 18.344 19.416 17.9906 19.224L16.1 18.2C16.0706 18.184 16.036 18.176 16.0026 18.176C15.9693 18.176 15.9346 18.184 15.9053 18.2L14.0146 19.224C13.6573 19.4147 13.2186 19.352 12.9333 19.0667C12.648 18.7814 12.584 18.3427 12.776 17.988L13.8 16.0974C13.816 16.068 13.824 16.0334 13.8253 16C13.8253 15.9654 13.8173 15.932 13.8013 15.9027L12.776 14.012Z" fill="#ff8a00"/>
</svg>
