<svg width="24" height="24" viewBox="0 0 24 24" fill="#FF8A00" xmlns="http://www.w3.org/2000/svg">
<path d="M21.892 17H21V9.5C21 6.467 18.533 4 15.5 4C12.467 4 10 6.467 10 9.5V14.5C10 15.327 9.32701 16 8.50001 16C7.67301 16 7.00001 15.327 7.00001 14.5V8H7.89201C8.43201 8 8.70301 7.349 8.32301 6.965L5.62401 4.24C5.28001 3.893 4.72001 3.893 4.37701 4.24L1.67701 6.965C1.29701 7.349 1.56901 8 2.10801 8H3.00001V14.5C3.00001 17.533 5.46701 20 8.50001 20C11.533 20 14 17.533 14 14.5V9.5C14 8.673 14.673 8 15.5 8C16.327 8 17 8.673 17 9.5V17H16.108C15.568 17 15.297 17.651 15.677 18.035L18.376 20.76C18.72 21.107 19.28 21.107 19.623 20.76L22.322 18.035C22.703 17.651 22.431 17 21.892 17Z"/>
<path d="M21.892 17H21V9.5C21 6.467 18.533 4 15.5 4C15.5 4 17 6 17 9.5V17H16.108C15.568 17 15.297 17.651 15.677 18.035L18.376 20.76C18.72 21.107 19.28 21.107 19.623 20.76L22.322 18.035C22.703 17.651 22.431 17 21.892 17Z"/>
</svg>
