<svg width="65" height="42" viewBox="0 0 65 42" fill="none" xmlns="http://www.w3.org/2000/svg">
    <path d="M46 31.25h14c1.66 0 3-1.68 3-3.75V15c0-2.07-1.34-3.75-3-3.75H46c-1.66 0-3 1.68-3 3.75v12.5c0 2.07 1.34 3.75 3 3.75Z" fill="#FFE4B0"/>
    <path d="m54.1 16.1.69 1.38c.22.45.64.75 1.13.82l1.54.23a1.5 1.5 0 0 1 .83 2.57l-1.1 1.08c-.36.35-.52.85-.44 1.34l.26 1.52a1.5 1.5 0 0 1-2.19 1.6l-1.37-.73a1.5 1.5 0 0 0-1.4 0l-1.37.72a1.5 1.5 0 0 1-2.2-1.59l.27-1.52c.08-.5-.08-1-.43-1.34L47.2 21.1c-.9-.87-.4-2.4.83-2.57l1.54-.23c.49-.07.91-.38 1.13-.82l.69-1.39a1.5 1.5 0 0 1 2.7 0ZM29.98 30.68l1.28.72c.4.23.89.25 1.3.05l1.27-.63c1.03-.51 2.23.41 2.03 1.56l-.24 1.43c-.08.46.07.93.4 1.27l1.03 1.05c.83.85.37 2.27-.78 2.4l-1.42.15c-.46.05-.85.33-1.06.74l-.64 1.28c-.51 1.03-2 .98-2.5-.1L30 39.29c-.2-.43-.6-.73-1.06-.81l-1.42-.27c-1.15-.2-1.6-1.65-.77-2.44l1.03-.98c.33-.31.48-.78.4-1.24l-.24-1.44c-.2-1.17 1-2 2.03-1.42ZM41.33 4.68l.93 1.28c.3.42.77.65 1.26.64l1.54-.05c1.24-.04 2 1.42 1.29 2.46l-.88 1.3a1.6 1.6 0 0 0-.18 1.42l.53 1.5c.44 1.22-.65 2.4-1.84 2l-1.47-.48a1.45 1.45 0 0 0-1.37.25l-1.2.97c-.98.79-2.42.06-2.44-1.22l-.02-1.6c-.01-.5-.26-.98-.67-1.27l-1.29-.9c-1.03-.73-.83-2.36.35-2.76l1.45-.5c.47-.16.83-.54.96-1.03l.41-1.53a1.47 1.47 0 0 1 2.64-.48ZM16.19 4.95l.23 2.79c.08.89.57 1.67 1.33 2.1l2.37 1.32c1.92 1.07 1.75 3.96-.27 4.9l-2.51 1.15a2.8 2.8 0 0 0-1.57 2l-.54 2.76c-.45 2.22-3.17 3.02-4.6 1.35l-1.8-2.07a2.55 2.55 0 0 0-2.3-.86l-2.7.38c-2.18.3-3.7-2.09-2.57-4.06l1.41-2.43c.45-.78.5-1.73.14-2.54L1.7 9.22c-.9-2.04.87-4.32 3.01-3.86l2.66.57c.85.18 1.74-.08 2.38-.7l2.02-1.94a2.6 2.6 0 0 1 4.43 1.66Z" fill="#FF8A00"/>
</svg>
