<svg width="24" height="24" viewBox="0 0 24 24" fill="none" xmlns="http://www.w3.org/2000/svg">
    <path d="M18 21H6C4.343 21 3 19.657 3 18V8.765C3 7.675 3.591 6.672 4.543 6.143L10.543 2.81C11.449 2.307 12.551 2.307 13.457 2.81L19.457 6.143C20.409 6.672 21 7.676 21 8.765V18C21 19.657 19.657 21 18 21Z" fill="white"/>
    <path d="M14.84 14.499C14.84 11.406 11.426 11.829 11.426 10.217C11.426 9.268 12.173 9.168 12.43 9.168C12.685 9.168 12.91 9.228 13.101 9.315C13.55 9.518 14.082 9.33 14.366 8.927C14.73 8.412 14.542 7.687 13.967 7.427C13.651 7.285 13.258 7.17 12.781 7.125V6.677C12.781 6.264 12.446 5.929 12.033 5.929C11.62 5.929 11.285 6.264 11.285 6.677V7.284C10.032 7.702 9.218 8.848 9.218 10.315C9.218 13.561 12.59 12.974 12.59 14.661C12.59 14.986 12.436 15.693 11.6 15.693C11.228 15.693 10.907 15.588 10.646 15.452C10.203 15.22 9.652 15.391 9.37 15.804L9.34 15.848C9.013 16.326 9.145 16.994 9.649 17.28C10.072 17.52 10.589 17.706 11.213 17.772V18.298C11.213 18.711 11.548 19.046 11.961 19.046C12.374 19.046 12.709 18.711 12.709 18.298V17.638C14.093 17.214 14.84 15.95 14.84 14.499Z" fill="#FF8A00"/>
</svg>
