<svg width="32" height="32" viewBox="0 0 32 32" fill="white" xmlns="http://www.w3.org/2000/svg">
    <path opacity="0.35" d="M30.5937 12.6058L19.3942 1.40633C17.5191 -0.468776 14.4809 -0.468776 12.6058 1.40633L1.40633 12.6058C-0.468777 14.4809 -0.468777 17.5191 1.40633 19.3942L12.6058 30.5937C14.4809 32.4688 17.5191 32.4688 19.3942 30.5937L30.5937 19.3942C32.4688 17.5207 32.4688 14.4809 30.5937 12.6058Z"/>
    <path d="M20.4144 8.00013C20.1006 8.00473 19.8015 8.13372 19.5827 8.35876C19.364 8.5838 19.2435 8.88648 19.2478 9.20029V9.94606C18.0722 8.75306 16.5356 8.01631 14.8079 8.01631C10.9273 8.01631 8 11.7197 8 16.0082C8 20.2966 10.9273 24 14.8079 24C16.7747 24 18.4949 23.0466 19.7149 21.55C19.8017 21.7707 19.8958 21.9703 19.9959 22.1454C20.2041 22.5098 20.4318 22.776 20.6306 22.9582C20.8295 23.1405 21.0862 23.2831 21.0862 23.2831C21.3604 23.4264 21.6798 23.4566 21.976 23.3673C22.2722 23.278 22.5217 23.0764 22.6712 22.8055C22.8206 22.5346 22.8581 22.216 22.7755 21.9178C22.693 21.6196 22.4971 21.3656 22.2297 21.21C22.206 21.1882 22.1386 21.1229 22.0516 20.9707C21.8761 20.6636 21.6157 19.9942 21.6157 18.6721V16.0082V9.20029C21.6179 9.04199 21.5883 8.88485 21.5287 8.73819C21.4691 8.59152 21.3806 8.45831 21.2686 8.34641C21.1566 8.23452 21.0233 8.14622 20.8766 8.08674C20.7299 8.02726 20.5727 7.99781 20.4144 8.00013ZM14.8079 10.3843C17.1393 10.3843 19.2478 12.7769 19.2478 16.0082C19.2478 19.2395 17.1393 21.632 14.8079 21.632C12.4765 21.632 10.368 19.2395 10.368 16.0082C10.368 12.7769 12.4765 10.3843 14.8079 10.3843Z"/>
</svg>
