<svg width="16" height="16" viewBox="0 0 16 16" xmlns="http://www.w3.org/2000/svg">
    <path class="icon-notify-bg" d="M2.4 16h11.2c1.33 0 2.4-1.34 2.4-3V3c0-1.66-1.07-3-2.4-3H2.4C1.07 0 0 1.34 0 3v10c0 1.66 1.07 3 2.4 3Z" fill="#F2F2F2"/>
    <path class="icon-notify-bell" d="M6 12a2 2 0 1 0 4 0H6ZM11.73 6.5v-.72A3.78 3.78 0 0 0 8.11 2a3.69 3.69 0 0 0-3.84 3.63v.86c0 .79-.27 1.55-.75 2.18l-.61.8c-.16.2-.24.44-.24.7 0 .64.53 1.16 1.2 1.16h8.26c.67 0 1.2-.52 1.2-1.16 0-.26-.08-.5-.24-.7l-.61-.8a3.56 3.56 0 0 1-.75-2.18Z" fill="#CBCBCB"/>
</svg>
