<svg width="24" height="24" viewBox="0 0 24 24" fill="#000" xmlns="http://www.w3.org/2000/svg">
    <rect width="24" height="24"  rx="12"/>
<!--    <path d="M12 22C17.5228 22 22 17.5228 22 12C22 6.47715 17.5228 2 12 2C6.47715 2 2 6.47715 2 12C2 17.5228 6.47715 22 12 22Z"/>-->
    <path d="M12 11C11.447 11 11 10.552 11 10V6C11 5.448 11.447 5 12 5C12.553 5 13 5.448 13 6V10C13 10.552 12.553 11 12 11Z" fill="#FF8A00"/>
    <path d="M12 19C8.141 19 5 15.86 5 12C5 10.013 5.85 8.112 7.331 6.785C7.74 6.417 8.372 6.451 8.743 6.862C9.111 7.274 9.076 7.906 8.665 8.274C7.607 9.223 7 10.581 7 12C7 14.757 9.243 17 12 17C14.757 17 17 14.757 17 12C17 10.584 16.396 9.229 15.343 8.282C14.933 7.912 14.899 7.28 15.269 6.869C15.638 6.459 16.271 6.426 16.681 6.794C18.154 8.121 19 10.018 19 12C19 15.86 15.859 19 12 19Z" fill="#FF8A00"/>
</svg>
