<svg width="24" height="24" viewBox="0 0 24 24" fill="none" xmlns="http://www.w3.org/2000/svg">
    <path d="M3.6 24h16.8c1.99 0 3.6-2.01 3.6-4.5v-15C24 2.01 22.39 0 20.4 0H3.6C1.61 0 0 2.01 0 4.5v15C0 21.99 1.61 24 3.6 24Z" fill="#FFE4B0"/>
    <path d="m13.58 5.98.8 1.62c.25.52.75.88 1.32.96l1.8.26c1.44.21 2.01 1.99.97 3l-1.3 1.27c-.41.4-.6.98-.5 1.55l.3 1.79a1.76 1.76 0 0 1-2.55 1.85l-1.6-.84a1.76 1.76 0 0 0-1.64 0l-1.6.84c-1.29.68-2.8-.42-2.55-1.85l.3-1.79c.1-.57-.09-1.15-.5-1.55l-1.3-1.26a1.76 1.76 0 0 1 .98-3l1.79-.27a1.76 1.76 0 0 0 1.32-.96l.8-1.62a1.76 1.76 0 0 1 3.16 0Z" fill="#FF8A00"/>
</svg>
