<svg width="67" height="53" viewBox="0 0 67 53" fill="none" xmlns="http://www.w3.org/2000/svg">
<path d="M59.3398 14.3699C59.8124 13.491 59.4739 12.3971 58.5839 11.9266C57.6938 11.4561 56.5891 11.7873 56.1166 12.6662L52.4495 19.4867C51.9769 20.3656 52.3154 21.4595 53.2054 21.93C54.0955 22.4005 55.2001 22.0693 55.6727 21.1904L59.3398 14.3699Z" fill="black"/>
<path d="M49.9979 29.3794C49.2797 32.9704 43.5669 37.757 37.2714 33.5654C30.976 29.3738 21.9168 17.0124 20.432 11.9546C18.9471 6.89692 22.3441 -1.46618 37.7667 8.80242C53.1893 19.071 50.716 25.7885 49.9979 29.3794Z" fill="#707BA3"/>
<rect width="44.6041" height="18.4926" rx="9.24632" transform="matrix(0.851291 -0.524693 0.533318 0.845915 17.9595 37.3568)" fill="#FF8A00"/>
<path d="M22.8907 45.1784C20.1673 40.8587 21.4836 35.1847 25.8308 32.5053L27.4522 31.5059L37.3147 47.1491L35.6932 48.1485C31.346 50.8279 25.6141 49.4982 22.8907 45.1784Z" fill="black"/>
<path d="M56.3003 35.4474L46.8075 41.2983L36.9451 25.6551L46.4378 19.8042L56.3003 35.4474Z" fill="black"/>
<path d="M65.345 18.8032C66.1107 18.1577 66.201 17.0179 65.5466 16.2574C64.8922 15.497 63.7409 15.4038 62.9751 16.0493L57.0328 21.0586C56.2671 21.7041 56.1768 22.8439 56.8312 23.6043C57.4856 24.3648 58.6369 24.458 59.4027 23.8124L65.345 18.8032Z" fill="black"/>
<path d="M35.2998 18.1471C40.5509 20.1559 48.7136 26.5163 44.329 29.696C39.9444 32.8757 24.6885 34.8907 17.903 33.9946C11.1176 33.0985 -1.5337 27.0847 9.20778 19.2951C19.9493 11.5055 30.0487 16.1383 35.2998 18.1471Z" fill="#97A2C7"/>
</svg>
