<svg width="122" height="24" viewBox="0 0 122 24" fill="none" xmlns="http://www.w3.org/2000/svg">
<path d="M0.596806 0.342247C0.255774 0.342247 0 0.59893 0 0.941177V23.0588C0 23.4438 0.255774 23.6578 0.596806 23.6578H4.34816C4.73182 23.6578 4.94497 23.4438 4.94497 23.0588V13.9037H15.517V23.0588C15.517 23.4011 15.7727 23.6578 16.1138 23.6578H19.8651C20.2488 23.6578 20.4619 23.4011 20.4619 23.0588V0.941177C20.4619 0.55615 20.2488 0.342247 19.8651 0.342247H16.1138C15.7727 0.342247 15.517 0.59893 15.517 0.941177V9.19786H4.94497V0.941177C4.94497 0.55615 4.73182 0.342247 4.34816 0.342247H0.596806Z" fill="black"/>
<path d="M36.9427 4.6631C41.163 4.6631 44.147 7.70053 44.147 12.0214C44.147 16.2567 41.163 19.3369 36.9427 19.3369C32.6798 19.3369 29.6958 16.2567 29.6958 12.0214C29.6958 7.70053 32.6798 4.6631 36.9427 4.6631ZM24.7082 12.0214C24.7082 18.8663 30.2073 24 36.9427 24C43.6355 24 49.1346 18.8663 49.1346 12.0214C49.1346 5.17647 43.6355 0 36.9427 0C30.2073 0 24.7082 5.17647 24.7082 12.0214Z" fill="black"/>
<path d="M74.001 23.6578C74.3421 23.6578 74.5978 23.4438 74.5978 23.0588V0.941177C74.5978 0.55615 74.3421 0.342247 74.001 0.342247H70.3776C69.9939 0.342247 69.7807 0.55615 69.7807 0.941177V9.1123L70.0791 16.3422L69.866 16.385L64.4947 8.77005L58.1004 0.64171C57.9299 0.470587 57.5888 0.342247 57.2904 0.342247H54.008C53.6243 0.342247 53.4112 0.55615 53.4112 0.941177V23.0588C53.4112 23.4438 53.6243 23.6578 54.008 23.6578H57.6315C58.0151 23.6578 58.2283 23.4438 58.2283 23.0588V14.8449L57.9299 7.65776L58.143 7.61497L64.0258 15.9572L69.866 23.3583C69.9939 23.5294 70.207 23.6578 70.5054 23.6578H74.001Z" fill="black"/>
<path d="M80.3181 0.342247C80.0197 0.342247 79.7213 0.59893 79.7213 0.941177V23.0588C79.7213 23.4438 79.9345 23.6578 80.3181 23.6578H97.9239C98.2649 23.6578 98.5207 23.4011 98.5207 23.0588V19.5936C98.5207 19.2513 98.3076 18.9947 97.9239 18.9947H84.6663V13.9465H96.0056C96.3893 13.9465 96.6024 13.6898 96.6024 13.3476V9.92513C96.6024 9.58289 96.3893 9.3262 96.0056 9.3262H84.6663V4.96257H97.5829C97.9239 4.96257 98.1797 4.70588 98.1797 4.36364V0.941177C98.1797 0.59893 97.9239 0.342247 97.5829 0.342247H80.3181Z" fill="black"/>
<path d="M103.797 0.342247C103.499 0.342247 103.201 0.59893 103.201 0.941177V23.0588C103.201 23.4438 103.414 23.6578 103.797 23.6578H121.403C121.744 23.6578 122 23.4011 122 23.0588V19.5936C122 19.2513 121.787 18.9947 121.403 18.9947H108.146V13.9465H119.485C119.869 13.9465 120.082 13.6898 120.082 13.3476V9.92513C120.082 9.58289 119.869 9.3262 119.485 9.3262H108.146V4.96257H121.062C121.403 4.96257 121.659 4.70588 121.659 4.36364V0.941177C121.659 0.59893 121.403 0.342247 121.062 0.342247H103.797Z" fill="black"/>
</svg>
