<svg xmlns="http://www.w3.org/2000/svg" width="40" height="40" viewBox="126.44 2.28 589 589" fill="#fff"><!--fill="#2daae1"-->
<circle cx="420.94" cy="296.78" r="294.5"/>
<path d="M609.77 179.63a154.68 154.68 0 0 1-44.5 12.2 77.7 77.7 0 0 0 34.07-42.85 154.78 154.78 0 0 1-49.2 18.8 77.36 77.36 0 0 0-56.56-24.46 77.47 77.47 0 0 0-77.46 77.48c0 6.06.68 11.98 2 17.66-64.4-3.24-121.48-34.08-159.69-80.95a77.1 77.1 0 0 0-10.49 38.95 77.43 77.43 0 0 0 34.46 64.48 77.12 77.12 0 0 1-35.1-9.68v.97a77.5 77.5 0 0 0 62.15 75.97 78.63 78.63 0 0 1-35 1.35 77.57 77.57 0 0 0 72.37 53.8 155.42 155.42 0 0 1-96.21 33.17c-6.25 0-12.43-.37-18.5-1.1 34.3 21.99 75.01 34.82 118.76 34.82 142.5 0 220.43-118.05 220.43-220.43 0-3.36-.07-6.7-.23-10.02a157.85 157.85 0 0 0 38.7-40.16z" fill="#1da1f2"/>
</svg>

