<svg xmlns="http://www.w3.org/2000/svg" width="193" height="180" fill="white">
    <path fill="#AB56FF" d="M83.583 3.376a25.2 25.2 0 0 1 25.199 0l34.815 20.098a25.197 25.197 0 0 1 12.599 21.82v40.197c0 9.002-4.803 17.32-12.599 21.821l-34.815 20.099a25.205 25.205 0 0 1-25.199 0L48.77 107.312a25.196 25.196 0 0 1-12.6-21.82V45.294c0-9.002 4.803-17.32 12.6-21.821L83.583 3.376Z"/>
    <path fill="white" d="M77.499 31.322c-3.703-.028-7.23 1.6-10.364 4.84-4.157 4.342-7.547 11.494-9.593 20.242-1.855 8.173-2.303 16.601-1.088 23.05 1.663 9.259 5.117 14.367 9.978 14.686 3.262.256 11.566-7.586 16.502-8.161 4.613-.538 7.331 4.556 13.112 4.71 5.78.153 8.5-5.265 13.111-4.71 4.871.586 13.111 8.225 16.117 8.225h.447c4.861-.319 8.316-5.427 9.979-14.686 1.152-6.513.767-14.878-1.088-23.051-2.046-8.748-5.436-15.963-9.657-20.305-3.582-3.704-7.675-5.3-11.96-4.726-2.239.32-5.053 1.852-7.995 3.512-3.134 1.788-6.716 3.768-8.954 3.768-2.239 0-5.82-1.98-8.955-3.768-2.942-1.66-5.756-3.193-7.994-3.512a12.886 12.886 0 0 0-1.598-.114Z"/>
    <path d="M0 165.945v-17.344h6.286l2.6 8.432c.101.286.21.656.328 1.111.135.454.261.917.379 1.388.135.472.244.884.328 1.237h.202c.068-.303.152-.664.253-1.085.117-.438.235-.892.353-1.363.135-.472.26-.909.379-1.313l2.6-8.407h6.16v17.344h-4.115v-8.357c0-.656.008-1.312.025-1.969.017-.673.034-1.279.05-1.817.017-.539.026-.917.026-1.136h-.202c-.05.235-.143.589-.278 1.06l-.379 1.464c-.134.505-.26.943-.378 1.313l-3.004 9.442h-3.61l-3.005-9.442a37.308 37.308 0 0 1-.378-1.212l-.354-1.414-.303-1.211h-.202c.017.387.034.866.051 1.439.017.572.025 1.161.025 1.767.017.606.025 1.178.025 1.716v8.357H0ZM23.865 165.945v-17.344h14.92v3.307h-10.78v3.585h9.492v3.257h-9.492v3.887h10.931v3.308H23.865ZM46.976 165.945V152.06h-6.059v-3.459H57.2v3.459h-6.084v13.885h-4.14ZM55.7 165.945l7.069-17.344h4.948l7.119 17.344h-4.494l-1.237-3.232h-7.902l-1.237 3.232H55.7Zm6.715-6.438h5.478l-1.54-4.039a33.754 33.754 0 0 1-.252-.656c-.101-.287-.202-.59-.303-.909a32.992 32.992 0 0 0-.303-.96 35.658 35.658 0 0 1-.252-.782h-.177c-.101.336-.227.715-.379 1.136l-.404 1.212a44.21 44.21 0 0 1-.353.984l-1.515 4.014ZM84.854 166.247c-2.928 0-5.158-.732-6.69-2.196-1.531-1.464-2.297-3.719-2.297-6.765 0-2.02.379-3.686 1.136-4.999.757-1.33 1.851-2.322 3.282-2.979 1.447-.673 3.18-1.01 5.2-1.01 1.229 0 2.373.135 3.434.404 1.077.253 2.02.648 2.827 1.187.825.522 1.456 1.178 1.894 1.969.454.791.681 1.725.681 2.802h-4.115a2.35 2.35 0 0 0-.379-1.313 2.829 2.829 0 0 0-.984-.959 4.384 4.384 0 0 0-1.464-.581 7.403 7.403 0 0 0-1.742-.202c-.892 0-1.683.11-2.373.329-.69.218-1.27.555-1.742 1.009-.454.438-.8.985-1.035 1.641-.236.657-.353 1.422-.353 2.298v.807c0 1.195.193 2.188.58 2.979a3.792 3.792 0 0 0 1.767 1.717c.791.37 1.75.555 2.878.555.993 0 1.852-.126 2.575-.378.74-.253 1.313-.623 1.717-1.111.404-.505.606-1.102.606-1.792v-.177h-5.352v-3.03h9.441v9.493h-2.575l-.378-1.919a8.348 8.348 0 0 1-1.818 1.262c-.64.32-1.355.556-2.146.707-.774.168-1.632.252-2.575.252ZM96.402 165.945l7.069-17.344h4.948l7.119 17.344h-4.494l-1.237-3.232h-7.901l-1.237 3.232h-4.267Zm6.716-6.438h5.478l-1.54-4.039a29.29 29.29 0 0 1-.253-.656c-.101-.287-.202-.59-.303-.909a32.992 32.992 0 0 0-.303-.96 33.878 33.878 0 0 1-.252-.782h-.177c-.101.336-.227.715-.378 1.136l-.404 1.212c-.135.387-.253.715-.354.984l-1.514 4.014ZM117.768 165.945v-17.344h10.755c1.262 0 2.314.244 3.155.732.842.472 1.473 1.12 1.894 1.944.42.808.631 1.734.631 2.777 0 1.111-.261 2.104-.783 2.979-.505.875-1.245 1.557-2.221 2.045l3.559 6.867h-4.62l-3.029-6.16h-5.201v6.16h-4.14Zm4.14-9.392h5.807c.707 0 1.262-.21 1.666-.631.404-.437.606-1.026.606-1.767 0-.488-.093-.9-.278-1.237a1.789 1.789 0 0 0-.783-.757c-.336-.185-.74-.278-1.211-.278h-5.807v4.67ZM137.515 165.945v-17.344h7.7c1.902 0 3.518.32 4.847.96 1.347.622 2.373 1.573 3.08 2.852.724 1.279 1.086 2.903 1.086 4.873 0 1.935-.362 3.551-1.086 4.847-.707 1.279-1.733 2.238-3.08 2.877-1.329.623-2.945.935-4.847.935h-7.7Zm4.141-3.308h3.458c.774 0 1.456-.109 2.045-.328.606-.219 1.111-.53 1.515-.934.42-.421.74-.942.959-1.565.219-.623.328-1.338.328-2.146v-.782c0-.808-.109-1.523-.328-2.146-.219-.623-.539-1.136-.959-1.54a3.883 3.883 0 0 0-1.515-.959c-.589-.219-1.271-.329-2.045-.329h-3.458v10.729ZM157.46 165.945v-17.344h14.92v3.307h-10.779v3.585h9.492v3.257h-9.492v3.887h10.931v3.308H157.46ZM175.876 165.945v-17.344h3.761l7.347 8.861c.134.118.294.295.479.53l.556.707c.185.236.328.438.429.606l.151-.025c-.017-.32-.025-.648-.025-.985V148.601h3.913v17.344h-3.736l-7.498-9.038a14.933 14.933 0 0 1-.757-.934 74.033 74.033 0 0 1-.581-.783l-.152.025v.834c.017.319.026.631.026.934v8.962h-3.913Z"/>
    <path d="M61.19 173.672c1.06 0 2.144.53 2.685 1.455.045.079.034.136-.023.181l-.71.541c-.08.079-.17.034-.214-.022-.463-.632-.97-.914-1.737-.914-1.129 0-1.873.789-1.873 1.906s.756 1.94 1.873 1.94c.767 0 1.308-.27 1.77-.947.057-.057.113-.057.18 0l.712.564c.056.056.067.124.022.18-.575.948-1.556 1.444-2.684 1.444-1.805 0-3.181-1.365-3.181-3.181s1.376-3.147 3.18-3.147ZM76.951 173.762h.993c.101 0 .158.057.158.158v2.177h2.797v-2.177c0-.101.056-.158.158-.158h.993c.101 0 .157.057.157.158v5.832c0 .101-.056.158-.157.158h-.993c-.102 0-.158-.057-.158-.158v-2.414h-2.797v2.414c0 .101-.057.158-.158.158h-.993c-.101 0-.158-.057-.158-.158v-5.832c0-.101.057-.158.158-.158ZM100.461 179.752l-.429-1.06h-3.068l-.429 1.082a.192.192 0 0 1-.191.136h-1.117c-.113 0-.147-.057-.113-.158l2.662-5.899c.023-.057.068-.091.147-.091h1.285c.08 0 .125.034.147.091l2.538 5.876c.034.091-.023.181-.124.181h-1.072a.245.245 0 0 1-.236-.158Zm-1.997-4.771-1.026 2.526h2.143l-.993-2.526h-.124ZM114.949 173.762h.992c.102 0 .158.057.158.158v5.832c0 .101-.056.158-.158.158h-.992c-.102 0-.158-.057-.158-.158v-5.832c0-.101.056-.158.158-.158ZM134.721 179.91h-.925c-.079 0-.135-.023-.169-.079l-1.545-1.952-1.557-2.199-.056.011.079 1.895v2.166c0 .101-.057.158-.158.158h-.959c-.101 0-.158-.057-.158-.158v-5.832c0-.101.057-.158.158-.158h.869c.09 0 .157.023.214.079l1.692 2.143 1.421 2.008.056-.011-.079-1.906v-2.155c0-.101.057-.158.158-.158h.959c.102 0 .158.057.158.158v5.832c0 .101-.056.158-.158.158Z"/>
</svg>
