<svg xmlns="http://www.w3.org/2000/svg" width="265" height="48" fill="#fff">
    <path fill="#AB56FF" d="M17.412 1.239a9.26 9.26 0 0 1 9.254 0l12.785 7.376a9.246 9.246 0 0 1 4.627 8.009v14.752a9.246 9.246 0 0 1-4.627 8.009L26.666 46.76a9.26 9.26 0 0 1-9.254 0L4.627 39.385A9.246 9.246 0 0 1 0 31.376V16.624a9.246 9.246 0 0 1 4.627-8.009L17.412 1.24Z"/>
    <path fill="#fff" d="M15.178 11.496c-1.36-.011-2.655.586-3.806 1.776C9.845 14.865 8.6 17.49 7.849 20.7c-.681 3-.846 6.093-.4 8.46.611 3.398 1.88 5.272 3.665 5.39 1.197.093 4.247-2.785 6.06-2.996 1.694-.197 2.692 1.672 4.815 1.729 2.122.056 3.121-1.932 4.815-1.729 1.789.215 4.815 3.019 5.919 3.019h.164c1.785-.117 3.054-1.992 3.665-5.39.422-2.39.281-5.46-.4-8.46-.752-3.21-1.996-5.859-3.547-7.452-1.315-1.36-2.818-1.946-4.392-1.735-.822.117-1.855.68-2.936 1.29-1.15.655-2.466 1.382-3.288 1.382-.822 0-2.137-.727-3.288-1.383-1.08-.61-2.114-1.171-2.937-1.289a4.72 4.72 0 0 0-.586-.041Z"/>
    <path d="M58 25.68V7.32h6.76l2.796 8.926c.109.303.226.695.353 1.176.145.481.28.97.407 1.47.145.498.263.935.353 1.31h.218c.072-.322.162-.705.27-1.15.128-.463.254-.944.381-1.443.145-.499.28-.962.407-1.39l2.797-8.898h6.624v18.358H74.94v-8.845c0-.695.009-1.39.027-2.084.018-.713.036-1.354.054-1.924.018-.57.027-.971.027-1.203h-.217c-.054.25-.154.624-.299 1.122l-.407 1.55c-.145.535-.28.998-.407 1.39l-3.23 9.994h-3.883l-3.23-9.994a39.92 39.92 0 0 1-.408-1.283l-.38-1.496-.326-1.283h-.217c.018.41.036.918.054 1.523.019.606.028 1.23.028 1.87.018.642.027 1.248.027 1.818v8.845H58ZM83.664 25.68V7.32H99.71v3.501H88.116v3.795h10.208v3.447H88.117v4.116h11.755v3.5H83.664ZM108.518 25.68V10.981h-6.516V7.32h17.511v3.66h-6.543V25.68h-4.452ZM117.9 25.68l7.601-18.36h5.321l7.656 18.36h-4.832l-1.331-3.421h-8.497l-1.33 3.42H117.9Zm7.221-6.815h5.891l-1.656-4.276c-.072-.178-.163-.41-.271-.694a29.998 29.998 0 0 1-.326-.963 34.828 34.828 0 0 0-.326-1.015 38.62 38.62 0 0 1-.271-.828h-.19c-.109.356-.245.757-.408 1.202l-.434 1.283c-.145.41-.271.757-.38 1.042l-1.629 4.249ZM149.252 26c-3.149 0-5.547-.775-7.194-2.325-1.647-1.55-2.471-3.937-2.471-7.162 0-2.138.408-3.901 1.222-5.29.814-1.408 1.991-2.46 3.529-3.154C145.895 7.356 147.759 7 149.931 7c1.321 0 2.552.143 3.692.428 1.158.267 2.172.685 3.041 1.256.886.552 1.565 1.247 2.036 2.084.488.837.733 1.826.733 2.966h-4.425c0-.517-.136-.98-.408-1.39a3.022 3.022 0 0 0-1.058-1.015 4.757 4.757 0 0 0-1.575-.615 8.046 8.046 0 0 0-1.873-.213c-.96 0-1.81.116-2.552.347-.742.232-1.367.588-1.873 1.069-.489.463-.86 1.042-1.114 1.737-.253.695-.38 1.505-.38 2.432v.855c0 1.265.209 2.316.625 3.153a4.054 4.054 0 0 0 1.9 1.817c.851.392 1.882.588 3.095.588 1.068 0 1.991-.133 2.769-.4.797-.268 1.412-.66 1.846-1.176.435-.535.652-1.167.652-1.898v-.187h-5.756v-3.207h10.154V25.68h-2.769l-.407-2.03a9.026 9.026 0 0 1-1.955 1.335 8.965 8.965 0 0 1-2.308.749c-.832.178-1.755.267-2.769.267ZM161.671 25.68l7.601-18.36h5.322l7.655 18.36h-4.832l-1.33-3.421h-8.498l-1.33 3.42h-4.588Zm7.221-6.815h5.892l-1.656-4.276c-.073-.178-.163-.41-.272-.694a29.998 29.998 0 0 1-.326-.963 32.026 32.026 0 0 0-.326-1.015 38.62 38.62 0 0 1-.271-.828h-.19c-.109.356-.244.757-.407 1.202l-.435 1.283c-.144.41-.271.757-.38 1.042l-1.629 4.249ZM184.648 25.68V7.32h11.565c1.357 0 2.488.259 3.393.776.905.498 1.584 1.184 2.037 2.057.452.855.678 1.835.678 2.94 0 1.176-.28 2.227-.841 3.153-.543.927-1.34 1.648-2.389 2.165l3.828 7.268h-4.969l-3.257-6.52H189.1v6.52h-4.452Zm4.452-9.942h6.244c.76 0 1.358-.222 1.792-.668.434-.463.651-1.086.651-1.87 0-.517-.099-.953-.298-1.31a1.912 1.912 0 0 0-.842-.801c-.362-.196-.796-.294-1.303-.294H189.1v4.943ZM205.884 25.68V7.32h8.28c2.045 0 3.783.34 5.212 1.016 1.448.66 2.552 1.666 3.313 3.02.778 1.354 1.167 3.073 1.167 5.157 0 2.05-.389 3.76-1.167 5.131-.761 1.354-1.865 2.37-3.313 3.047-1.429.659-3.167.988-5.212.988h-8.28Zm4.452-3.501h3.719c.833 0 1.566-.116 2.199-.348.652-.231 1.195-.561 1.629-.988a4.315 4.315 0 0 0 1.032-1.657c.235-.66.353-1.417.353-2.272v-.828c0-.855-.118-1.612-.353-2.272-.235-.659-.579-1.202-1.032-1.63-.434-.445-.977-.784-1.629-1.015-.633-.232-1.366-.348-2.199-.348h-3.719V22.18ZM227.333 25.68V7.32h16.044v3.501h-11.592v3.795h10.208v3.447h-10.208v4.116h11.755v3.5h-16.207ZM247.136 25.68V7.32h4.046l7.9 9.38c.144.125.316.312.516.562l.597.748c.199.25.353.463.461.641l.163-.026a19.632 19.632 0 0 1-.027-1.043V7.321H265v18.358h-4.018l-8.063-9.566a16.074 16.074 0 0 1-.814-.99c-.272-.355-.48-.632-.625-.828l-.163.027v.882c.018.338.027.668.027.989v9.486h-4.208Z"/>
    <path d="M62.434 34c1.145 0 2.315.587 2.9 1.61.048.087.036.15-.025.2l-.767.598c-.086.087-.183.038-.232-.025-.5-.699-1.047-1.01-1.876-1.01-1.217 0-2.021.873-2.021 2.108 0 1.236.816 2.146 2.022 2.146.828 0 1.412-.299 1.912-1.048.06-.062.122-.062.195 0l.767.624c.06.063.073.137.024.2C64.712 40.45 63.653 41 62.435 41 60.484 41 59 39.49 59 37.481 59 35.472 60.486 34 62.434 34ZM79.452 34.1h1.072c.11 0 .17.062.17.175v2.408h3.02v-2.408c0-.113.062-.175.171-.175h1.072c.11 0 .17.062.17.175v6.45c0 .113-.06.175-.17.175h-1.072c-.11 0-.17-.062-.17-.175v-2.67h-3.02v2.67c0 .113-.061.175-.171.175h-1.072c-.11 0-.17-.062-.17-.175v-6.45c0-.113.06-.175.17-.175ZM104.836 40.725l-.462-1.172h-3.313l-.463 1.197c-.036.1-.11.15-.207.15h-1.206c-.121 0-.158-.062-.121-.175l2.874-6.525c.024-.063.073-.1.158-.1h1.389c.085 0 .134.037.158.1l2.74 6.5c.037.1-.024.2-.134.2h-1.157c-.122 0-.207-.062-.256-.175Zm-2.155-5.278-1.109 2.795h2.314l-1.071-2.795h-.134ZM120.48 34.1h1.072c.109 0 .17.062.17.175v6.45c0 .113-.061.175-.17.175h-1.072c-.11 0-.171-.062-.171-.175v-6.45c0-.113.061-.175.171-.175ZM141.829 40.9h-.998c-.085 0-.146-.025-.183-.087l-1.668-2.159-1.681-2.433-.061.013.085 2.096v2.395c0 .113-.061.175-.17.175h-1.036c-.109 0-.17-.062-.17-.175v-6.45c0-.113.061-.175.17-.175h.938a.3.3 0 0 1 .232.087l1.827 2.37 1.534 2.222.061-.013-.085-2.108v-2.383c0-.113.061-.175.17-.175h1.035c.11 0 .171.062.171.175v6.45c0 .113-.061.175-.171.175Z"/>
</svg>
