<svg xmlns="http://www.w3.org/2000/svg" width="72" height="72">
    <path fill="#000" d="M36 72c19.882 0 36-16.118 36-36S55.882 0 36 0 0 16.118 0 36s16.118 36 36 36Z"/>
    <path fill="#42DF81" fill-rule="evenodd" d="M16.592 16.78c2.102-2.177 4.468-3.271 6.953-3.252.355.003.712.028 1.072.077 1.502.214 3.39 1.244 5.364 2.36 2.102 1.201 4.505 2.532 6.007 2.532 1.502 0 3.905-1.33 6.008-2.532 1.974-1.116 3.862-2.146 5.364-2.36 2.875-.387 5.621.687 8.024 3.175 2.832 2.918 5.107 7.768 6.48 13.647 1.244 5.492 1.502 11.114.73 15.49-1.116 6.223-3.434 9.656-6.695 9.87h-.3c-.938 0-2.636-1.11-4.513-2.338-2.158-1.412-4.553-2.979-6.3-3.19-1.511-.181-2.72.593-4.011 1.422-1.355.869-2.802 1.797-4.787 1.744-1.943-.052-3.371-.937-4.701-1.763-1.324-.821-2.552-1.583-4.096-1.402-1.697.198-3.988 1.679-6.113 3.053-2.021 1.306-3.892 2.515-4.958 2.432-3.262-.215-5.579-3.648-6.695-9.87-.815-4.334-.515-9.998.73-15.49 1.373-5.88 3.647-10.687 6.437-13.605Zm32.06 22.437a7.815 7.815 0 0 1-7.821-7.821 7.815 7.815 0 0 1 7.821-7.822 7.815 7.815 0 0 1 7.821 7.822 7.815 7.815 0 0 1-7.821 7.82Zm0-2.76c2.776 0 5.06-2.285 5.06-5.061 0-2.777-2.284-5.061-5.06-5.061s-5.06 2.284-5.06 5.06c0 2.777 2.284 5.061 5.06 5.061Zm-30.969.144a1.356 1.356 0 0 1 0-1.952l3.253-3.253-3.253-3.254a1.356 1.356 0 0 1 0-1.951 1.355 1.355 0 0 1 1.952 0l3.253 3.253 3.253-3.253a1.355 1.355 0 0 1 1.952 0 1.356 1.356 0 0 1 0 1.951l-3.253 3.254 3.253 3.253a1.356 1.356 0 0 1 0 1.952 1.356 1.356 0 0 1-1.952 0l-3.253-3.254-3.253 3.254a1.356 1.356 0 0 1-1.952 0Zm14.804 5.73c1.05 3.536 5.935 3.673 7.026 0a1.374 1.374 0 0 1 2.635.78c-1.91 6.432-10.459 6.192-12.297 0a1.375 1.375 0 0 1 2.636-.78Z"/>
</svg>
