<svg width="287" height="103" viewBox="0 0 287 103" fill="none" xmlns="http://www.w3.org/2000/svg">
<g opacity="0.2" filter="url(#filter0_d_1794_820)">
<rect x="4" width="279" height="95" rx="16" fill="#612598"/>
</g>
<path d="M23.4572 63.2727V50.5455H24.2725V63.2727H23.4572ZM26.2015 54.3636C26.1419 53.8598 25.8999 53.4688 25.4757 53.1903C25.0514 52.9119 24.5311 52.7727 23.9146 52.7727C23.4638 52.7727 23.0694 52.8456 22.7314 52.9915C22.3966 53.1373 22.1348 53.3378 21.9458 53.593C21.7602 53.8482 21.6674 54.1383 21.6674 54.4631C21.6674 54.7348 21.7321 54.9685 21.8613 55.1641C21.9939 55.3563 22.1629 55.517 22.3684 55.6463C22.5739 55.7723 22.7894 55.8767 23.0147 55.9595C23.2401 56.0391 23.4473 56.1037 23.6362 56.1534L24.6703 56.4318C24.9354 56.5014 25.2304 56.5975 25.5552 56.7202C25.8833 56.8428 26.1966 57.0102 26.4949 57.2223C26.7965 57.4311 27.045 57.6996 27.2406 58.0277C27.4361 58.3558 27.5339 58.7585 27.5339 59.2358C27.5339 59.786 27.3897 60.2831 27.1014 60.7273C26.8163 61.1714 26.3987 61.5244 25.8485 61.7862C25.3017 62.0481 24.6371 62.179 23.8549 62.179C23.1258 62.179 22.4944 62.0613 21.9608 61.826C21.4305 61.5907 21.0128 61.2625 20.7079 60.8416C20.4063 60.4207 20.2356 59.9318 20.1958 59.375H21.4686C21.5017 59.7595 21.631 60.0777 21.8564 60.3295C22.085 60.5781 22.3734 60.7637 22.7214 60.8864C23.0727 61.0057 23.4506 61.0653 23.8549 61.0653C24.3256 61.0653 24.7482 60.9891 25.1227 60.8366C25.4972 60.6809 25.7939 60.4654 26.0126 60.1903C26.2314 59.9119 26.3407 59.5871 26.3407 59.2159C26.3407 58.8778 26.2463 58.6027 26.0574 58.3906C25.8684 58.1785 25.6199 58.0062 25.3116 57.8736C25.0034 57.741 24.6703 57.625 24.3123 57.5256L23.0595 57.1676C22.264 56.9389 21.6343 56.6125 21.1703 56.1882C20.7063 55.764 20.4743 55.2088 20.4743 54.5227C20.4743 53.9527 20.6284 53.4555 20.9366 53.0312C21.2482 52.6037 21.6658 52.2723 22.1895 52.0369C22.7164 51.7983 23.3047 51.679 23.9544 51.679C24.6106 51.679 25.194 51.7966 25.7044 52.032C26.2148 52.264 26.6191 52.5821 26.9174 52.9865C27.219 53.3909 27.3781 53.8499 27.3947 54.3636H26.2015ZM32.7031 62.1392C31.9541 62.1392 31.3161 61.9354 30.7891 61.5277C30.2621 61.1167 29.8594 60.5218 29.581 59.7429C29.3026 58.9607 29.1634 58.0161 29.1634 56.9091C29.1634 55.8087 29.3026 54.8691 29.581 54.0902C29.8627 53.308 30.267 52.7114 30.794 52.3004C31.3243 51.8861 31.9607 51.679 32.7031 51.679C33.4455 51.679 34.0803 51.8861 34.6072 52.3004C35.1375 52.7114 35.5419 53.308 35.8203 54.0902C36.102 54.8691 36.2429 55.8087 36.2429 56.9091C36.2429 58.0161 36.1037 58.9607 35.8253 59.7429C35.5469 60.5218 35.1442 61.1167 34.6172 61.5277C34.0902 61.9354 33.4522 62.1392 32.7031 62.1392ZM32.7031 61.0455C33.4455 61.0455 34.0223 60.6875 34.4332 59.9716C34.8442 59.2557 35.0497 58.2348 35.0497 56.9091C35.0497 56.0275 34.9553 55.2768 34.7663 54.657C34.5807 54.0372 34.3123 53.5649 33.9609 53.2401C33.6129 52.9152 33.1937 52.7528 32.7031 52.7528C31.9673 52.7528 31.3923 53.1158 30.978 53.8416C30.5637 54.5642 30.3565 55.5866 30.3565 56.9091C30.3565 57.7907 30.4493 58.5398 30.6349 59.1562C30.8205 59.7727 31.0874 60.2417 31.4354 60.5632C31.7867 60.8847 32.2093 61.0455 32.7031 61.0455ZM38.6516 62.0795C38.4064 62.0795 38.1959 61.9917 38.0202 61.8161C37.8446 61.6404 37.7567 61.4299 37.7567 61.1847C37.7567 60.9394 37.8446 60.7289 38.0202 60.5533C38.1959 60.3776 38.4064 60.2898 38.6516 60.2898C38.8969 60.2898 39.1074 60.3776 39.283 60.5533C39.4587 60.7289 39.5465 60.9394 39.5465 61.1847C39.5465 61.3471 39.5051 61.4962 39.4222 61.6321C39.3427 61.768 39.235 61.8774 39.0991 61.9602C38.9665 62.0398 38.8174 62.0795 38.6516 62.0795ZM44.5977 62.1392C43.8486 62.1392 43.2106 61.9354 42.6836 61.5277C42.1566 61.1167 41.7539 60.5218 41.4755 59.7429C41.1971 58.9607 41.0579 58.0161 41.0579 56.9091C41.0579 55.8087 41.1971 54.8691 41.4755 54.0902C41.7572 53.308 42.1616 52.7114 42.6886 52.3004C43.2189 51.8861 43.8552 51.679 44.5977 51.679C45.3401 51.679 45.9748 51.8861 46.5018 52.3004C47.0321 52.7114 47.4364 53.308 47.7148 54.0902C47.9966 54.8691 48.1374 55.8087 48.1374 56.9091C48.1374 58.0161 47.9982 58.9607 47.7198 59.7429C47.4414 60.5218 47.0387 61.1167 46.5117 61.5277C45.9847 61.9354 45.3467 62.1392 44.5977 62.1392ZM44.5977 61.0455C45.3401 61.0455 45.9168 60.6875 46.3278 59.9716C46.7388 59.2557 46.9442 58.2348 46.9442 56.9091C46.9442 56.0275 46.8498 55.2768 46.6609 54.657C46.4753 54.0372 46.2068 53.5649 45.8555 53.2401C45.5075 52.9152 45.0882 52.7528 44.5977 52.7528C43.8619 52.7528 43.2868 53.1158 42.8725 53.8416C42.4582 54.5642 42.2511 55.5866 42.2511 56.9091C42.2511 57.7907 42.3439 58.5398 42.5295 59.1562C42.7151 59.7727 42.9819 60.2417 43.3299 60.5632C43.6812 60.8847 44.1038 61.0455 44.5977 61.0455ZM53.288 62.1392C52.6052 62.1392 52.002 62.0182 51.4783 61.7763C50.958 61.531 50.552 61.1946 50.2603 60.767C49.9686 60.3362 49.8245 59.8456 49.8278 59.2955C49.8245 58.8646 49.909 58.4669 50.0813 58.1023C50.2537 57.7344 50.489 57.4278 50.7873 57.1825C51.0889 56.9339 51.4253 56.7765 51.7965 56.7102V56.6506C51.3093 56.5246 50.9215 56.2512 50.6332 55.8303C50.3448 55.406 50.2023 54.9238 50.2056 54.3835C50.2023 53.8665 50.3332 53.4041 50.5984 52.9964C50.8635 52.5888 51.2281 52.2673 51.6921 52.032C52.1594 51.7966 52.6914 51.679 53.288 51.679C53.878 51.679 54.4049 51.7966 54.869 52.032C55.333 52.2673 55.6976 52.5888 55.9627 52.9964C56.2312 53.4041 56.3671 53.8665 56.3704 54.3835C56.3671 54.9238 56.2196 55.406 55.9279 55.8303C55.6396 56.2512 55.2567 56.5246 54.7795 56.6506V56.7102C55.1474 56.7765 55.4788 56.9339 55.7738 57.1825C56.0688 57.4278 56.3041 57.7344 56.4798 58.1023C56.6554 58.4669 56.7449 58.8646 56.7482 59.2955C56.7449 59.8456 56.5958 60.3362 56.3008 60.767C56.0091 61.1946 55.6031 61.531 55.0827 61.7763C54.5657 62.0182 53.9674 62.1392 53.288 62.1392ZM53.288 61.0455C53.7487 61.0455 54.1464 60.9709 54.4812 60.8217C54.8159 60.6726 55.0745 60.4621 55.2567 60.1903C55.439 59.9186 55.5318 59.6004 55.5352 59.2358C55.5318 58.8513 55.4324 58.5116 55.2369 58.2166C55.0413 57.9216 54.7745 57.6896 54.4364 57.5206C54.1017 57.3516 53.7189 57.267 53.288 57.267C52.8538 57.267 52.466 57.3516 52.1246 57.5206C51.7866 57.6896 51.5198 57.9216 51.3242 58.2166C51.132 58.5116 51.0375 58.8513 51.0408 59.2358C51.0375 59.6004 51.1254 59.9186 51.3043 60.1903C51.4866 60.4621 51.7468 60.6726 52.0849 60.8217C52.4229 60.9709 52.824 61.0455 53.288 61.0455ZM53.288 56.2131C53.6526 56.2131 53.9757 56.1402 54.2575 55.9943C54.5425 55.8485 54.7662 55.6446 54.9286 55.3828C55.091 55.121 55.1739 54.8144 55.1772 54.4631C55.1739 54.1184 55.0927 53.8184 54.9336 53.5632C54.7745 53.3047 54.5541 53.1058 54.2724 52.9666C53.9906 52.8241 53.6625 52.7528 53.288 52.7528C52.9068 52.7528 52.5737 52.8241 52.2887 52.9666C52.0037 53.1058 51.7833 53.3047 51.6275 53.5632C51.4717 53.8184 51.3955 54.1184 51.3988 54.4631C51.3955 54.8144 51.4734 55.121 51.6325 55.3828C51.7949 55.6446 52.0186 55.8485 52.3036 55.9943C52.5887 56.1402 52.9168 56.2131 53.288 56.2131Z" fill="white"/>
<path d="M71.4543 55.2727V42.5455H72.2696V55.2727H71.4543ZM74.1986 46.3636C74.1389 45.8598 73.897 45.4688 73.4727 45.1903C73.0485 44.9119 72.5281 44.7727 71.9117 44.7727C71.4609 44.7727 71.0665 44.8456 70.7284 44.9915C70.3937 45.1373 70.1318 45.3378 69.9429 45.593C69.7573 45.8482 69.6645 46.1383 69.6645 46.4631C69.6645 46.7348 69.7291 46.9685 69.8584 47.1641C69.991 47.3563 70.16 47.517 70.3655 47.6463C70.571 47.7723 70.7864 47.8767 71.0118 47.9595C71.2372 48.0391 71.4443 48.1037 71.6333 48.1534L72.6673 48.4318C72.9325 48.5014 73.2275 48.5975 73.5523 48.7202C73.8804 48.8428 74.1936 49.0102 74.4919 49.2223C74.7935 49.4311 75.0421 49.6996 75.2377 50.0277C75.4332 50.3558 75.531 50.7585 75.531 51.2358C75.531 51.786 75.3868 52.2831 75.0985 52.7273C74.8134 53.1714 74.3958 53.5244 73.8456 53.7862C73.2987 54.0481 72.6342 54.179 71.852 54.179C71.1228 54.179 70.4914 54.0613 69.9578 53.826C69.4275 53.5907 69.0099 53.2625 68.705 52.8416C68.4034 52.4207 68.2327 51.9318 68.1929 51.375H69.4656C69.4988 51.7595 69.628 52.0777 69.8534 52.3295C70.0821 52.5781 70.3705 52.7637 70.7185 52.8864C71.0698 53.0057 71.4477 53.0653 71.852 53.0653C72.3227 53.0653 72.7452 52.9891 73.1198 52.8366C73.4943 52.6809 73.7909 52.4654 74.0097 52.1903C74.2284 51.9119 74.3378 51.5871 74.3378 51.2159C74.3378 50.8778 74.2433 50.6027 74.0544 50.3906C73.8655 50.1785 73.6169 50.0062 73.3087 49.8736C73.0004 49.741 72.6673 49.625 72.3094 49.5256L71.0566 49.1676C70.2611 48.9389 69.6314 48.6125 69.1673 48.1882C68.7033 47.764 68.4713 47.2088 68.4713 46.5227C68.4713 45.9527 68.6254 45.4555 68.9337 45.0312C69.2452 44.6037 69.6628 44.2723 70.1865 44.0369C70.7135 43.7983 71.3018 43.679 71.9514 43.679C72.6077 43.679 73.191 43.7966 73.7014 44.032C74.2119 44.264 74.6162 44.5821 74.9145 44.9865C75.2161 45.3909 75.3752 45.8499 75.3918 46.3636H74.1986ZM80.7002 54.1392C79.9511 54.1392 79.3131 53.9354 78.7861 53.5277C78.2591 53.1167 77.8564 52.5218 77.578 51.7429C77.2996 50.9607 77.1604 50.0161 77.1604 48.9091C77.1604 47.8087 77.2996 46.8691 77.578 46.0902C77.8598 45.308 78.2641 44.7114 78.7911 44.3004C79.3214 43.8861 79.9578 43.679 80.7002 43.679C81.4426 43.679 82.0773 43.8861 82.6043 44.3004C83.1346 44.7114 83.539 45.308 83.8174 46.0902C84.0991 46.8691 84.24 47.8087 84.24 48.9091C84.24 50.0161 84.1008 50.9607 83.8224 51.7429C83.5439 52.5218 83.1412 53.1167 82.6143 53.5277C82.0873 53.9354 81.4492 54.1392 80.7002 54.1392ZM80.7002 53.0455C81.4426 53.0455 82.0193 52.6875 82.4303 51.9716C82.8413 51.2557 83.0468 50.2348 83.0468 48.9091C83.0468 48.0275 82.9523 47.2768 82.7634 46.657C82.5778 46.0372 82.3093 45.5649 81.958 45.2401C81.61 44.9152 81.1907 44.7528 80.7002 44.7528C79.9644 44.7528 79.3894 45.1158 78.9751 45.8416C78.5608 46.5642 78.3536 47.5866 78.3536 48.9091C78.3536 49.7907 78.4464 50.5398 78.632 51.1562C78.8176 51.7727 79.0844 52.2417 79.4324 52.5632C79.7838 52.8847 80.2064 53.0455 80.7002 53.0455ZM86.6487 54.0795C86.4034 54.0795 86.193 53.9917 86.0173 53.8161C85.8416 53.6404 85.7538 53.4299 85.7538 53.1847C85.7538 52.9394 85.8416 52.7289 86.0173 52.5533C86.193 52.3776 86.4034 52.2898 86.6487 52.2898C86.894 52.2898 87.1044 52.3776 87.2801 52.5533C87.4558 52.7289 87.5436 52.9394 87.5436 53.1847C87.5436 53.3471 87.5022 53.4962 87.4193 53.6321C87.3398 53.768 87.232 53.8774 87.0961 53.9602C86.9636 54.0398 86.8144 54.0795 86.6487 54.0795ZM91.9919 43.8182V54H90.759V45.1108H90.6993L88.2135 46.7614V45.5085L90.759 43.8182H91.9919ZM98.3009 54.1392C97.8833 54.1326 97.4656 54.053 97.048 53.9006C96.6304 53.7481 96.2493 53.4912 95.9046 53.13C95.5599 52.7654 95.2831 52.2732 95.0743 51.6534C94.8655 51.0303 94.7611 50.2481 94.7611 49.3068C94.7611 48.4053 94.8456 47.6065 95.0146 46.9105C95.1837 46.2112 95.4289 45.6229 95.7504 45.1456C96.0719 44.665 96.4597 44.3004 96.9138 44.0518C97.3712 43.8033 97.8866 43.679 98.46 43.679C99.03 43.679 99.5371 43.7933 99.9813 44.022C100.429 44.2474 100.793 44.5623 101.075 44.9666C101.357 45.371 101.539 45.8366 101.622 46.3636H100.409C100.296 45.9062 100.077 45.5268 99.7526 45.2251C99.4278 44.9235 98.9969 44.7727 98.46 44.7727C97.6711 44.7727 97.0497 45.1158 96.5956 45.8018C96.1449 46.4879 95.9178 47.4508 95.9145 48.6903H95.9941C96.1797 48.4086 96.4001 48.1683 96.6553 47.9695C96.9138 47.7673 97.1988 47.6115 97.5104 47.5021C97.8219 47.3928 98.1517 47.3381 98.4997 47.3381C99.0831 47.3381 99.6167 47.4839 100.101 47.7756C100.584 48.0639 100.972 48.4633 101.264 48.9737C101.556 49.4808 101.701 50.0625 101.701 50.7188C101.701 51.3485 101.561 51.9252 101.279 52.4489C100.997 52.9692 100.601 53.3835 100.091 53.6918C99.5835 53.9967 98.9869 54.1458 98.3009 54.1392ZM98.3009 53.0455C98.7185 53.0455 99.093 52.9411 99.4244 52.7322C99.7592 52.5234 100.023 52.2434 100.215 51.892C100.41 51.5407 100.508 51.1496 100.508 50.7188C100.508 50.2978 100.414 49.915 100.225 49.5703C100.039 49.2223 99.7824 48.9455 99.4543 48.7401C99.1295 48.5346 98.7583 48.4318 98.3406 48.4318C98.0258 48.4318 97.7325 48.4948 97.4607 48.6207C97.1889 48.7434 96.9503 48.9124 96.7448 49.1278C96.5426 49.3433 96.3835 49.5902 96.2675 49.8686C96.1515 50.1437 96.0935 50.4337 96.0935 50.7386C96.0935 51.143 96.1879 51.5208 96.3769 51.8722C96.5691 52.2235 96.8309 52.5069 97.1624 52.7223C97.4971 52.9377 97.8766 53.0455 98.3009 53.0455Z" fill="white"/>
<path d="M116.6 47.2727V34.5455H117.416V47.2727H116.6ZM118.763 38.7464C118.723 38.3454 118.552 38.0339 118.251 37.8118C117.949 37.5897 117.54 37.4787 117.023 37.4787C116.671 37.4787 116.375 37.5284 116.133 37.6278C115.891 37.724 115.705 37.8582 115.576 38.0305C115.45 38.2029 115.387 38.3984 115.387 38.6172C115.381 38.7995 115.419 38.9586 115.502 39.0945C115.588 39.2304 115.705 39.348 115.854 39.4474C116.004 39.5436 116.176 39.6281 116.372 39.701C116.567 39.7706 116.776 39.8303 116.998 39.88L117.913 40.0987C118.357 40.1982 118.765 40.3307 119.136 40.4964C119.507 40.6622 119.828 40.866 120.1 41.108C120.372 41.3499 120.582 41.6349 120.732 41.9631C120.884 42.2912 120.962 42.6674 120.965 43.0916C120.962 43.7147 120.803 44.255 120.488 44.7124C120.176 45.1664 119.726 45.5194 119.136 45.7713C118.549 46.0199 117.841 46.1442 117.013 46.1442C116.191 46.1442 115.475 46.0182 114.865 45.7663C114.259 45.5144 113.785 45.1416 113.443 44.6477C113.105 44.1506 112.928 43.5357 112.911 42.8033H114.994C115.018 43.1446 115.115 43.4297 115.288 43.6584C115.463 43.8838 115.697 44.0545 115.989 44.1705C116.284 44.2831 116.617 44.3395 116.988 44.3395C117.353 44.3395 117.669 44.2865 117.938 44.1804C118.209 44.0743 118.42 43.9268 118.569 43.7379C118.718 43.549 118.793 43.3319 118.793 43.0866C118.793 42.858 118.725 42.6657 118.589 42.5099C118.456 42.3542 118.261 42.2216 118.002 42.1122C117.747 42.0028 117.434 41.9034 117.063 41.8139L115.954 41.5355C115.095 41.3267 114.418 41.0002 113.921 40.5561C113.423 40.112 113.176 39.5137 113.18 38.7614C113.176 38.1449 113.341 37.6063 113.672 37.1456C114.007 36.6849 114.466 36.3253 115.049 36.0668C115.632 35.8082 116.295 35.679 117.038 35.679C117.793 35.679 118.453 35.8082 119.016 36.0668C119.583 36.3253 120.024 36.6849 120.339 37.1456C120.654 37.6063 120.816 38.1399 120.826 38.7464H118.763ZM126.346 46.2237C125.491 46.2204 124.755 46.0099 124.138 45.5923C123.525 45.1747 123.053 44.5698 122.722 43.7777C122.393 42.9856 122.231 42.0327 122.234 40.919C122.234 39.8087 122.398 38.8625 122.726 38.0803C123.058 37.2981 123.53 36.7031 124.143 36.2955C124.76 35.8845 125.494 35.679 126.346 35.679C127.198 35.679 127.93 35.8845 128.543 36.2955C129.16 36.7064 129.634 37.303 129.965 38.0852C130.297 38.8641 130.461 39.8087 130.457 40.919C130.457 42.036 130.292 42.9905 129.96 43.7827C129.632 44.5748 129.161 45.1797 128.548 45.5973C127.935 46.0149 127.201 46.2237 126.346 46.2237ZM126.346 44.4389C126.929 44.4389 127.395 44.1456 127.743 43.5589C128.091 42.9723 128.263 42.0923 128.26 40.919C128.26 40.1468 128.18 39.5038 128.021 38.9901C127.865 38.4763 127.643 38.0902 127.355 37.8317C127.07 37.5732 126.734 37.4439 126.346 37.4439C125.766 37.4439 125.302 37.7339 124.954 38.3139C124.606 38.8939 124.43 39.7623 124.427 40.919C124.427 41.7012 124.505 42.3542 124.66 42.8778C124.82 43.3982 125.043 43.7893 125.332 44.0511C125.62 44.3097 125.958 44.4389 126.346 44.4389ZM132.84 46.1293C132.512 46.1293 132.23 46.0133 131.995 45.7812C131.763 45.5459 131.647 45.2642 131.647 44.9361C131.647 44.6113 131.763 44.3329 131.995 44.1009C132.23 43.8688 132.512 43.7528 132.84 43.7528C133.158 43.7528 133.437 43.8688 133.675 44.1009C133.914 44.3329 134.033 44.6113 134.033 44.9361C134.033 45.1548 133.977 45.3554 133.864 45.5376C133.755 45.7166 133.611 45.8608 133.432 45.9702C133.253 46.0762 133.055 46.1293 132.84 46.1293ZM139.187 46.1392C138.445 46.1392 137.784 46.0116 137.204 45.7564C136.627 45.4979 136.171 45.1432 135.837 44.6925C135.505 44.2384 135.334 43.7147 135.324 43.1214H137.492C137.505 43.37 137.587 43.5888 137.736 43.7777C137.888 43.9633 138.09 44.1075 138.342 44.2102C138.594 44.313 138.878 44.3643 139.192 44.3643C139.521 44.3643 139.811 44.3063 140.062 44.1903C140.314 44.0743 140.512 43.9136 140.654 43.7081C140.797 43.5026 140.868 43.2656 140.868 42.9972C140.868 42.7254 140.792 42.4851 140.639 42.2763C140.49 42.0642 140.275 41.8984 139.993 41.7791C139.714 41.6598 139.383 41.6001 138.998 41.6001H138.049V40.0192H138.998C139.323 40.0192 139.61 39.9628 139.859 39.8501C140.11 39.7375 140.306 39.5817 140.445 39.3828C140.584 39.1806 140.654 38.9453 140.654 38.6768C140.654 38.4216 140.593 38.1979 140.47 38.0057C140.351 37.8101 140.182 37.6577 139.963 37.5483C139.748 37.4389 139.496 37.3842 139.207 37.3842C138.916 37.3842 138.649 37.4373 138.407 37.5433C138.165 37.6461 137.971 37.7936 137.825 37.9858C137.679 38.178 137.601 38.4034 137.592 38.6619H135.528C135.538 38.0753 135.706 37.5582 136.03 37.1108C136.355 36.6634 136.793 36.3137 137.343 36.0618C137.896 35.8066 138.521 35.679 139.217 35.679C139.92 35.679 140.535 35.8066 141.062 36.0618C141.589 36.317 141.998 36.6617 142.29 37.0959C142.585 37.5268 142.73 38.0107 142.727 38.5476C142.73 39.1177 142.553 39.5933 142.195 39.9744C141.841 40.3556 141.378 40.5975 140.808 40.7003V40.7798C141.557 40.8759 142.127 41.1361 142.518 41.5604C142.913 41.9813 143.108 42.5083 143.105 43.1413C143.108 43.7214 142.941 44.2367 142.603 44.6875C142.268 45.1383 141.806 45.4929 141.216 45.7514C140.626 46.0099 139.95 46.1392 139.187 46.1392ZM144.652 46V44.4489L148.277 41.093C148.585 40.7947 148.843 40.5263 149.052 40.2876C149.264 40.049 149.425 39.8153 149.535 39.5866C149.644 39.3546 149.699 39.1044 149.699 38.8359C149.699 38.5376 149.631 38.2808 149.495 38.0653C149.359 37.8466 149.173 37.6792 148.938 37.5632C148.703 37.4439 148.436 37.3842 148.138 37.3842C147.826 37.3842 147.554 37.4472 147.322 37.5732C147.09 37.6991 146.911 37.8797 146.785 38.1151C146.659 38.3504 146.596 38.6304 146.596 38.9553H144.553C144.553 38.2891 144.704 37.7107 145.005 37.2202C145.307 36.7296 145.73 36.3501 146.273 36.0817C146.817 35.8132 147.443 35.679 148.152 35.679C148.882 35.679 149.516 35.8082 150.057 36.0668C150.6 36.322 151.023 36.6766 151.324 37.1307C151.626 37.5848 151.777 38.1051 151.777 38.6918C151.777 39.0762 151.7 39.4557 151.548 39.8303C151.399 40.2048 151.132 40.6207 150.748 41.0781C150.363 41.5322 149.821 42.0774 149.122 42.7138L147.635 44.1705V44.2401H151.911V46H144.652Z" fill="#42DF81"/>
<path d="M167.286 39.2727V26.5455H168.102V39.2727H167.286ZM170.031 30.3636C169.971 29.8598 169.729 29.4688 169.305 29.1903C168.881 28.9119 168.36 28.7727 167.744 28.7727C167.293 28.7727 166.899 28.8456 166.56 28.9915C166.226 29.1373 165.964 29.3378 165.775 29.593C165.589 29.8482 165.497 30.1383 165.497 30.4631C165.497 30.7348 165.561 30.9685 165.69 31.1641C165.823 31.3563 165.992 31.517 166.198 31.6463C166.403 31.7723 166.618 31.8767 166.844 31.9595C167.069 32.0391 167.276 32.1037 167.465 32.1534L168.499 32.4318C168.765 32.5014 169.06 32.5975 169.384 32.7202C169.712 32.8428 170.026 33.0102 170.324 33.2223C170.626 33.4311 170.874 33.6996 171.07 34.0277C171.265 34.3558 171.363 34.7585 171.363 35.2358C171.363 35.786 171.219 36.2831 170.93 36.7273C170.645 37.1714 170.228 37.5244 169.678 37.7862C169.131 38.0481 168.466 38.179 167.684 38.179C166.955 38.179 166.323 38.0613 165.79 37.826C165.26 37.5907 164.842 37.2625 164.537 36.8416C164.235 36.4207 164.065 35.9318 164.025 35.375H165.298C165.331 35.7595 165.46 36.0777 165.685 36.3295C165.914 36.5781 166.203 36.7637 166.551 36.8864C166.902 37.0057 167.28 37.0653 167.684 37.0653C168.155 37.0653 168.577 36.9891 168.952 36.8366C169.326 36.6809 169.623 36.4654 169.842 36.1903C170.06 35.9119 170.17 35.5871 170.17 35.2159C170.17 34.8778 170.075 34.6027 169.886 34.3906C169.698 34.1785 169.449 34.0062 169.141 33.8736C168.832 33.741 168.499 33.625 168.141 33.5256L166.889 33.1676C166.093 32.9389 165.463 32.6125 164.999 32.1882C164.535 31.764 164.303 31.2088 164.303 30.5227C164.303 29.9527 164.457 29.4555 164.766 29.0312C165.077 28.6037 165.495 28.2723 166.019 28.0369C166.546 27.7983 167.134 27.679 167.783 27.679C168.44 27.679 169.023 27.7966 169.533 28.032C170.044 28.264 170.448 28.5821 170.747 28.9865C171.048 29.3909 171.207 29.8499 171.224 30.3636H170.031ZM176.532 38.1392C175.783 38.1392 175.145 37.9354 174.618 37.5277C174.091 37.1167 173.688 36.5218 173.41 35.7429C173.132 34.9607 172.992 34.0161 172.992 32.9091C172.992 31.8087 173.132 30.8691 173.41 30.0902C173.692 29.308 174.096 28.7114 174.623 28.3004C175.153 27.8861 175.79 27.679 176.532 27.679C177.275 27.679 177.909 27.8861 178.436 28.3004C178.967 28.7114 179.371 29.308 179.649 30.0902C179.931 30.8691 180.072 31.8087 180.072 32.9091C180.072 34.0161 179.933 34.9607 179.654 35.7429C179.376 36.5218 178.973 37.1167 178.446 37.5277C177.919 37.9354 177.281 38.1392 176.532 38.1392ZM176.532 37.0455C177.275 37.0455 177.851 36.6875 178.262 35.9716C178.673 35.2557 178.879 34.2348 178.879 32.9091C178.879 32.0275 178.784 31.2768 178.595 30.657C178.41 30.0372 178.141 29.5649 177.79 29.2401C177.442 28.9152 177.023 28.7528 176.532 28.7528C175.796 28.7528 175.221 29.1158 174.807 29.8416C174.393 30.5642 174.186 31.5866 174.186 32.9091C174.186 33.7907 174.278 34.5398 174.464 35.1562C174.65 35.7727 174.916 36.2417 175.264 36.5632C175.616 36.8847 176.038 37.0455 176.532 37.0455ZM182.481 38.0795C182.235 38.0795 182.025 37.9917 181.849 37.8161C181.674 37.6404 181.586 37.4299 181.586 37.1847C181.586 36.9394 181.674 36.7289 181.849 36.5533C182.025 36.3776 182.235 36.2898 182.481 36.2898C182.726 36.2898 182.936 36.3776 183.112 36.5533C183.288 36.7289 183.376 36.9394 183.376 37.1847C183.376 37.3471 183.334 37.4962 183.251 37.6321C183.172 37.768 183.064 37.8774 182.928 37.9602C182.796 38.0398 182.646 38.0795 182.481 38.0795ZM188.486 38.1392C188.069 38.1326 187.651 38.053 187.234 37.9006C186.816 37.7481 186.435 37.4912 186.09 37.13C185.745 36.7654 185.469 36.2732 185.26 35.6534C185.051 35.0303 184.947 34.2481 184.947 33.3068C184.947 32.4053 185.031 31.6065 185.2 30.9105C185.369 30.2112 185.614 29.6229 185.936 29.1456C186.257 28.665 186.645 28.3004 187.099 28.0518C187.557 27.8033 188.072 27.679 188.646 27.679C189.216 27.679 189.723 27.7933 190.167 28.022C190.614 28.2474 190.979 28.5623 191.261 28.9666C191.542 29.371 191.725 29.8366 191.807 30.3636H190.594C190.482 29.9062 190.263 29.5268 189.938 29.2251C189.613 28.9235 189.182 28.7727 188.646 28.7727C187.857 28.7727 187.235 29.1158 186.781 29.8018C186.33 30.4879 186.103 31.4508 186.1 32.6903H186.18C186.365 32.4086 186.586 32.1683 186.841 31.9695C187.099 31.7673 187.384 31.6115 187.696 31.5021C188.007 31.3928 188.337 31.3381 188.685 31.3381C189.269 31.3381 189.802 31.4839 190.286 31.7756C190.77 32.0639 191.158 32.4633 191.449 32.9737C191.741 33.4808 191.887 34.0625 191.887 34.7188C191.887 35.3485 191.746 35.9252 191.464 36.4489C191.183 36.9692 190.787 37.3835 190.276 37.6918C189.769 37.9967 189.172 38.1458 188.486 38.1392ZM188.486 37.0455C188.904 37.0455 189.279 36.9411 189.61 36.7322C189.945 36.5234 190.208 36.2434 190.4 35.892C190.596 35.5407 190.694 35.1496 190.694 34.7188C190.694 34.2978 190.599 33.915 190.41 33.5703C190.225 33.2223 189.968 32.9455 189.64 32.7401C189.315 32.5346 188.944 32.4318 188.526 32.4318C188.211 32.4318 187.918 32.4948 187.646 32.6207C187.374 32.7434 187.136 32.9124 186.93 33.1278C186.728 33.3433 186.569 33.5902 186.453 33.8686C186.337 34.1437 186.279 34.4337 186.279 34.7386C186.279 35.143 186.373 35.5208 186.562 35.8722C186.755 36.2235 187.016 36.5069 187.348 36.7223C187.683 36.9377 188.062 37.0455 188.486 37.0455ZM193.603 35.9119V34.8977L198.078 27.8182H198.814V29.3892H198.316L194.936 34.7386V34.8182H200.961V35.9119H193.603ZM198.396 38V35.6037V35.1314V27.8182H199.569V38H198.396Z" fill="white"/>
<path d="M38 74C38 74 195.824 46.3726 271 37" stroke="#612598" stroke-width="2"/>
<path d="M216.16 31.2727V18.5455H216.976V31.2727H216.16ZM218.905 22.3636C218.845 21.8598 218.603 21.4688 218.179 21.1903C217.755 20.9119 217.234 20.7727 216.618 20.7727C216.167 20.7727 215.773 20.8456 215.434 20.9915C215.1 21.1373 214.838 21.3378 214.649 21.593C214.463 21.8482 214.371 22.1383 214.371 22.4631C214.371 22.7348 214.435 22.9685 214.564 23.1641C214.697 23.3563 214.866 23.517 215.072 23.6463C215.277 23.7723 215.492 23.8767 215.718 23.9595C215.943 24.0391 216.15 24.1037 216.339 24.1534L217.373 24.4318C217.639 24.5014 217.934 24.5975 218.258 24.7202C218.586 24.8428 218.9 25.0102 219.198 25.2223C219.5 25.4311 219.748 25.6996 219.944 26.0277C220.139 26.3558 220.237 26.7585 220.237 27.2358C220.237 27.786 220.093 28.2831 219.805 28.7273C219.519 29.1714 219.102 29.5244 218.552 29.7862C218.005 30.0481 217.34 30.179 216.558 30.179C215.829 30.179 215.198 30.0613 214.664 29.826C214.134 29.5907 213.716 29.2625 213.411 28.8416C213.109 28.4207 212.939 27.9318 212.899 27.375H214.172C214.205 27.7595 214.334 28.0777 214.559 28.3295C214.788 28.5781 215.077 28.7637 215.425 28.8864C215.776 29.0057 216.154 29.0653 216.558 29.0653C217.029 29.0653 217.451 28.9891 217.826 28.8366C218.2 28.6809 218.497 28.4654 218.716 28.1903C218.934 27.9119 219.044 27.5871 219.044 27.2159C219.044 26.8778 218.949 26.6027 218.76 26.3906C218.572 26.1785 218.323 26.0062 218.015 25.8736C217.706 25.741 217.373 25.625 217.015 25.5256L215.763 25.1676C214.967 24.9389 214.337 24.6125 213.873 24.1882C213.409 23.764 213.177 23.2088 213.177 22.5227C213.177 21.9527 213.331 21.4555 213.64 21.0312C213.951 20.6037 214.369 20.2723 214.893 20.0369C215.42 19.7983 216.008 19.679 216.657 19.679C217.314 19.679 217.897 19.7966 218.407 20.032C218.918 20.264 219.322 20.5821 219.621 20.9865C219.922 21.3909 220.081 21.8499 220.098 22.3636H218.905ZM225.665 19.8182V30H224.432V21.1108H224.372L221.886 22.7614V21.5085L224.432 19.8182H225.665ZM228.866 30.0795C228.621 30.0795 228.411 29.9917 228.235 29.8161C228.059 29.6404 227.972 29.4299 227.972 29.1847C227.972 28.9394 228.059 28.7289 228.235 28.5533C228.411 28.3776 228.621 28.2898 228.866 28.2898C229.112 28.2898 229.322 28.3776 229.498 28.5533C229.674 28.7289 229.761 28.9394 229.761 29.1847C229.761 29.3471 229.72 29.4962 229.637 29.6321C229.558 29.768 229.45 29.8774 229.314 29.9602C229.181 30.0398 229.032 30.0795 228.866 30.0795ZM231.847 30V29.1051L235.208 25.4261C235.602 24.9953 235.927 24.6207 236.182 24.3026C236.437 23.9811 236.626 23.6795 236.749 23.3977C236.875 23.1127 236.938 22.8144 236.938 22.5028C236.938 22.1449 236.852 21.835 236.679 21.5732C236.51 21.3113 236.278 21.1091 235.983 20.9666C235.688 20.8241 235.357 20.7528 234.989 20.7528C234.598 20.7528 234.257 20.834 233.965 20.9964C233.676 21.1555 233.453 21.3793 233.294 21.6676C233.138 21.956 233.06 22.294 233.06 22.6818H231.887C231.887 22.0852 232.024 21.5616 232.299 21.1108C232.574 20.66 232.949 20.3087 233.423 20.0568C233.9 19.8049 234.435 19.679 235.029 19.679C235.625 19.679 236.154 19.8049 236.615 20.0568C237.075 20.3087 237.437 20.6484 237.699 21.076C237.96 21.5036 238.091 21.9792 238.091 22.5028C238.091 22.8774 238.023 23.2436 237.887 23.6016C237.755 23.9562 237.523 24.3523 237.191 24.7898C236.863 25.224 236.408 25.7543 235.824 26.3807L233.537 28.8267V28.9062H238.27V30H231.847ZM243.585 30.1392C242.902 30.1392 242.299 30.0182 241.775 29.7763C241.255 29.531 240.849 29.1946 240.557 28.767C240.266 28.3362 240.121 27.8456 240.125 27.2955C240.121 26.8646 240.206 26.4669 240.378 26.1023C240.551 25.7344 240.786 25.4278 241.084 25.1825C241.386 24.9339 241.722 24.7765 242.093 24.7102V24.6506C241.606 24.5246 241.218 24.2512 240.93 23.8303C240.642 23.406 240.499 22.9238 240.502 22.3835C240.499 21.8665 240.63 21.4041 240.895 20.9964C241.16 20.5888 241.525 20.2673 241.989 20.032C242.456 19.7966 242.988 19.679 243.585 19.679C244.175 19.679 244.702 19.7966 245.166 20.032C245.63 20.2673 245.994 20.5888 246.26 20.9964C246.528 21.4041 246.664 21.8665 246.667 22.3835C246.664 22.9238 246.516 23.406 246.225 23.8303C245.936 24.2512 245.554 24.5246 245.076 24.6506V24.7102C245.444 24.7765 245.776 24.9339 246.071 25.1825C246.366 25.4278 246.601 25.7344 246.777 26.1023C246.952 26.4669 247.042 26.8646 247.045 27.2955C247.042 27.8456 246.893 28.3362 246.598 28.767C246.306 29.1946 245.9 29.531 245.38 29.7763C244.863 30.0182 244.264 30.1392 243.585 30.1392ZM243.585 29.0455C244.046 29.0455 244.443 28.9709 244.778 28.8217C245.113 28.6726 245.371 28.4621 245.554 28.1903C245.736 27.9186 245.829 27.6004 245.832 27.2358C245.829 26.8513 245.729 26.5116 245.534 26.2166C245.338 25.9216 245.071 25.6896 244.733 25.5206C244.399 25.3516 244.016 25.267 243.585 25.267C243.151 25.267 242.763 25.3516 242.422 25.5206C242.083 25.6896 241.817 25.9216 241.621 26.2166C241.429 26.5116 241.334 26.8513 241.338 27.2358C241.334 27.6004 241.422 27.9186 241.601 28.1903C241.783 28.4621 242.044 28.6726 242.382 28.8217C242.72 28.9709 243.121 29.0455 243.585 29.0455ZM243.585 24.2131C243.949 24.2131 244.273 24.1402 244.554 23.9943C244.839 23.8485 245.063 23.6446 245.225 23.3828C245.388 23.121 245.471 22.8144 245.474 22.4631C245.471 22.1184 245.39 21.8184 245.23 21.5632C245.071 21.3047 244.851 21.1058 244.569 20.9666C244.288 20.8241 243.959 20.7528 243.585 20.7528C243.204 20.7528 242.871 20.8241 242.586 20.9666C242.301 21.1058 242.08 21.3047 241.924 21.5632C241.769 21.8184 241.692 22.1184 241.696 22.4631C241.692 22.8144 241.77 23.121 241.929 23.3828C242.092 23.6446 242.315 23.8485 242.6 23.9943C242.886 24.1402 243.214 24.2131 243.585 24.2131Z" fill="white"/>
<circle cx="38" cy="74" r="4" fill="#360D5C" stroke="#612598" stroke-width="2"/>
<circle cx="86" cy="66" r="4" fill="#360D5C" stroke="#612598" stroke-width="2"/>
<circle cx="134" cy="58" r="5" fill="#42DF81"/>
<circle cx="182" cy="50" r="4" fill="#360D5C" stroke="#612598" stroke-width="2"/>
<circle cx="230" cy="42" r="4" fill="#360D5C" stroke="#612598" stroke-width="2"/>
<defs>
<filter id="filter0_d_1794_820" x="0" y="0" width="287" height="103" filterUnits="userSpaceOnUse" color-interpolation-filters="sRGB">
<feFlood flood-opacity="0" result="BackgroundImageFix"/>
<feColorMatrix in="SourceAlpha" type="matrix" values="0 0 0 0 0 0 0 0 0 0 0 0 0 0 0 0 0 0 127 0" result="hardAlpha"/>
<feOffset dy="4"/>
<feGaussianBlur stdDeviation="2"/>
<feColorMatrix type="matrix" values="0 0 0 0 0 0 0 0 0 0 0 0 0 0 0 0 0 0 0.05 0"/>
<feBlend mode="normal" in2="BackgroundImageFix" result="effect1_dropShadow_1794_820"/>
<feBlend mode="normal" in="SourceGraphic" in2="effect1_dropShadow_1794_820" result="shape"/>
</filter>
</defs>
</svg>
