<svg width="287" height="95" viewBox="0 0 287 95" fill="none" xmlns="http://www.w3.org/2000/svg">
<g opacity="0.2" filter="url(#filter0_d_1794_820)">
<rect x="4" width="279" height="87" rx="16" fill="#612598"/>
</g>
<path d="M24.4543 55.2727V42.5455H25.2696V55.2727H24.4543ZM27.1986 46.3636C27.1389 45.8598 26.897 45.4688 26.4727 45.1903C26.0485 44.9119 25.5281 44.7727 24.9117 44.7727C24.4609 44.7727 24.0665 44.8456 23.7284 44.9915C23.3937 45.1373 23.1318 45.3378 22.9429 45.593C22.7573 45.8482 22.6645 46.1383 22.6645 46.4631C22.6645 46.7348 22.7291 46.9685 22.8584 47.1641C22.991 47.3563 23.16 47.517 23.3655 47.6463C23.571 47.7723 23.7864 47.8767 24.0118 47.9595C24.2372 48.0391 24.4443 48.1037 24.6333 48.1534L25.6673 48.4318C25.9325 48.5014 26.2275 48.5975 26.5523 48.7202C26.8804 48.8428 27.1936 49.0102 27.4919 49.2223C27.7935 49.4311 28.0421 49.6996 28.2377 50.0277C28.4332 50.3558 28.531 50.7585 28.531 51.2358C28.531 51.786 28.3868 52.2831 28.0985 52.7273C27.8134 53.1714 27.3958 53.5244 26.8456 53.7862C26.2987 54.0481 25.6342 54.179 24.852 54.179C24.1228 54.179 23.4914 54.0613 22.9578 53.826C22.4275 53.5907 22.0099 53.2625 21.705 52.8416C21.4034 52.4207 21.2327 51.9318 21.1929 51.375H22.4656C22.4988 51.7595 22.628 52.0777 22.8534 52.3295C23.0821 52.5781 23.3705 52.7637 23.7185 52.8864C24.0698 53.0057 24.4477 53.0653 24.852 53.0653C25.3227 53.0653 25.7452 52.9891 26.1198 52.8366C26.4943 52.6809 26.7909 52.4654 27.0097 52.1903C27.2284 51.9119 27.3378 51.5871 27.3378 51.2159C27.3378 50.8778 27.2433 50.6027 27.0544 50.3906C26.8655 50.1785 26.6169 50.0062 26.3087 49.8736C26.0004 49.741 25.6673 49.625 25.3094 49.5256L24.0566 49.1676C23.2611 48.9389 22.6314 48.6125 22.1673 48.1882C21.7033 47.764 21.4713 47.2088 21.4713 46.5227C21.4713 45.9527 21.6254 45.4555 21.9337 45.0312C22.2452 44.6037 22.6628 44.2723 23.1865 44.0369C23.7135 43.7983 24.3018 43.679 24.9514 43.679C25.6077 43.679 26.191 43.7966 26.7014 44.032C27.2119 44.264 27.6162 44.5821 27.9145 44.9865C28.2161 45.3909 28.3752 45.8499 28.3918 46.3636H27.1986ZM33.7002 54.1392C32.9511 54.1392 32.3131 53.9354 31.7861 53.5277C31.2591 53.1167 30.8564 52.5218 30.578 51.7429C30.2996 50.9607 30.1604 50.0161 30.1604 48.9091C30.1604 47.8087 30.2996 46.8691 30.578 46.0902C30.8598 45.308 31.2641 44.7114 31.7911 44.3004C32.3214 43.8861 32.9578 43.679 33.7002 43.679C34.4426 43.679 35.0773 43.8861 35.6043 44.3004C36.1346 44.7114 36.539 45.308 36.8174 46.0902C37.0991 46.8691 37.24 47.8087 37.24 48.9091C37.24 50.0161 37.1008 50.9607 36.8224 51.7429C36.5439 52.5218 36.1412 53.1167 35.6143 53.5277C35.0873 53.9354 34.4492 54.1392 33.7002 54.1392ZM33.7002 53.0455C34.4426 53.0455 35.0193 52.6875 35.4303 51.9716C35.8413 51.2557 36.0468 50.2348 36.0468 48.9091C36.0468 48.0275 35.9523 47.2768 35.7634 46.657C35.5778 46.0372 35.3093 45.5649 34.958 45.2401C34.61 44.9152 34.1907 44.7528 33.7002 44.7528C32.9644 44.7528 32.3894 45.1158 31.9751 45.8416C31.5608 46.5642 31.3536 47.5866 31.3536 48.9091C31.3536 49.7907 31.4464 50.5398 31.632 51.1562C31.8176 51.7727 32.0844 52.2417 32.4324 52.5632C32.7838 52.8847 33.2064 53.0455 33.7002 53.0455ZM39.6487 54.0795C39.4034 54.0795 39.193 53.9917 39.0173 53.8161C38.8416 53.6404 38.7538 53.4299 38.7538 53.1847C38.7538 52.9394 38.8416 52.7289 39.0173 52.5533C39.193 52.3776 39.4034 52.2898 39.6487 52.2898C39.894 52.2898 40.1044 52.3776 40.2801 52.5533C40.4558 52.7289 40.5436 52.9394 40.5436 53.1847C40.5436 53.3471 40.5022 53.4962 40.4193 53.6321C40.3398 53.768 40.232 53.8774 40.0961 53.9602C39.9636 54.0398 39.8144 54.0795 39.6487 54.0795ZM44.9919 43.8182V54H43.759V45.1108H43.6993L41.2135 46.7614V45.5085L43.759 43.8182H44.9919ZM51.3009 54.1392C50.8833 54.1326 50.4656 54.053 50.048 53.9006C49.6304 53.7481 49.2493 53.4912 48.9046 53.13C48.5599 52.7654 48.2831 52.2732 48.0743 51.6534C47.8655 51.0303 47.7611 50.2481 47.7611 49.3068C47.7611 48.4053 47.8456 47.6065 48.0146 46.9105C48.1837 46.2112 48.4289 45.6229 48.7504 45.1456C49.0719 44.665 49.4597 44.3004 49.9138 44.0518C50.3712 43.8033 50.8866 43.679 51.46 43.679C52.03 43.679 52.5371 43.7933 52.9813 44.022C53.4287 44.2474 53.7933 44.5623 54.075 44.9666C54.3567 45.371 54.539 45.8366 54.6219 46.3636H53.4088C53.2961 45.9062 53.0774 45.5268 52.7526 45.2251C52.4278 44.9235 51.9969 44.7727 51.46 44.7727C50.6711 44.7727 50.0497 45.1158 49.5956 45.8018C49.1449 46.4879 48.9178 47.4508 48.9145 48.6903H48.9941C49.1797 48.4086 49.4001 48.1683 49.6553 47.9695C49.9138 47.7673 50.1988 47.6115 50.5104 47.5021C50.8219 47.3928 51.1517 47.3381 51.4997 47.3381C52.0831 47.3381 52.6167 47.4839 53.1006 47.7756C53.5845 48.0639 53.9723 48.4633 54.2639 48.9737C54.5556 49.4808 54.7014 50.0625 54.7014 50.7188C54.7014 51.3485 54.5606 51.9252 54.2789 52.4489C53.9971 52.9692 53.6011 53.3835 53.0906 53.6918C52.5835 53.9967 51.9869 54.1458 51.3009 54.1392ZM51.3009 53.0455C51.7185 53.0455 52.093 52.9411 52.4244 52.7322C52.7592 52.5234 53.0227 52.2434 53.2149 51.892C53.4105 51.5407 53.5083 51.1496 53.5083 50.7188C53.5083 50.2978 53.4138 49.915 53.2249 49.5703C53.0393 49.2223 52.7824 48.9455 52.4543 48.7401C52.1295 48.5346 51.7583 48.4318 51.3406 48.4318C51.0258 48.4318 50.7325 48.4948 50.4607 48.6207C50.1889 48.7434 49.9503 48.9124 49.7448 49.1278C49.5426 49.3433 49.3835 49.5902 49.2675 49.8686C49.1515 50.1437 49.0935 50.4337 49.0935 50.7386C49.0935 51.143 49.1879 51.5208 49.3769 51.8722C49.5691 52.2235 49.8309 52.5069 50.1624 52.7223C50.4971 52.9377 50.8766 53.0455 51.3009 53.0455Z" fill="white"/>
<path d="M86.6002 47.2727V34.5455H87.4156V47.2727H86.6002ZM88.7629 38.7464C88.7231 38.3454 88.5524 38.0339 88.2508 37.8118C87.9492 37.5897 87.5399 37.4787 87.0228 37.4787C86.6715 37.4787 86.3749 37.5284 86.1329 37.6278C85.891 37.724 85.7053 37.8582 85.5761 38.0305C85.4501 38.2029 85.3872 38.3984 85.3872 38.6172C85.3805 38.7995 85.4186 38.9586 85.5015 39.0945C85.5877 39.2304 85.7053 39.348 85.8545 39.4474C86.0036 39.5436 86.176 39.6281 86.3715 39.701C86.5671 39.7706 86.7759 39.8303 86.998 39.88L87.9127 40.0987C88.3569 40.1982 88.7645 40.3307 89.1357 40.4964C89.507 40.6622 89.8285 40.866 90.1002 41.108C90.372 41.3499 90.5825 41.6349 90.7316 41.9631C90.8841 42.2912 90.962 42.6674 90.9653 43.0916C90.962 43.7147 90.8029 44.255 90.488 44.7124C90.1765 45.1664 89.7257 45.5194 89.1357 45.7713C88.5491 46.0199 87.8415 46.1442 87.0129 46.1442C86.1909 46.1442 85.475 46.0182 84.8651 45.7663C84.2586 45.5144 83.7847 45.1416 83.4433 44.6477C83.1052 44.1506 82.9279 43.5357 82.9113 42.8033H84.9944C85.0176 43.1446 85.1154 43.4297 85.2877 43.6584C85.4634 43.8838 85.6971 44.0545 85.9887 44.1705C86.2837 44.2831 86.6168 44.3395 86.988 44.3395C87.3526 44.3395 87.6691 44.2865 87.9376 44.1804C88.2094 44.0743 88.4198 43.9268 88.569 43.7379C88.7181 43.549 88.7927 43.3319 88.7927 43.0866C88.7927 42.858 88.7248 42.6657 88.5889 42.5099C88.4563 42.3542 88.2607 42.2216 88.0022 42.1122C87.747 42.0028 87.4338 41.9034 87.0626 41.8139L85.9539 41.5355C85.0955 41.3267 84.4177 41.0002 83.9205 40.5561C83.4234 40.112 83.1765 39.5137 83.1798 38.7614C83.1765 38.1449 83.3405 37.6063 83.672 37.1456C84.0067 36.6849 84.4658 36.3253 85.0491 36.0668C85.6324 35.8082 86.2953 35.679 87.0377 35.679C87.7934 35.679 88.453 35.8082 89.0164 36.0668C89.5832 36.3253 90.024 36.6849 90.3389 37.1456C90.6537 37.6063 90.8161 38.1399 90.8261 38.7464H88.7629ZM96.3458 46.2237C95.4907 46.2204 94.7549 46.0099 94.1384 45.5923C93.5252 45.1747 93.0529 44.5698 92.7215 43.7777C92.3934 42.9856 92.231 42.0327 92.2343 40.919C92.2343 39.8087 92.3983 38.8625 92.7265 38.0803C93.0579 37.2981 93.5302 36.7031 94.1434 36.2955C94.7599 35.8845 95.494 35.679 96.3458 35.679C97.1976 35.679 97.9301 35.8845 98.5432 36.2955C99.1597 36.7064 99.6337 37.303 99.9651 38.0852C100.297 38.8641 100.461 39.8087 100.457 40.919C100.457 42.036 100.292 42.9905 99.9601 43.7827C99.632 44.5748 99.1614 45.1797 98.5482 45.5973C97.935 46.0149 97.2009 46.2237 96.3458 46.2237ZM96.3458 44.4389C96.9291 44.4389 97.3948 44.1456 97.7428 43.5589C98.0908 42.9723 98.2632 42.0923 98.2599 40.919C98.2599 40.1468 98.1803 39.5038 98.0212 38.9901C97.8654 38.4763 97.6434 38.0902 97.355 37.8317C97.07 37.5732 96.7336 37.4439 96.3458 37.4439C95.7658 37.4439 95.3018 37.7339 94.9537 38.3139C94.6057 38.8939 94.4301 39.7623 94.4268 40.919C94.4268 41.7012 94.5046 42.3542 94.6604 42.8778C94.8195 43.3982 95.0432 43.7893 95.3316 44.0511C95.6199 44.3097 95.958 44.4389 96.3458 44.4389ZM102.84 46.1293C102.512 46.1293 102.23 46.0133 101.995 45.7812C101.763 45.5459 101.647 45.2642 101.647 44.9361C101.647 44.6113 101.763 44.3329 101.995 44.1009C102.23 43.8688 102.512 43.7528 102.84 43.7528C103.158 43.7528 103.437 43.8688 103.675 44.1009C103.914 44.3329 104.033 44.6113 104.033 44.9361C104.033 45.1548 103.977 45.3554 103.864 45.5376C103.755 45.7166 103.611 45.8608 103.432 45.9702C103.253 46.0762 103.055 46.1293 102.84 46.1293ZM109.187 46.1392C108.445 46.1392 107.784 46.0116 107.204 45.7564C106.627 45.4979 106.171 45.1432 105.837 44.6925C105.505 44.2384 105.334 43.7147 105.324 43.1214H107.492C107.505 43.37 107.587 43.5888 107.736 43.7777C107.888 43.9633 108.09 44.1075 108.342 44.2102C108.594 44.313 108.878 44.3643 109.192 44.3643C109.521 44.3643 109.811 44.3063 110.062 44.1903C110.314 44.0743 110.512 43.9136 110.654 43.7081C110.797 43.5026 110.868 43.2656 110.868 42.9972C110.868 42.7254 110.792 42.4851 110.639 42.2763C110.49 42.0642 110.275 41.8984 109.993 41.7791C109.714 41.6598 109.383 41.6001 108.998 41.6001H108.049V40.0192H108.998C109.323 40.0192 109.61 39.9628 109.859 39.8501C110.11 39.7375 110.306 39.5817 110.445 39.3828C110.584 39.1806 110.654 38.9453 110.654 38.6768C110.654 38.4216 110.593 38.1979 110.47 38.0057C110.351 37.8101 110.182 37.6577 109.963 37.5483C109.748 37.4389 109.496 37.3842 109.207 37.3842C108.916 37.3842 108.649 37.4373 108.407 37.5433C108.165 37.6461 107.971 37.7936 107.825 37.9858C107.679 38.178 107.601 38.4034 107.592 38.6619H105.528C105.538 38.0753 105.706 37.5582 106.03 37.1108C106.355 36.6634 106.793 36.3137 107.343 36.0618C107.896 35.8066 108.521 35.679 109.217 35.679C109.92 35.679 110.535 35.8066 111.062 36.0618C111.589 36.317 111.998 36.6617 112.29 37.0959C112.585 37.5268 112.73 38.0107 112.727 38.5476C112.73 39.1177 112.553 39.5933 112.195 39.9744C111.841 40.3556 111.378 40.5975 110.808 40.7003V40.7798C111.557 40.8759 112.127 41.1361 112.518 41.5604C112.913 41.9813 113.108 42.5083 113.105 43.1413C113.108 43.7214 112.941 44.2367 112.603 44.6875C112.268 45.1383 111.806 45.4929 111.216 45.7514C110.626 46.0099 109.95 46.1392 109.187 46.1392ZM114.652 46V44.4489L118.277 41.093C118.585 40.7947 118.843 40.5263 119.052 40.2876C119.264 40.049 119.425 39.8153 119.535 39.5866C119.644 39.3546 119.699 39.1044 119.699 38.8359C119.699 38.5376 119.631 38.2808 119.495 38.0653C119.359 37.8466 119.173 37.6792 118.938 37.5632C118.703 37.4439 118.436 37.3842 118.138 37.3842C117.826 37.3842 117.554 37.4472 117.322 37.5732C117.09 37.6991 116.911 37.8797 116.785 38.1151C116.659 38.3504 116.596 38.6304 116.596 38.9553H114.553C114.553 38.2891 114.704 37.7107 115.005 37.2202C115.307 36.7296 115.73 36.3501 116.273 36.0817C116.817 35.8132 117.443 35.679 118.152 35.679C118.882 35.679 119.516 35.8082 120.057 36.0668C120.6 36.322 121.023 36.6766 121.324 37.1307C121.626 37.5848 121.777 38.1051 121.777 38.6918C121.777 39.0762 121.7 39.4557 121.548 39.8303C121.399 40.2048 121.132 40.6207 120.748 41.0781C120.363 41.5322 119.821 42.0774 119.122 42.7138L117.635 44.1705V44.2401H121.911V46H114.652Z" fill="#42DF81"/>
<path d="M151.286 39.2727V26.5455H152.102V39.2727H151.286ZM154.031 30.3636C153.971 29.8598 153.729 29.4688 153.305 29.1903C152.881 28.9119 152.36 28.7727 151.744 28.7727C151.293 28.7727 150.899 28.8456 150.56 28.9915C150.226 29.1373 149.964 29.3378 149.775 29.593C149.589 29.8482 149.497 30.1383 149.497 30.4631C149.497 30.7348 149.561 30.9685 149.69 31.1641C149.823 31.3563 149.992 31.517 150.198 31.6463C150.403 31.7723 150.618 31.8767 150.844 31.9595C151.069 32.0391 151.276 32.1037 151.465 32.1534L152.499 32.4318C152.765 32.5014 153.06 32.5975 153.384 32.7202C153.712 32.8428 154.026 33.0102 154.324 33.2223C154.626 33.4311 154.874 33.6996 155.07 34.0277C155.265 34.3558 155.363 34.7585 155.363 35.2358C155.363 35.786 155.219 36.2831 154.93 36.7273C154.645 37.1714 154.228 37.5244 153.678 37.7862C153.131 38.0481 152.466 38.179 151.684 38.179C150.955 38.179 150.323 38.0613 149.79 37.826C149.26 37.5907 148.842 37.2625 148.537 36.8416C148.235 36.4207 148.065 35.9318 148.025 35.375H149.298C149.331 35.7595 149.46 36.0777 149.685 36.3295C149.914 36.5781 150.203 36.7637 150.551 36.8864C150.902 37.0057 151.28 37.0653 151.684 37.0653C152.155 37.0653 152.577 36.9891 152.952 36.8366C153.326 36.6809 153.623 36.4654 153.842 36.1903C154.06 35.9119 154.17 35.5871 154.17 35.2159C154.17 34.8778 154.075 34.6027 153.886 34.3906C153.698 34.1785 153.449 34.0062 153.141 33.8736C152.832 33.741 152.499 33.625 152.141 33.5256L150.889 33.1676C150.093 32.9389 149.463 32.6125 148.999 32.1882C148.535 31.764 148.303 31.2088 148.303 30.5227C148.303 29.9527 148.457 29.4555 148.766 29.0312C149.077 28.6037 149.495 28.2723 150.019 28.0369C150.546 27.7983 151.134 27.679 151.783 27.679C152.44 27.679 153.023 27.7966 153.533 28.032C154.044 28.264 154.448 28.5821 154.747 28.9865C155.048 29.3909 155.207 29.8499 155.224 30.3636H154.031ZM160.532 38.1392C159.783 38.1392 159.145 37.9354 158.618 37.5277C158.091 37.1167 157.688 36.5218 157.41 35.7429C157.132 34.9607 156.992 34.0161 156.992 32.9091C156.992 31.8087 157.132 30.8691 157.41 30.0902C157.692 29.308 158.096 28.7114 158.623 28.3004C159.153 27.8861 159.79 27.679 160.532 27.679C161.275 27.679 161.909 27.8861 162.436 28.3004C162.967 28.7114 163.371 29.308 163.649 30.0902C163.931 30.8691 164.072 31.8087 164.072 32.9091C164.072 34.0161 163.933 34.9607 163.654 35.7429C163.376 36.5218 162.973 37.1167 162.446 37.5277C161.919 37.9354 161.281 38.1392 160.532 38.1392ZM160.532 37.0455C161.275 37.0455 161.851 36.6875 162.262 35.9716C162.673 35.2557 162.879 34.2348 162.879 32.9091C162.879 32.0275 162.784 31.2768 162.595 30.657C162.41 30.0372 162.141 29.5649 161.79 29.2401C161.442 28.9152 161.023 28.7528 160.532 28.7528C159.796 28.7528 159.221 29.1158 158.807 29.8416C158.393 30.5642 158.186 31.5866 158.186 32.9091C158.186 33.7907 158.278 34.5398 158.464 35.1562C158.65 35.7727 158.916 36.2417 159.264 36.5632C159.616 36.8847 160.038 37.0455 160.532 37.0455ZM166.481 38.0795C166.235 38.0795 166.025 37.9917 165.849 37.8161C165.674 37.6404 165.586 37.4299 165.586 37.1847C165.586 36.9394 165.674 36.7289 165.849 36.5533C166.025 36.3776 166.235 36.2898 166.481 36.2898C166.726 36.2898 166.936 36.3776 167.112 36.5533C167.288 36.7289 167.376 36.9394 167.376 37.1847C167.376 37.3471 167.334 37.4962 167.251 37.6321C167.172 37.768 167.064 37.8774 166.928 37.9602C166.796 38.0398 166.646 38.0795 166.481 38.0795ZM172.486 38.1392C172.069 38.1326 171.651 38.053 171.234 37.9006C170.816 37.7481 170.435 37.4912 170.09 37.13C169.745 36.7654 169.469 36.2732 169.26 35.6534C169.051 35.0303 168.947 34.2481 168.947 33.3068C168.947 32.4053 169.031 31.6065 169.2 30.9105C169.369 30.2112 169.614 29.6229 169.936 29.1456C170.257 28.665 170.645 28.3004 171.099 28.0518C171.557 27.8033 172.072 27.679 172.646 27.679C173.216 27.679 173.723 27.7933 174.167 28.022C174.614 28.2474 174.979 28.5623 175.261 28.9666C175.542 29.371 175.725 29.8366 175.807 30.3636H174.594C174.482 29.9062 174.263 29.5268 173.938 29.2251C173.613 28.9235 173.182 28.7727 172.646 28.7727C171.857 28.7727 171.235 29.1158 170.781 29.8018C170.33 30.4879 170.103 31.4508 170.1 32.6903H170.18C170.365 32.4086 170.586 32.1683 170.841 31.9695C171.099 31.7673 171.384 31.6115 171.696 31.5021C172.007 31.3928 172.337 31.3381 172.685 31.3381C173.269 31.3381 173.802 31.4839 174.286 31.7756C174.77 32.0639 175.158 32.4633 175.449 32.9737C175.741 33.4808 175.887 34.0625 175.887 34.7188C175.887 35.3485 175.746 35.9252 175.464 36.4489C175.183 36.9692 174.787 37.3835 174.276 37.6918C173.769 37.9967 173.172 38.1458 172.486 38.1392ZM172.486 37.0455C172.904 37.0455 173.279 36.9411 173.61 36.7322C173.945 36.5234 174.208 36.2434 174.4 35.892C174.596 35.5407 174.694 35.1496 174.694 34.7188C174.694 34.2978 174.599 33.915 174.41 33.5703C174.225 33.2223 173.968 32.9455 173.64 32.7401C173.315 32.5346 172.944 32.4318 172.526 32.4318C172.211 32.4318 171.918 32.4948 171.646 32.6207C171.374 32.7434 171.136 32.9124 170.93 33.1278C170.728 33.3433 170.569 33.5902 170.453 33.8686C170.337 34.1437 170.279 34.4337 170.279 34.7386C170.279 35.143 170.373 35.5208 170.562 35.8722C170.755 36.2235 171.016 36.5069 171.348 36.7223C171.683 36.9377 172.062 37.0455 172.486 37.0455ZM177.603 35.9119V34.8977L182.078 27.8182H182.814V29.3892H182.316L178.936 34.7386V34.8182H184.961V35.9119H177.603ZM182.396 38V35.6037V35.1314V27.8182H183.569V38H182.396Z" fill="white"/>
<path d="M38 66C38 66 195.824 46.3726 271 37" stroke="#612598" stroke-width="2"/>
<path d="M216.16 31.2727V18.5455H216.976V31.2727H216.16ZM218.905 22.3636C218.845 21.8598 218.603 21.4688 218.179 21.1903C217.755 20.9119 217.234 20.7727 216.618 20.7727C216.167 20.7727 215.773 20.8456 215.434 20.9915C215.1 21.1373 214.838 21.3378 214.649 21.593C214.463 21.8482 214.371 22.1383 214.371 22.4631C214.371 22.7348 214.435 22.9685 214.564 23.1641C214.697 23.3563 214.866 23.517 215.072 23.6463C215.277 23.7723 215.492 23.8767 215.718 23.9595C215.943 24.0391 216.15 24.1037 216.339 24.1534L217.373 24.4318C217.639 24.5014 217.934 24.5975 218.258 24.7202C218.586 24.8428 218.9 25.0102 219.198 25.2223C219.5 25.4311 219.748 25.6996 219.944 26.0277C220.139 26.3558 220.237 26.7585 220.237 27.2358C220.237 27.786 220.093 28.2831 219.805 28.7273C219.519 29.1714 219.102 29.5244 218.552 29.7862C218.005 30.0481 217.34 30.179 216.558 30.179C215.829 30.179 215.198 30.0613 214.664 29.826C214.134 29.5907 213.716 29.2625 213.411 28.8416C213.109 28.4207 212.939 27.9318 212.899 27.375H214.172C214.205 27.7595 214.334 28.0777 214.559 28.3295C214.788 28.5781 215.077 28.7637 215.425 28.8864C215.776 29.0057 216.154 29.0653 216.558 29.0653C217.029 29.0653 217.451 28.9891 217.826 28.8366C218.2 28.6809 218.497 28.4654 218.716 28.1903C218.934 27.9119 219.044 27.5871 219.044 27.2159C219.044 26.8778 218.949 26.6027 218.76 26.3906C218.572 26.1785 218.323 26.0062 218.015 25.8736C217.706 25.741 217.373 25.625 217.015 25.5256L215.763 25.1676C214.967 24.9389 214.337 24.6125 213.873 24.1882C213.409 23.764 213.177 23.2088 213.177 22.5227C213.177 21.9527 213.331 21.4555 213.64 21.0312C213.951 20.6037 214.369 20.2723 214.893 20.0369C215.42 19.7983 216.008 19.679 216.657 19.679C217.314 19.679 217.897 19.7966 218.407 20.032C218.918 20.264 219.322 20.5821 219.621 20.9865C219.922 21.3909 220.081 21.8499 220.098 22.3636H218.905ZM225.665 19.8182V30H224.432V21.1108H224.372L221.886 22.7614V21.5085L224.432 19.8182H225.665ZM228.866 30.0795C228.621 30.0795 228.411 29.9917 228.235 29.8161C228.059 29.6404 227.972 29.4299 227.972 29.1847C227.972 28.9394 228.059 28.7289 228.235 28.5533C228.411 28.3776 228.621 28.2898 228.866 28.2898C229.112 28.2898 229.322 28.3776 229.498 28.5533C229.674 28.7289 229.761 28.9394 229.761 29.1847C229.761 29.3471 229.72 29.4962 229.637 29.6321C229.558 29.768 229.45 29.8774 229.314 29.9602C229.181 30.0398 229.032 30.0795 228.866 30.0795ZM231.847 30V29.1051L235.208 25.4261C235.602 24.9953 235.927 24.6207 236.182 24.3026C236.437 23.9811 236.626 23.6795 236.749 23.3977C236.875 23.1127 236.938 22.8144 236.938 22.5028C236.938 22.1449 236.852 21.835 236.679 21.5732C236.51 21.3113 236.278 21.1091 235.983 20.9666C235.688 20.8241 235.357 20.7528 234.989 20.7528C234.598 20.7528 234.257 20.834 233.965 20.9964C233.676 21.1555 233.453 21.3793 233.294 21.6676C233.138 21.956 233.06 22.294 233.06 22.6818H231.887C231.887 22.0852 232.024 21.5616 232.299 21.1108C232.574 20.66 232.949 20.3087 233.423 20.0568C233.9 19.8049 234.435 19.679 235.029 19.679C235.625 19.679 236.154 19.8049 236.615 20.0568C237.075 20.3087 237.437 20.6484 237.699 21.076C237.96 21.5036 238.091 21.9792 238.091 22.5028C238.091 22.8774 238.023 23.2436 237.887 23.6016C237.755 23.9562 237.523 24.3523 237.191 24.7898C236.863 25.224 236.408 25.7543 235.824 26.3807L233.537 28.8267V28.9062H238.27V30H231.847ZM243.585 30.1392C242.902 30.1392 242.299 30.0182 241.775 29.7763C241.255 29.531 240.849 29.1946 240.557 28.767C240.266 28.3362 240.121 27.8456 240.125 27.2955C240.121 26.8646 240.206 26.4669 240.378 26.1023C240.551 25.7344 240.786 25.4278 241.084 25.1825C241.386 24.9339 241.722 24.7765 242.093 24.7102V24.6506C241.606 24.5246 241.218 24.2512 240.93 23.8303C240.642 23.406 240.499 22.9238 240.502 22.3835C240.499 21.8665 240.63 21.4041 240.895 20.9964C241.16 20.5888 241.525 20.2673 241.989 20.032C242.456 19.7966 242.988 19.679 243.585 19.679C244.175 19.679 244.702 19.7966 245.166 20.032C245.63 20.2673 245.994 20.5888 246.26 20.9964C246.528 21.4041 246.664 21.8665 246.667 22.3835C246.664 22.9238 246.516 23.406 246.225 23.8303C245.936 24.2512 245.554 24.5246 245.076 24.6506V24.7102C245.444 24.7765 245.776 24.9339 246.071 25.1825C246.366 25.4278 246.601 25.7344 246.777 26.1023C246.952 26.4669 247.042 26.8646 247.045 27.2955C247.042 27.8456 246.893 28.3362 246.598 28.767C246.306 29.1946 245.9 29.531 245.38 29.7763C244.863 30.0182 244.264 30.1392 243.585 30.1392ZM243.585 29.0455C244.046 29.0455 244.443 28.9709 244.778 28.8217C245.113 28.6726 245.371 28.4621 245.554 28.1903C245.736 27.9186 245.829 27.6004 245.832 27.2358C245.829 26.8513 245.729 26.5116 245.534 26.2166C245.338 25.9216 245.071 25.6896 244.733 25.5206C244.399 25.3516 244.016 25.267 243.585 25.267C243.151 25.267 242.763 25.3516 242.422 25.5206C242.083 25.6896 241.817 25.9216 241.621 26.2166C241.429 26.5116 241.334 26.8513 241.338 27.2358C241.334 27.6004 241.422 27.9186 241.601 28.1903C241.783 28.4621 242.044 28.6726 242.382 28.8217C242.72 28.9709 243.121 29.0455 243.585 29.0455ZM243.585 24.2131C243.949 24.2131 244.273 24.1402 244.554 23.9943C244.839 23.8485 245.063 23.6446 245.225 23.3828C245.388 23.121 245.471 22.8144 245.474 22.4631C245.471 22.1184 245.39 21.8184 245.23 21.5632C245.071 21.3047 244.851 21.1058 244.569 20.9666C244.288 20.8241 243.959 20.7528 243.585 20.7528C243.204 20.7528 242.871 20.8241 242.586 20.9666C242.301 21.1058 242.08 21.3047 241.924 21.5632C241.769 21.8184 241.692 22.1184 241.696 22.4631C241.692 22.8144 241.77 23.121 241.929 23.3828C242.092 23.6446 242.315 23.8485 242.6 23.9943C242.886 24.1402 243.214 24.2131 243.585 24.2131Z" fill="white"/>
<circle cx="38" cy="66" r="4" fill="#360D5C" stroke="#612598" stroke-width="2"/>
<circle cx="102" cy="58" r="5" fill="#42DF81"/>
<circle cx="166" cy="50" r="4" fill="#360D5C" stroke="#612598" stroke-width="2"/>
<circle cx="230" cy="42" r="4" fill="#360D5C" stroke="#612598" stroke-width="2"/>
<defs>
<filter id="filter0_d_1794_820" x="0" y="0" width="287" height="95" filterUnits="userSpaceOnUse" color-interpolation-filters="sRGB">
<feFlood flood-opacity="0" result="BackgroundImageFix"/>
<feColorMatrix in="SourceAlpha" type="matrix" values="0 0 0 0 0 0 0 0 0 0 0 0 0 0 0 0 0 0 127 0" result="hardAlpha"/>
<feOffset dy="4"/>
<feGaussianBlur stdDeviation="2"/>
<feColorMatrix type="matrix" values="0 0 0 0 0 0 0 0 0 0 0 0 0 0 0 0 0 0 0.05 0"/>
<feBlend mode="normal" in2="BackgroundImageFix" result="effect1_dropShadow_1794_820"/>
<feBlend mode="normal" in="SourceGraphic" in2="effect1_dropShadow_1794_820" result="shape"/>
</filter>
</defs>
</svg>
