<svg width="287" height="103" viewBox="0 0 287 103" fill="none" xmlns="http://www.w3.org/2000/svg">
<g opacity="0.2" filter="url(#filter0_d_79_311)">
<rect x="4" width="279" height="95" rx="16" fill="#612598"/>
</g>
<path d="M23.4572 63.2727V50.5455H24.2725V63.2727H23.4572ZM26.2015 54.3636C26.1419 53.8598 25.8999 53.4688 25.4757 53.1903C25.0514 52.9119 24.5311 52.7727 23.9146 52.7727C23.4638 52.7727 23.0694 52.8456 22.7314 52.9915C22.3966 53.1373 22.1348 53.3378 21.9458 53.593C21.7602 53.8482 21.6674 54.1383 21.6674 54.4631C21.6674 54.7348 21.7321 54.9685 21.8613 55.1641C21.9939 55.3563 22.1629 55.517 22.3684 55.6463C22.5739 55.7723 22.7894 55.8767 23.0147 55.9595C23.2401 56.0391 23.4473 56.1037 23.6362 56.1534L24.6703 56.4318C24.9354 56.5014 25.2304 56.5975 25.5552 56.7202C25.8833 56.8428 26.1966 57.0102 26.4949 57.2223C26.7965 57.4311 27.045 57.6996 27.2406 58.0277C27.4361 58.3558 27.5339 58.7585 27.5339 59.2358C27.5339 59.786 27.3897 60.2831 27.1014 60.7273C26.8163 61.1714 26.3987 61.5244 25.8485 61.7862C25.3017 62.0481 24.6371 62.179 23.8549 62.179C23.1258 62.179 22.4944 62.0613 21.9608 61.826C21.4305 61.5907 21.0128 61.2625 20.7079 60.8416C20.4063 60.4207 20.2356 59.9318 20.1958 59.375H21.4686C21.5017 59.7595 21.631 60.0777 21.8564 60.3295C22.085 60.5781 22.3734 60.7637 22.7214 60.8864C23.0727 61.0057 23.4506 61.0653 23.8549 61.0653C24.3256 61.0653 24.7482 60.9891 25.1227 60.8366C25.4972 60.6809 25.7939 60.4654 26.0126 60.1903C26.2314 59.9119 26.3407 59.5871 26.3407 59.2159C26.3407 58.8778 26.2463 58.6027 26.0574 58.3906C25.8684 58.1785 25.6199 58.0062 25.3116 57.8736C25.0034 57.741 24.6703 57.625 24.3123 57.5256L23.0595 57.1676C22.264 56.9389 21.6343 56.6125 21.1703 56.1882C20.7063 55.764 20.4743 55.2088 20.4743 54.5227C20.4743 53.9527 20.6284 53.4555 20.9366 53.0312C21.2482 52.6037 21.6658 52.2723 22.1895 52.0369C22.7164 51.7983 23.3047 51.679 23.9544 51.679C24.6106 51.679 25.194 51.7966 25.7044 52.032C26.2148 52.264 26.6191 52.5821 26.9174 52.9865C27.219 53.3909 27.3781 53.8499 27.3947 54.3636H26.2015ZM32.7031 62.1392C31.9541 62.1392 31.3161 61.9354 30.7891 61.5277C30.2621 61.1167 29.8594 60.5218 29.581 59.7429C29.3026 58.9607 29.1634 58.0161 29.1634 56.9091C29.1634 55.8087 29.3026 54.8691 29.581 54.0902C29.8627 53.308 30.267 52.7114 30.794 52.3004C31.3243 51.8861 31.9607 51.679 32.7031 51.679C33.4455 51.679 34.0803 51.8861 34.6072 52.3004C35.1375 52.7114 35.5419 53.308 35.8203 54.0902C36.102 54.8691 36.2429 55.8087 36.2429 56.9091C36.2429 58.0161 36.1037 58.9607 35.8253 59.7429C35.5469 60.5218 35.1442 61.1167 34.6172 61.5277C34.0902 61.9354 33.4522 62.1392 32.7031 62.1392ZM32.7031 61.0455C33.4455 61.0455 34.0223 60.6875 34.4332 59.9716C34.8442 59.2557 35.0497 58.2348 35.0497 56.9091C35.0497 56.0275 34.9553 55.2768 34.7663 54.657C34.5807 54.0372 34.3123 53.5649 33.9609 53.2401C33.6129 52.9152 33.1937 52.7528 32.7031 52.7528C31.9673 52.7528 31.3923 53.1158 30.978 53.8416C30.5637 54.5642 30.3565 55.5866 30.3565 56.9091C30.3565 57.7907 30.4493 58.5398 30.6349 59.1562C30.8205 59.7727 31.0874 60.2417 31.4354 60.5632C31.7867 60.8847 32.2093 61.0455 32.7031 61.0455ZM38.6516 62.0795C38.4064 62.0795 38.1959 61.9917 38.0202 61.8161C37.8446 61.6404 37.7567 61.4299 37.7567 61.1847C37.7567 60.9394 37.8446 60.7289 38.0202 60.5533C38.1959 60.3776 38.4064 60.2898 38.6516 60.2898C38.8969 60.2898 39.1074 60.3776 39.283 60.5533C39.4587 60.7289 39.5465 60.9394 39.5465 61.1847C39.5465 61.3471 39.5051 61.4962 39.4222 61.6321C39.3427 61.768 39.235 61.8774 39.0991 61.9602C38.9665 62.0398 38.8174 62.0795 38.6516 62.0795ZM44.5977 62.1392C43.8486 62.1392 43.2106 61.9354 42.6836 61.5277C42.1566 61.1167 41.7539 60.5218 41.4755 59.7429C41.1971 58.9607 41.0579 58.0161 41.0579 56.9091C41.0579 55.8087 41.1971 54.8691 41.4755 54.0902C41.7572 53.308 42.1616 52.7114 42.6886 52.3004C43.2189 51.8861 43.8552 51.679 44.5977 51.679C45.3401 51.679 45.9748 51.8861 46.5018 52.3004C47.0321 52.7114 47.4364 53.308 47.7148 54.0902C47.9966 54.8691 48.1374 55.8087 48.1374 56.9091C48.1374 58.0161 47.9982 58.9607 47.7198 59.7429C47.4414 60.5218 47.0387 61.1167 46.5117 61.5277C45.9847 61.9354 45.3467 62.1392 44.5977 62.1392ZM44.5977 61.0455C45.3401 61.0455 45.9168 60.6875 46.3278 59.9716C46.7388 59.2557 46.9442 58.2348 46.9442 56.9091C46.9442 56.0275 46.8498 55.2768 46.6609 54.657C46.4753 54.0372 46.2068 53.5649 45.8555 53.2401C45.5075 52.9152 45.0882 52.7528 44.5977 52.7528C43.8619 52.7528 43.2868 53.1158 42.8725 53.8416C42.4582 54.5642 42.2511 55.5866 42.2511 56.9091C42.2511 57.7907 42.3439 58.5398 42.5295 59.1562C42.7151 59.7727 42.9819 60.2417 43.3299 60.5632C43.6812 60.8847 44.1038 61.0455 44.5977 61.0455ZM53.288 62.1392C52.6052 62.1392 52.002 62.0182 51.4783 61.7763C50.958 61.531 50.552 61.1946 50.2603 60.767C49.9686 60.3362 49.8245 59.8456 49.8278 59.2955C49.8245 58.8646 49.909 58.4669 50.0813 58.1023C50.2537 57.7344 50.489 57.4278 50.7873 57.1825C51.0889 56.9339 51.4253 56.7765 51.7965 56.7102V56.6506C51.3093 56.5246 50.9215 56.2512 50.6332 55.8303C50.3448 55.406 50.2023 54.9238 50.2056 54.3835C50.2023 53.8665 50.3332 53.4041 50.5984 52.9964C50.8635 52.5888 51.2281 52.2673 51.6921 52.032C52.1594 51.7966 52.6914 51.679 53.288 51.679C53.878 51.679 54.4049 51.7966 54.869 52.032C55.333 52.2673 55.6976 52.5888 55.9627 52.9964C56.2312 53.4041 56.3671 53.8665 56.3704 54.3835C56.3671 54.9238 56.2196 55.406 55.9279 55.8303C55.6396 56.2512 55.2567 56.5246 54.7795 56.6506V56.7102C55.1474 56.7765 55.4788 56.9339 55.7738 57.1825C56.0688 57.4278 56.3041 57.7344 56.4798 58.1023C56.6554 58.4669 56.7449 58.8646 56.7482 59.2955C56.7449 59.8456 56.5958 60.3362 56.3008 60.767C56.0091 61.1946 55.6031 61.531 55.0827 61.7763C54.5657 62.0182 53.9674 62.1392 53.288 62.1392ZM53.288 61.0455C53.7487 61.0455 54.1464 60.9709 54.4812 60.8217C54.8159 60.6726 55.0745 60.4621 55.2567 60.1903C55.439 59.9186 55.5318 59.6004 55.5352 59.2358C55.5318 58.8513 55.4324 58.5116 55.2369 58.2166C55.0413 57.9216 54.7745 57.6896 54.4364 57.5206C54.1017 57.3516 53.7189 57.267 53.288 57.267C52.8538 57.267 52.466 57.3516 52.1246 57.5206C51.7866 57.6896 51.5198 57.9216 51.3242 58.2166C51.132 58.5116 51.0375 58.8513 51.0408 59.2358C51.0375 59.6004 51.1254 59.9186 51.3043 60.1903C51.4866 60.4621 51.7468 60.6726 52.0849 60.8217C52.4229 60.9709 52.824 61.0455 53.288 61.0455ZM53.288 56.2131C53.6526 56.2131 53.9757 56.1402 54.2575 55.9943C54.5425 55.8485 54.7662 55.6446 54.9286 55.3828C55.091 55.121 55.1739 54.8144 55.1772 54.4631C55.1739 54.1184 55.0927 53.8184 54.9336 53.5632C54.7745 53.3047 54.5541 53.1058 54.2724 52.9666C53.9906 52.8241 53.6625 52.7528 53.288 52.7528C52.9068 52.7528 52.5737 52.8241 52.2887 52.9666C52.0037 53.1058 51.7833 53.3047 51.6275 53.5632C51.4717 53.8184 51.3955 54.1184 51.3988 54.4631C51.3955 54.8144 51.4734 55.121 51.6325 55.3828C51.7949 55.6446 52.0186 55.8485 52.3036 55.9943C52.5887 56.1402 52.9168 56.2131 53.288 56.2131Z" fill="white"/>
<path d="M71.4543 55.2727V42.5455H72.2696V55.2727H71.4543ZM74.1986 46.3636C74.1389 45.8598 73.897 45.4688 73.4727 45.1903C73.0485 44.9119 72.5281 44.7727 71.9117 44.7727C71.4609 44.7727 71.0665 44.8456 70.7284 44.9915C70.3937 45.1373 70.1318 45.3378 69.9429 45.593C69.7573 45.8482 69.6645 46.1383 69.6645 46.4631C69.6645 46.7348 69.7291 46.9685 69.8584 47.1641C69.991 47.3563 70.16 47.517 70.3655 47.6463C70.571 47.7723 70.7864 47.8767 71.0118 47.9595C71.2372 48.0391 71.4443 48.1037 71.6333 48.1534L72.6673 48.4318C72.9325 48.5014 73.2275 48.5975 73.5523 48.7202C73.8804 48.8428 74.1936 49.0102 74.4919 49.2223C74.7935 49.4311 75.0421 49.6996 75.2377 50.0277C75.4332 50.3558 75.531 50.7585 75.531 51.2358C75.531 51.786 75.3868 52.2831 75.0985 52.7273C74.8134 53.1714 74.3958 53.5244 73.8456 53.7862C73.2987 54.0481 72.6342 54.179 71.852 54.179C71.1228 54.179 70.4914 54.0613 69.9578 53.826C69.4275 53.5907 69.0099 53.2625 68.705 52.8416C68.4034 52.4207 68.2327 51.9318 68.1929 51.375H69.4656C69.4988 51.7595 69.628 52.0777 69.8534 52.3295C70.0821 52.5781 70.3705 52.7637 70.7185 52.8864C71.0698 53.0057 71.4477 53.0653 71.852 53.0653C72.3227 53.0653 72.7452 52.9891 73.1198 52.8366C73.4943 52.6809 73.7909 52.4654 74.0097 52.1903C74.2284 51.9119 74.3378 51.5871 74.3378 51.2159C74.3378 50.8778 74.2433 50.6027 74.0544 50.3906C73.8655 50.1785 73.6169 50.0062 73.3087 49.8736C73.0004 49.741 72.6673 49.625 72.3094 49.5256L71.0566 49.1676C70.2611 48.9389 69.6314 48.6125 69.1673 48.1882C68.7033 47.764 68.4713 47.2088 68.4713 46.5227C68.4713 45.9527 68.6254 45.4555 68.9337 45.0312C69.2452 44.6037 69.6628 44.2723 70.1865 44.0369C70.7135 43.7983 71.3018 43.679 71.9514 43.679C72.6077 43.679 73.191 43.7966 73.7014 44.032C74.2119 44.264 74.6162 44.5821 74.9145 44.9865C75.2161 45.3909 75.3752 45.8499 75.3918 46.3636H74.1986ZM80.7002 54.1392C79.9511 54.1392 79.3131 53.9354 78.7861 53.5277C78.2591 53.1167 77.8564 52.5218 77.578 51.7429C77.2996 50.9607 77.1604 50.0161 77.1604 48.9091C77.1604 47.8087 77.2996 46.8691 77.578 46.0902C77.8598 45.308 78.2641 44.7114 78.7911 44.3004C79.3214 43.8861 79.9578 43.679 80.7002 43.679C81.4426 43.679 82.0773 43.8861 82.6043 44.3004C83.1346 44.7114 83.539 45.308 83.8174 46.0902C84.0991 46.8691 84.24 47.8087 84.24 48.9091C84.24 50.0161 84.1008 50.9607 83.8224 51.7429C83.5439 52.5218 83.1412 53.1167 82.6143 53.5277C82.0873 53.9354 81.4492 54.1392 80.7002 54.1392ZM80.7002 53.0455C81.4426 53.0455 82.0193 52.6875 82.4303 51.9716C82.8413 51.2557 83.0468 50.2348 83.0468 48.9091C83.0468 48.0275 82.9523 47.2768 82.7634 46.657C82.5778 46.0372 82.3093 45.5649 81.958 45.2401C81.61 44.9152 81.1907 44.7528 80.7002 44.7528C79.9644 44.7528 79.3894 45.1158 78.9751 45.8416C78.5608 46.5642 78.3536 47.5866 78.3536 48.9091C78.3536 49.7907 78.4464 50.5398 78.632 51.1562C78.8176 51.7727 79.0844 52.2417 79.4324 52.5632C79.7838 52.8847 80.2064 53.0455 80.7002 53.0455ZM86.6487 54.0795C86.4034 54.0795 86.193 53.9917 86.0173 53.8161C85.8416 53.6404 85.7538 53.4299 85.7538 53.1847C85.7538 52.9394 85.8416 52.7289 86.0173 52.5533C86.193 52.3776 86.4034 52.2898 86.6487 52.2898C86.894 52.2898 87.1044 52.3776 87.2801 52.5533C87.4558 52.7289 87.5436 52.9394 87.5436 53.1847C87.5436 53.3471 87.5022 53.4962 87.4193 53.6321C87.3398 53.768 87.232 53.8774 87.0961 53.9602C86.9636 54.0398 86.8144 54.0795 86.6487 54.0795ZM91.9919 43.8182V54H90.759V45.1108H90.6993L88.2135 46.7614V45.5085L90.759 43.8182H91.9919ZM98.3009 54.1392C97.8833 54.1326 97.4656 54.053 97.048 53.9006C96.6304 53.7481 96.2493 53.4912 95.9046 53.13C95.5599 52.7654 95.2831 52.2732 95.0743 51.6534C94.8655 51.0303 94.7611 50.2481 94.7611 49.3068C94.7611 48.4053 94.8456 47.6065 95.0146 46.9105C95.1837 46.2112 95.4289 45.6229 95.7504 45.1456C96.0719 44.665 96.4597 44.3004 96.9138 44.0518C97.3712 43.8033 97.8866 43.679 98.46 43.679C99.03 43.679 99.5371 43.7933 99.9813 44.022C100.429 44.2474 100.793 44.5623 101.075 44.9666C101.357 45.371 101.539 45.8366 101.622 46.3636H100.409C100.296 45.9062 100.077 45.5268 99.7526 45.2251C99.4278 44.9235 98.9969 44.7727 98.46 44.7727C97.6711 44.7727 97.0497 45.1158 96.5956 45.8018C96.1449 46.4879 95.9178 47.4508 95.9145 48.6903H95.9941C96.1797 48.4086 96.4001 48.1683 96.6553 47.9695C96.9138 47.7673 97.1988 47.6115 97.5104 47.5021C97.8219 47.3928 98.1517 47.3381 98.4997 47.3381C99.0831 47.3381 99.6167 47.4839 100.101 47.7756C100.584 48.0639 100.972 48.4633 101.264 48.9737C101.556 49.4808 101.701 50.0625 101.701 50.7188C101.701 51.3485 101.561 51.9252 101.279 52.4489C100.997 52.9692 100.601 53.3835 100.091 53.6918C99.5835 53.9967 98.9869 54.1458 98.3009 54.1392ZM98.3009 53.0455C98.7185 53.0455 99.093 52.9411 99.4244 52.7322C99.7592 52.5234 100.023 52.2434 100.215 51.892C100.41 51.5407 100.508 51.1496 100.508 50.7188C100.508 50.2978 100.414 49.915 100.225 49.5703C100.039 49.2223 99.7824 48.9455 99.4543 48.7401C99.1295 48.5346 98.7583 48.4318 98.3406 48.4318C98.0258 48.4318 97.7325 48.4948 97.4607 48.6207C97.1889 48.7434 96.9503 48.9124 96.7448 49.1278C96.5426 49.3433 96.3835 49.5902 96.2675 49.8686C96.1515 50.1437 96.0935 50.4337 96.0935 50.7386C96.0935 51.143 96.1879 51.5208 96.3769 51.8722C96.5691 52.2235 96.8309 52.5069 97.1624 52.7223C97.4971 52.9377 97.8766 53.0455 98.3009 53.0455Z" fill="white"/>
<path d="M117.464 47.2727V34.5455H118.279V47.2727H117.464ZM120.208 38.3636C120.149 37.8598 119.907 37.4688 119.483 37.1903C119.058 36.9119 118.538 36.7727 117.921 36.7727C117.471 36.7727 117.076 36.8456 116.738 36.9915C116.403 37.1373 116.142 37.3378 115.953 37.593C115.767 37.8482 115.674 38.1383 115.674 38.4631C115.674 38.7348 115.739 38.9685 115.868 39.1641C116.001 39.3563 116.17 39.517 116.375 39.6463C116.581 39.7723 116.796 39.8767 117.022 39.9595C117.247 40.0391 117.454 40.1037 117.643 40.1534L118.677 40.4318C118.942 40.5014 119.237 40.5975 119.562 40.7202C119.89 40.8428 120.203 41.0102 120.502 41.2223C120.803 41.4311 121.052 41.6996 121.247 42.0277C121.443 42.3558 121.541 42.7585 121.541 43.2358C121.541 43.786 121.397 44.2831 121.108 44.7273C120.823 45.1714 120.406 45.5244 119.855 45.7862C119.309 46.0481 118.644 46.179 117.862 46.179C117.133 46.179 116.501 46.0613 115.968 45.826C115.437 45.5907 115.02 45.2625 114.715 44.8416C114.413 44.4207 114.242 43.9318 114.203 43.375H115.475C115.509 43.7595 115.638 44.0777 115.863 44.3295C116.092 44.5781 116.38 44.7637 116.728 44.8864C117.08 45.0057 117.457 45.0653 117.862 45.0653C118.332 45.0653 118.755 44.9891 119.13 44.8366C119.504 44.6809 119.801 44.4654 120.019 44.1903C120.238 43.9119 120.348 43.5871 120.348 43.2159C120.348 42.8778 120.253 42.6027 120.064 42.3906C119.875 42.1785 119.627 42.0062 119.318 41.8736C119.01 41.741 118.677 41.625 118.319 41.5256L117.066 41.1676C116.271 40.9389 115.641 40.6125 115.177 40.1882C114.713 39.764 114.481 39.2088 114.481 38.5227C114.481 37.9527 114.635 37.4555 114.943 37.0312C115.255 36.6037 115.673 36.2723 116.196 36.0369C116.723 35.7983 117.312 35.679 117.961 35.679C118.617 35.679 119.201 35.7966 119.711 36.032C120.222 36.264 120.626 36.5821 120.924 36.9865C121.226 37.3909 121.385 37.8499 121.402 38.3636H120.208ZM126.71 46.1392C125.961 46.1392 125.323 45.9354 124.796 45.5277C124.269 45.1167 123.866 44.5218 123.588 43.7429C123.309 42.9607 123.17 42.0161 123.17 40.9091C123.17 39.8087 123.309 38.8691 123.588 38.0902C123.87 37.308 124.274 36.7114 124.801 36.3004C125.331 35.8861 125.968 35.679 126.71 35.679C127.452 35.679 128.087 35.8861 128.614 36.3004C129.144 36.7114 129.549 37.308 129.827 38.0902C130.109 38.8691 130.25 39.8087 130.25 40.9091C130.25 42.0161 130.111 42.9607 129.832 43.7429C129.554 44.5218 129.151 45.1167 128.624 45.5277C128.097 45.9354 127.459 46.1392 126.71 46.1392ZM126.71 45.0455C127.452 45.0455 128.029 44.6875 128.44 43.9716C128.851 43.2557 129.057 42.2348 129.057 40.9091C129.057 40.0275 128.962 39.2768 128.773 38.657C128.588 38.0372 128.319 37.5649 127.968 37.2401C127.62 36.9152 127.2 36.7528 126.71 36.7528C125.974 36.7528 125.399 37.1158 124.985 37.8416C124.571 38.5642 124.363 39.5866 124.363 40.9091C124.363 41.7907 124.456 42.5398 124.642 43.1562C124.827 43.7727 125.094 44.2417 125.442 44.5632C125.794 44.8847 126.216 45.0455 126.71 45.0455ZM132.658 46.0795C132.413 46.0795 132.203 45.9917 132.027 45.8161C131.851 45.6404 131.764 45.4299 131.764 45.1847C131.764 44.9394 131.851 44.7289 132.027 44.5533C132.203 44.3776 132.413 44.2898 132.658 44.2898C132.904 44.2898 133.114 44.3776 133.29 44.5533C133.466 44.7289 133.553 44.9394 133.553 45.1847C133.553 45.3471 133.512 45.4962 133.429 45.6321C133.35 45.768 133.242 45.8774 133.106 45.9602C132.973 46.0398 132.824 46.0795 132.658 46.0795ZM138.696 46.1392C138.04 46.1392 137.455 46.0265 136.941 45.8011C136.431 45.5758 136.025 45.2625 135.723 44.8615C135.425 44.4571 135.263 43.9882 135.236 43.4545H136.489C136.516 43.7827 136.628 44.0661 136.827 44.3047C137.026 44.54 137.286 44.7223 137.608 44.8516C137.929 44.9808 138.285 45.0455 138.677 45.0455C139.114 45.0455 139.502 44.9692 139.84 44.8168C140.178 44.6643 140.443 44.4522 140.635 44.1804C140.828 43.9086 140.924 43.5938 140.924 43.2358C140.924 42.8613 140.831 42.5315 140.645 42.2464C140.46 41.9581 140.188 41.7327 139.83 41.5703C139.472 41.4079 139.035 41.3267 138.517 41.3267H137.702V40.233H138.517C138.922 40.233 139.276 40.16 139.581 40.0142C139.89 39.8684 140.13 39.6629 140.302 39.3977C140.478 39.1326 140.566 38.821 140.566 38.4631C140.566 38.1184 140.49 37.8184 140.337 37.5632C140.185 37.308 139.969 37.1091 139.691 36.9666C139.416 36.8241 139.091 36.7528 138.716 36.7528C138.365 36.7528 138.034 36.8175 137.722 36.9467C137.414 37.0727 137.162 37.2566 136.966 37.4986C136.771 37.7372 136.665 38.0256 136.648 38.3636H135.455C135.475 37.83 135.636 37.3627 135.937 36.9616C136.239 36.5573 136.633 36.2424 137.12 36.017C137.611 35.7917 138.15 35.679 138.736 35.679C139.366 35.679 139.906 35.8066 140.357 36.0618C140.808 36.3137 141.154 36.6468 141.396 37.0611C141.638 37.4754 141.759 37.9228 141.759 38.4034C141.759 38.9768 141.608 39.4657 141.307 39.87C141.008 40.2744 140.602 40.5545 140.089 40.7102V40.7898C140.732 40.8958 141.234 41.1693 141.595 41.6101C141.956 42.0476 142.137 42.5895 142.137 43.2358C142.137 43.7893 141.986 44.2865 141.684 44.7273C141.386 45.1648 140.978 45.5095 140.461 45.7614C139.944 46.0133 139.356 46.1392 138.696 46.1392ZM144.17 46V45.1051L147.531 41.4261C147.925 40.9953 148.25 40.6207 148.505 40.3026C148.761 39.9811 148.95 39.6795 149.072 39.3977C149.198 39.1127 149.261 38.8144 149.261 38.5028C149.261 38.1449 149.175 37.835 149.003 37.5732C148.834 37.3113 148.602 37.1091 148.307 36.9666C148.012 36.8241 147.68 36.7528 147.312 36.7528C146.921 36.7528 146.58 36.834 146.288 36.9964C146 37.1555 145.776 37.3793 145.617 37.6676C145.461 37.956 145.383 38.294 145.383 38.6818H144.21C144.21 38.0852 144.348 37.5616 144.623 37.1108C144.898 36.66 145.272 36.3087 145.746 36.0568C146.223 35.8049 146.759 35.679 147.352 35.679C147.949 35.679 148.477 35.8049 148.938 36.0568C149.399 36.3087 149.76 36.6484 150.022 37.076C150.284 37.5036 150.415 37.9792 150.415 38.5028C150.415 38.8774 150.347 39.2436 150.211 39.6016C150.078 39.9562 149.846 40.3523 149.515 40.7898C149.187 41.224 148.731 41.7543 148.147 42.3807L145.861 44.8267V44.9062H150.593V46H144.17Z" fill="white"/>
<path d="M166.299 39.2727V26.5455H167.115V39.2727H166.299ZM168.462 30.7464C168.422 30.3454 168.252 30.0339 167.95 29.8118C167.648 29.5897 167.239 29.4787 166.722 29.4787C166.371 29.4787 166.074 29.5284 165.832 29.6278C165.59 29.724 165.405 29.8582 165.275 30.0305C165.149 30.2029 165.086 30.3984 165.086 30.6172C165.08 30.7995 165.118 30.9586 165.201 31.0945C165.287 31.2304 165.405 31.348 165.554 31.4474C165.703 31.5436 165.875 31.6281 166.071 31.701C166.266 31.7706 166.475 31.8303 166.697 31.88L167.612 32.0987C168.056 32.1982 168.464 32.3307 168.835 32.4964C169.206 32.6622 169.528 32.866 169.799 33.108C170.071 33.3499 170.282 33.6349 170.431 33.9631C170.583 34.2912 170.661 34.6674 170.665 35.0916C170.661 35.7147 170.502 36.255 170.187 36.7124C169.876 37.1664 169.425 37.5194 168.835 37.7713C168.248 38.0199 167.541 38.1442 166.712 38.1442C165.89 38.1442 165.174 38.0182 164.564 37.7663C163.958 37.5144 163.484 37.1416 163.142 36.6477C162.804 36.1506 162.627 35.5357 162.611 34.8033H164.694C164.717 35.1446 164.815 35.4297 164.987 35.6584C165.163 35.8838 165.396 36.0545 165.688 36.1705C165.983 36.2831 166.316 36.3395 166.687 36.3395C167.052 36.3395 167.368 36.2865 167.637 36.1804C167.909 36.0743 168.119 35.9268 168.268 35.7379C168.417 35.549 168.492 35.3319 168.492 35.0866C168.492 34.858 168.424 34.6657 168.288 34.5099C168.156 34.3542 167.96 34.2216 167.701 34.1122C167.446 34.0028 167.133 33.9034 166.762 33.8139L165.653 33.5355C164.795 33.3267 164.117 33.0002 163.62 32.5561C163.123 32.112 162.876 31.5137 162.879 30.7614C162.876 30.1449 163.04 29.6063 163.371 29.1456C163.706 28.6849 164.165 28.3253 164.748 28.0668C165.332 27.8082 165.995 27.679 166.737 27.679C167.493 27.679 168.152 27.8082 168.716 28.0668C169.282 28.3253 169.723 28.6849 170.038 29.1456C170.353 29.6063 170.515 30.1399 170.525 30.7464H168.462ZM176.045 38.2237C175.19 38.2204 174.454 38.0099 173.838 37.5923C173.224 37.1747 172.752 36.5698 172.421 35.7777C172.093 34.9856 171.93 34.0327 171.934 32.919C171.934 31.8087 172.098 30.8625 172.426 30.0803C172.757 29.2981 173.229 28.7031 173.843 28.2955C174.459 27.8845 175.193 27.679 176.045 27.679C176.897 27.679 177.629 27.8845 178.242 28.2955C178.859 28.7064 179.333 29.303 179.664 30.0852C179.996 30.8641 180.16 31.8087 180.157 32.919C180.157 34.036 179.991 34.9905 179.659 35.7827C179.331 36.5748 178.861 37.1797 178.247 37.5973C177.634 38.0149 176.9 38.2237 176.045 38.2237ZM176.045 36.4389C176.628 36.4389 177.094 36.1456 177.442 35.5589C177.79 34.9723 177.962 34.0923 177.959 32.919C177.959 32.1468 177.88 31.5038 177.72 30.9901C177.565 30.4763 177.343 30.0902 177.054 29.8317C176.769 29.5732 176.433 29.4439 176.045 29.4439C175.465 29.4439 175.001 29.7339 174.653 30.3139C174.305 30.8939 174.129 31.7623 174.126 32.919C174.126 33.7012 174.204 34.3542 174.36 34.8778C174.519 35.3982 174.742 35.7893 175.031 36.0511C175.319 36.3097 175.657 36.4389 176.045 36.4389ZM182.539 38.1293C182.211 38.1293 181.929 38.0133 181.694 37.7812C181.462 37.5459 181.346 37.2642 181.346 36.9361C181.346 36.6113 181.462 36.3329 181.694 36.1009C181.929 35.8688 182.211 35.7528 182.539 35.7528C182.857 35.7528 183.136 35.8688 183.374 36.1009C183.613 36.3329 183.732 36.6113 183.732 36.9361C183.732 37.1548 183.676 37.3554 183.563 37.5376C183.454 37.7166 183.31 37.8608 183.131 37.9702C182.952 38.0762 182.755 38.1293 182.539 38.1293ZM188.949 38.1392C188.425 38.1359 187.92 38.0481 187.432 37.8757C186.949 37.7034 186.514 37.4233 186.13 37.0355C185.745 36.6477 185.44 36.134 185.215 35.4943C184.993 34.8546 184.882 34.0691 184.882 33.1378C184.885 32.2827 184.983 31.5187 185.175 30.8459C185.371 30.1697 185.649 29.5964 186.011 29.1257C186.375 28.6551 186.811 28.2971 187.318 28.0518C187.825 27.8033 188.394 27.679 189.023 27.679C189.703 27.679 190.303 27.8116 190.823 28.0767C191.343 28.3385 191.761 28.6948 192.076 29.1456C192.394 29.5964 192.586 30.1018 192.653 30.6619H190.53C190.447 30.3073 190.273 30.0289 190.008 29.8267C189.743 29.6245 189.414 29.5234 189.023 29.5234C188.36 29.5234 187.857 29.8118 187.512 30.3885C187.171 30.9652 186.997 31.7491 186.99 32.7401H187.06C187.212 32.4384 187.418 32.1816 187.676 31.9695C187.938 31.754 188.235 31.59 188.566 31.4773C188.901 31.3613 189.254 31.3033 189.625 31.3033C190.228 31.3033 190.765 31.4458 191.236 31.7308C191.706 32.0125 192.078 32.4003 192.349 32.8942C192.621 33.388 192.757 33.9531 192.757 34.5895C192.757 35.2789 192.596 35.892 192.275 36.429C191.957 36.9659 191.511 37.3868 190.937 37.6918C190.367 37.9934 189.704 38.1425 188.949 38.1392ZM188.939 36.4489C189.27 36.4489 189.567 36.3693 189.829 36.2102C190.091 36.0511 190.296 35.8357 190.445 35.5639C190.594 35.2921 190.669 34.9872 190.669 34.6491C190.669 34.3111 190.594 34.0078 190.445 33.7393C190.299 33.4709 190.097 33.2571 189.839 33.098C189.58 32.9389 189.285 32.8594 188.954 32.8594C188.705 32.8594 188.475 32.9058 188.263 32.9986C188.054 33.0914 187.87 33.2206 187.711 33.3864C187.555 33.5521 187.432 33.7443 187.343 33.9631C187.253 34.1785 187.209 34.4089 187.209 34.6541C187.209 34.9822 187.283 35.2822 187.432 35.554C187.585 35.8258 187.79 36.0429 188.049 36.2053C188.311 36.3677 188.607 36.4489 188.939 36.4489ZM194.129 36.2102V34.5149L198.38 27.8182H199.842V30.1648H198.976L196.297 34.4055V34.4851H202.337V36.2102H194.129ZM199.016 38V35.6932L199.056 34.9425V27.8182H201.074V38H199.016Z" fill="#42DF81"/>
<path d="M38 74C38 74 195.824 46.3726 271 37" stroke="#612598" stroke-width="2"/>
<path d="M216.16 31.2727V18.5455H216.976V31.2727H216.16ZM218.905 22.3636C218.845 21.8598 218.603 21.4688 218.179 21.1903C217.755 20.9119 217.234 20.7727 216.618 20.7727C216.167 20.7727 215.773 20.8456 215.434 20.9915C215.1 21.1373 214.838 21.3378 214.649 21.593C214.463 21.8482 214.371 22.1383 214.371 22.4631C214.371 22.7348 214.435 22.9685 214.564 23.1641C214.697 23.3563 214.866 23.517 215.072 23.6463C215.277 23.7723 215.492 23.8767 215.718 23.9595C215.943 24.0391 216.15 24.1037 216.339 24.1534L217.373 24.4318C217.639 24.5014 217.934 24.5975 218.258 24.7202C218.586 24.8428 218.9 25.0102 219.198 25.2223C219.5 25.4311 219.748 25.6996 219.944 26.0277C220.139 26.3558 220.237 26.7585 220.237 27.2358C220.237 27.786 220.093 28.2831 219.805 28.7273C219.519 29.1714 219.102 29.5244 218.552 29.7862C218.005 30.0481 217.34 30.179 216.558 30.179C215.829 30.179 215.198 30.0613 214.664 29.826C214.134 29.5907 213.716 29.2625 213.411 28.8416C213.109 28.4207 212.939 27.9318 212.899 27.375H214.172C214.205 27.7595 214.334 28.0777 214.559 28.3295C214.788 28.5781 215.077 28.7637 215.425 28.8864C215.776 29.0057 216.154 29.0653 216.558 29.0653C217.029 29.0653 217.451 28.9891 217.826 28.8366C218.2 28.6809 218.497 28.4654 218.716 28.1903C218.934 27.9119 219.044 27.5871 219.044 27.2159C219.044 26.8778 218.949 26.6027 218.76 26.3906C218.572 26.1785 218.323 26.0062 218.015 25.8736C217.706 25.741 217.373 25.625 217.015 25.5256L215.763 25.1676C214.967 24.9389 214.337 24.6125 213.873 24.1882C213.409 23.764 213.177 23.2088 213.177 22.5227C213.177 21.9527 213.331 21.4555 213.64 21.0312C213.951 20.6037 214.369 20.2723 214.893 20.0369C215.42 19.7983 216.008 19.679 216.657 19.679C217.314 19.679 217.897 19.7966 218.407 20.032C218.918 20.264 219.322 20.5821 219.621 20.9865C219.922 21.3909 220.081 21.8499 220.098 22.3636H218.905ZM225.665 19.8182V30H224.432V21.1108H224.372L221.886 22.7614V21.5085L224.432 19.8182H225.665ZM228.866 30.0795C228.621 30.0795 228.411 29.9917 228.235 29.8161C228.059 29.6404 227.972 29.4299 227.972 29.1847C227.972 28.9394 228.059 28.7289 228.235 28.5533C228.411 28.3776 228.621 28.2898 228.866 28.2898C229.112 28.2898 229.322 28.3776 229.498 28.5533C229.674 28.7289 229.761 28.9394 229.761 29.1847C229.761 29.3471 229.72 29.4962 229.637 29.6321C229.558 29.768 229.45 29.8774 229.314 29.9602C229.181 30.0398 229.032 30.0795 228.866 30.0795ZM231.847 30V29.1051L235.208 25.4261C235.602 24.9953 235.927 24.6207 236.182 24.3026C236.437 23.9811 236.626 23.6795 236.749 23.3977C236.875 23.1127 236.938 22.8144 236.938 22.5028C236.938 22.1449 236.852 21.835 236.679 21.5732C236.51 21.3113 236.278 21.1091 235.983 20.9666C235.688 20.8241 235.357 20.7528 234.989 20.7528C234.598 20.7528 234.257 20.834 233.965 20.9964C233.676 21.1555 233.453 21.3793 233.294 21.6676C233.138 21.956 233.06 22.294 233.06 22.6818H231.887C231.887 22.0852 232.024 21.5616 232.299 21.1108C232.574 20.66 232.949 20.3087 233.423 20.0568C233.9 19.8049 234.435 19.679 235.029 19.679C235.625 19.679 236.154 19.8049 236.615 20.0568C237.075 20.3087 237.437 20.6484 237.699 21.076C237.96 21.5036 238.091 21.9792 238.091 22.5028C238.091 22.8774 238.023 23.2436 237.887 23.6016C237.755 23.9562 237.523 24.3523 237.191 24.7898C236.863 25.224 236.408 25.7543 235.824 26.3807L233.537 28.8267V28.9062H238.27V30H231.847ZM243.585 30.1392C242.902 30.1392 242.299 30.0182 241.775 29.7763C241.255 29.531 240.849 29.1946 240.557 28.767C240.266 28.3362 240.121 27.8456 240.125 27.2955C240.121 26.8646 240.206 26.4669 240.378 26.1023C240.551 25.7344 240.786 25.4278 241.084 25.1825C241.386 24.9339 241.722 24.7765 242.093 24.7102V24.6506C241.606 24.5246 241.218 24.2512 240.93 23.8303C240.642 23.406 240.499 22.9238 240.502 22.3835C240.499 21.8665 240.63 21.4041 240.895 20.9964C241.16 20.5888 241.525 20.2673 241.989 20.032C242.456 19.7966 242.988 19.679 243.585 19.679C244.175 19.679 244.702 19.7966 245.166 20.032C245.63 20.2673 245.994 20.5888 246.26 20.9964C246.528 21.4041 246.664 21.8665 246.667 22.3835C246.664 22.9238 246.516 23.406 246.225 23.8303C245.936 24.2512 245.554 24.5246 245.076 24.6506V24.7102C245.444 24.7765 245.776 24.9339 246.071 25.1825C246.366 25.4278 246.601 25.7344 246.777 26.1023C246.952 26.4669 247.042 26.8646 247.045 27.2955C247.042 27.8456 246.893 28.3362 246.598 28.767C246.306 29.1946 245.9 29.531 245.38 29.7763C244.863 30.0182 244.264 30.1392 243.585 30.1392ZM243.585 29.0455C244.046 29.0455 244.443 28.9709 244.778 28.8217C245.113 28.6726 245.371 28.4621 245.554 28.1903C245.736 27.9186 245.829 27.6004 245.832 27.2358C245.829 26.8513 245.729 26.5116 245.534 26.2166C245.338 25.9216 245.071 25.6896 244.733 25.5206C244.399 25.3516 244.016 25.267 243.585 25.267C243.151 25.267 242.763 25.3516 242.422 25.5206C242.083 25.6896 241.817 25.9216 241.621 26.2166C241.429 26.5116 241.334 26.8513 241.338 27.2358C241.334 27.6004 241.422 27.9186 241.601 28.1903C241.783 28.4621 242.044 28.6726 242.382 28.8217C242.72 28.9709 243.121 29.0455 243.585 29.0455ZM243.585 24.2131C243.949 24.2131 244.273 24.1402 244.554 23.9943C244.839 23.8485 245.063 23.6446 245.225 23.3828C245.388 23.121 245.471 22.8144 245.474 22.4631C245.471 22.1184 245.39 21.8184 245.23 21.5632C245.071 21.3047 244.851 21.1058 244.569 20.9666C244.288 20.8241 243.959 20.7528 243.585 20.7528C243.204 20.7528 242.871 20.8241 242.586 20.9666C242.301 21.1058 242.08 21.3047 241.924 21.5632C241.769 21.8184 241.692 22.1184 241.696 22.4631C241.692 22.8144 241.77 23.121 241.929 23.3828C242.092 23.6446 242.315 23.8485 242.6 23.9943C242.886 24.1402 243.214 24.2131 243.585 24.2131Z" fill="white"/>
<circle cx="38" cy="74" r="4" fill="#360D5C" stroke="#612598" stroke-width="2"/>
<circle cx="86" cy="66" r="4" fill="#360D5C" stroke="#612598" stroke-width="2"/>
<circle cx="134" cy="58" r="5" fill="#42DF81"/>
<circle cx="182" cy="50" r="4" fill="#360D5C" stroke="#612598" stroke-width="2"/>
<circle cx="230" cy="42" r="4" fill="#360D5C" stroke="#612598" stroke-width="2"/>
<circle cx="134" cy="58" r="4" fill="#360D5C" stroke="#612598" stroke-width="2"/>
<circle cx="182" cy="50" r="5" fill="#42DF81"/>
<defs>
<filter id="filter0_d_79_311" x="0" y="0" width="287" height="103" filterUnits="userSpaceOnUse" color-interpolation-filters="sRGB">
<feFlood flood-opacity="0" result="BackgroundImageFix"/>
<feColorMatrix in="SourceAlpha" type="matrix" values="0 0 0 0 0 0 0 0 0 0 0 0 0 0 0 0 0 0 127 0" result="hardAlpha"/>
<feOffset dy="4"/>
<feGaussianBlur stdDeviation="2"/>
<feColorMatrix type="matrix" values="0 0 0 0 0 0 0 0 0 0 0 0 0 0 0 0 0 0 0.05 0"/>
<feBlend mode="normal" in2="BackgroundImageFix" result="effect1_dropShadow_79_311"/>
<feBlend mode="normal" in="SourceGraphic" in2="effect1_dropShadow_79_311" result="shape"/>
</filter>
</defs>
</svg>
