<svg width="296" height="230" viewBox="0 0 296 230" fill="none" xmlns="http://www.w3.org/2000/svg">
<path fill-rule="evenodd" clip-rule="evenodd" d="M108.095 -87.1916C131.143 -82.7753 154.038 -86.1286 177.07 -81.6303C209.18 -75.3591 246.988 -78.8991 269.969 -55.5768C293.016 -32.1875 298.61 5.37537 294.988 38.0381C291.488 69.5975 268.415 94.2023 250.456 120.368C233.759 144.696 216.84 168.143 193.403 186.044C167.643 205.719 139.841 235.561 108.095 229.102C74.8309 222.334 70.3097 171.591 40.6969 154.972C10.4525 137.999 -37.0068 161.367 -59.5726 135.004C-80.9401 110.041 -67.2363 69.9689 -59.3963 38.0381C-52.6138 10.4141 -31.4819 -9.84387 -17.8769 -34.8144C-3.87671 -60.5104 -4.99796 -100.123 21.9937 -111.345C49.9984 -122.989 78.314 -92.8981 108.095 -87.1916Z" fill="url(#paint0_radial_2274_952)"/>
<defs>
<radialGradient id="paint0_radial_2274_952" cx="0" cy="0" r="1" gradientUnits="userSpaceOnUse" gradientTransform="translate(112.5 -187.298) rotate(105.563) scale(390.814 354.832)">
<stop offset="0.224476" stop-color="#AB56FF"/>
<stop offset="1" stop-color="#350C5C"/>
</radialGradient>
</defs>
</svg>
