<svg width="570" height="570" viewBox="0 0 570 570" fill="#fff" xmlns="http://www.w3.org/2000/svg">
    <path opacity="0.4" d="M285 0L296.12 229.095L394.065 21.6943L316.668 237.606L486.525 83.4746L332.394 253.332L548.306 175.935L340.905 273.88L570 285L340.905 296.12L548.306 394.065L332.394 316.668L486.525 486.525L316.668 332.394L394.065 548.306L296.12 340.905L285 570L273.88 340.905L175.935 548.306L253.332 332.394L83.4746 486.525L237.606 316.668L21.6943 394.065L229.095 296.12L0 285L229.095 273.88L21.6943 175.935L237.606 253.332L83.4746 83.4746L253.332 237.606L175.935 21.6943L273.88 229.095L285 0Z"/>
</svg>
