<svg xmlns="http://www.w3.org/2000/svg" width="689" height="475" fill="none">
    <g transform="translate(113)">
        <path fill="url(#a)" d="M160.203-4.834c31.575 3.45 63.178-.63 90.261 15.938 36.252 22.178 88.82 48.056 83.107 90.122-5.83 42.924-70.047 42.488-104.665 68.596-25.635 19.334-37.614 54.068-68.703 62.154-39.543 10.286-85.475 12.006-117.11-13.821C9.624 190.829-.828 144.385.052 101.226.91 58.974 12.492 12.319 47.765-11.04c32.519-21.535 73.648 1.968 112.438 6.206Z"/>
        <path fill="url(#b)" d="M402.203 231.166c31.575 3.449 63.178-.63 90.261 15.939 36.252 22.177 88.82 48.055 83.107 90.121-5.83 42.924-70.047 42.488-104.665 68.596-25.635 19.334-37.614 54.068-68.703 62.154-39.543 10.286-85.475 12.006-117.109-13.821-33.471-27.326-43.923-73.77-43.043-116.929.861-42.252 12.441-88.907 47.714-112.266 32.519-21.535 73.648 1.968 112.438 6.206Z"/>
    </g>
    <defs>
        <radialGradient id="a" cx="0" cy="0" r="1" gradientTransform="rotate(108.924 178.745 50.406) scale(433.364 459.16)" gradientUnits="userSpaceOnUse">
            <stop stop-color="#479A67"/>
            <stop offset="1" stop-color="#09341A"/>
        </radialGradient>
        <radialGradient id="b" cx="0" cy="0" r="1" gradientTransform="rotate(108.924 215.459 254.835) scale(433.364 459.16)" gradientUnits="userSpaceOnUse">
            <stop stop-color="#479A67"/>
            <stop offset="1" stop-color="#09341A"/>
        </radialGradient>
    </defs>
</svg>
