<svg width="171" height="136" viewBox="0 0 171 136" fill="none" xmlns="http://www.w3.org/2000/svg">
<path fill-rule="evenodd" clip-rule="evenodd" d="M94.8149 2.37469C89.3588 -0.791461 82.6366 -0.791462 77.1805 2.37469L52.8172 16.5125C47.3611 19.6787 44 25.53 44 31.8623V60.1379C44 66.4702 47.3611 72.3215 52.8172 75.4876L77.1805 89.6255C82.6366 92.7916 89.3588 92.7916 94.8149 89.6255L119.178 75.4876C124.634 72.3215 127.995 66.4702 127.995 60.1379V31.8623C127.995 25.53 124.634 19.6787 119.178 16.5125L94.8149 2.37469ZM65.95 25.5189C68.1431 23.2394 70.6107 22.0945 73.2022 22.1147C73.5724 22.1178 73.9452 22.1443 74.3203 22.1946C75.8869 22.4192 77.8563 23.4972 79.9152 24.6651C82.1084 25.9227 84.6149 27.3156 86.1814 27.3156C87.748 27.3156 90.2545 25.9227 92.4477 24.6651C94.5066 23.4972 96.476 22.4192 98.0425 22.1946C101.041 21.7904 103.905 22.9137 106.412 25.5189C109.366 28.5733 111.738 33.6489 113.171 39.8025C114.469 45.5518 114.738 51.4359 113.932 56.0174C112.768 62.5304 110.35 66.1237 106.949 66.3483H106.636C105.657 66.3483 103.886 65.1855 101.928 63.9001C99.6776 62.4223 97.1801 60.7826 95.357 60.5621C93.7815 60.3718 92.5215 61.1826 91.1737 62.0499C89.7608 62.9591 88.2516 63.9304 86.1814 63.8752C84.154 63.8211 82.665 62.8941 81.2775 62.0303C79.8966 61.1706 78.6163 60.3735 77.0058 60.5621C75.2354 60.7695 72.8457 62.3199 70.6293 63.7577C68.5214 65.1252 66.5703 66.391 65.4576 66.3034C62.0559 66.0788 59.6389 62.4855 58.4752 55.9725C57.6248 51.4359 57.9381 45.5073 59.2361 39.758C60.6684 33.6044 63.0406 28.5733 65.95 25.5189Z" fill="#AB56FF"/>
<path d="M0 123.586V108.268H5.58428L7.89424 115.715C7.98395 115.968 8.08113 116.295 8.18579 116.696C8.3054 117.097 8.41754 117.506 8.5222 117.922C8.6418 118.339 8.73899 118.703 8.81374 119.015H8.99316C9.05296 118.747 9.12772 118.428 9.21743 118.056C9.32209 117.67 9.42674 117.268 9.5314 116.852C9.65101 116.436 9.76315 116.049 9.8678 115.693L12.1778 108.268H17.6499V123.586H13.9943V116.205C13.9943 115.626 14.0018 115.046 14.0168 114.466C14.0317 113.872 14.0467 113.337 14.0616 112.861C14.0766 112.385 14.084 112.051 14.084 111.857H13.9046C13.8598 112.066 13.7775 112.378 13.6579 112.794C13.5533 113.195 13.4411 113.626 13.3215 114.087C13.2019 114.533 13.0898 114.92 12.9851 115.247L10.3163 123.586H7.1093L4.44051 115.247C4.33585 114.935 4.22372 114.578 4.10411 114.176C3.99945 113.76 3.89479 113.344 3.79013 112.928C3.68548 112.512 3.59577 112.155 3.52101 111.857H3.3416C3.35655 112.199 3.3715 112.623 3.38645 113.128C3.4014 113.634 3.40888 114.154 3.40888 114.689C3.42383 115.224 3.4313 115.73 3.4313 116.205V123.586H0Z" fill="white"/>
<path d="M21.2009 123.586V108.268H34.4551V111.189H24.8789V114.355H33.3114V117.231H24.8789V120.665H34.5897V123.586H21.2009Z" fill="white"/>
<path d="M41.7319 123.586V111.322H36.3495V108.268H50.8148V111.322H45.4099V123.586H41.7319Z" fill="white"/>
<path d="M49.4823 123.586L55.7619 108.268H60.1575L66.4819 123.586H62.4899L61.391 120.732H54.3714L53.2725 123.586H49.4823ZM55.4479 117.9H60.3145L58.9465 114.332C58.8867 114.184 58.8119 113.991 58.7222 113.753C58.6325 113.5 58.5428 113.232 58.4531 112.95C58.3634 112.653 58.2737 112.37 58.184 112.103C58.0942 111.835 58.0195 111.605 57.9597 111.412H57.8027C57.713 111.709 57.6009 112.043 57.4663 112.415C57.3467 112.772 57.2271 113.128 57.1075 113.485C56.9879 113.827 56.8832 114.117 56.7935 114.355L55.4479 117.9Z" fill="white"/>
<path d="M75.3822 123.853C72.7807 123.853 70.7996 123.207 69.4391 121.914C68.0785 120.62 67.3982 118.628 67.3982 115.938C67.3982 114.154 67.7346 112.682 68.4074 111.523C69.0802 110.349 70.0521 109.472 71.3229 108.892C72.6087 108.297 74.1487 108 75.9428 108C77.0343 108 78.051 108.119 78.9929 108.357C79.9498 108.58 80.787 108.929 81.5047 109.405C82.2373 109.866 82.798 110.445 83.1867 111.144C83.5904 111.843 83.7922 112.668 83.7922 113.619H80.1367C80.1367 113.188 80.0245 112.801 79.8003 112.46C79.5909 112.118 79.2994 111.835 78.9256 111.612C78.5518 111.374 78.1182 111.203 77.6249 111.099C77.1315 110.98 76.6157 110.921 76.0774 110.921C75.285 110.921 74.5823 111.018 73.9693 111.211C73.3563 111.404 72.8405 111.701 72.4218 112.103C72.0182 112.489 71.7116 112.972 71.5023 113.552C71.293 114.132 71.1884 114.808 71.1884 115.581V116.295C71.1884 117.35 71.3603 118.227 71.7042 118.926C72.063 119.609 72.5863 120.115 73.2741 120.442C73.9768 120.769 74.829 120.932 75.8307 120.932C76.7128 120.932 77.4753 120.821 78.1182 120.598C78.7761 120.375 79.2844 120.048 79.6433 119.617C80.0021 119.171 80.1815 118.643 80.1815 118.034V117.878H75.427V115.202H83.8147V123.586H81.5271L81.1907 121.891C80.6973 122.337 80.1591 122.709 79.576 123.006C79.0078 123.289 78.3724 123.497 77.6697 123.63C76.982 123.779 76.2194 123.853 75.3822 123.853Z" fill="white"/>
<path d="M85.6412 123.586L91.9207 108.268H96.3164L102.641 123.586H98.6488L97.5499 120.732H90.5303L89.4314 123.586H85.6412ZM91.6068 117.9H96.4734L95.1053 114.332C95.0455 114.184 94.9708 113.991 94.8811 113.753C94.7914 113.5 94.7017 113.232 94.612 112.95C94.5222 112.653 94.4325 112.37 94.3428 112.103C94.2531 111.835 94.1784 111.605 94.1186 111.412H93.9616C93.8719 111.709 93.7597 112.043 93.6252 112.415C93.5056 112.772 93.3859 113.128 93.2663 113.485C93.1467 113.827 93.0421 114.117 92.9524 114.355L91.6068 117.9Z" fill="white"/>
<path d="M104.622 123.586V108.268H114.176C115.297 108.268 116.232 108.483 116.979 108.914C117.727 109.33 118.287 109.903 118.661 110.631C119.035 111.345 119.222 112.162 119.222 113.084C119.222 114.065 118.99 114.942 118.527 115.715C118.078 116.488 117.42 117.09 116.553 117.521L119.715 123.586H115.611L112.92 118.145H108.3V123.586H104.622ZM108.3 115.291H113.458C114.086 115.291 114.58 115.105 114.938 114.734C115.297 114.347 115.477 113.827 115.477 113.173C115.477 112.742 115.394 112.378 115.23 112.08C115.065 111.783 114.834 111.56 114.535 111.412C114.236 111.248 113.877 111.166 113.458 111.166H108.3V115.291Z" fill="white"/>
<path d="M122.165 123.586V108.268H129.005C130.695 108.268 132.13 108.55 133.311 109.115C134.507 109.665 135.419 110.505 136.047 111.635C136.69 112.764 137.011 114.199 137.011 115.938C137.011 117.647 136.69 119.074 136.047 120.219C135.419 121.349 134.507 122.196 133.311 122.761C132.13 123.311 130.695 123.586 129.005 123.586H122.165ZM125.843 120.665H128.915C129.603 120.665 130.209 120.568 130.732 120.375C131.27 120.182 131.719 119.907 132.078 119.55C132.451 119.178 132.735 118.718 132.93 118.168C133.124 117.618 133.221 116.986 133.221 116.272V115.581C133.221 114.868 133.124 114.236 132.93 113.686C132.735 113.136 132.451 112.682 132.078 112.326C131.719 111.954 131.27 111.672 130.732 111.478C130.209 111.285 129.603 111.189 128.915 111.189H125.843V120.665Z" fill="white"/>
<path d="M139.883 123.586V108.268H153.138V111.189H143.561V114.355H151.994V117.231H143.561V120.665H153.272V123.586H139.883Z" fill="white"/>
<path d="M156.243 123.586V108.268H159.585L166.111 116.094C166.231 116.198 166.373 116.354 166.537 116.562C166.702 116.77 166.866 116.978 167.03 117.187C167.195 117.395 167.322 117.573 167.412 117.722L167.546 117.699C167.531 117.417 167.524 117.127 167.524 116.83C167.524 116.532 167.524 116.272 167.524 116.049V108.268H171V123.586H167.681L161.02 115.603C160.796 115.351 160.572 115.076 160.347 114.778C160.123 114.481 159.951 114.251 159.831 114.087L159.697 114.11C159.697 114.318 159.697 114.563 159.697 114.845C159.712 115.128 159.719 115.403 159.719 115.67V123.586H156.243Z" fill="white"/>
<path d="M54.3598 130.411C55.3017 130.411 56.2637 130.879 56.7446 131.696C56.7847 131.766 56.7747 131.816 56.7246 131.856L56.0933 132.334C56.0232 132.404 55.943 132.364 55.9029 132.314C55.4921 131.756 55.0412 131.507 54.3598 131.507C53.3577 131.507 52.6964 132.204 52.6964 133.191C52.6964 134.177 53.3677 134.904 54.3598 134.904C55.0412 134.904 55.5221 134.665 55.933 134.067C55.9831 134.018 56.0332 134.018 56.0933 134.067L56.7246 134.566C56.7747 134.615 56.7847 134.675 56.7446 134.725C56.2336 135.562 55.3618 136 54.3598 136C52.7565 136 51.534 134.795 51.534 133.191C51.534 131.587 52.7565 130.411 54.3598 130.411Z" fill="white"/>
<path d="M68.3612 130.491H69.243C69.3331 130.491 69.3832 130.541 69.3832 130.63V132.553H71.8683V130.63C71.8683 130.541 71.9184 130.491 72.0086 130.491H72.8904C72.9806 130.491 73.0307 130.541 73.0307 130.63V135.781C73.0307 135.871 72.9806 135.92 72.8904 135.92H72.0086C71.9184 135.92 71.8683 135.871 71.8683 135.781V133.649H69.3832V135.781C69.3832 135.871 69.3331 135.92 69.243 135.92H68.3612C68.271 135.92 68.2209 135.871 68.2209 135.781V130.63C68.2209 130.541 68.271 130.491 68.3612 130.491Z" fill="white"/>
<path d="M89.2462 135.781L88.8654 134.844H86.1398L85.759 135.801C85.729 135.881 85.6688 135.92 85.5887 135.92H84.5966C84.4964 135.92 84.4664 135.871 84.4964 135.781L86.8613 130.571C86.8813 130.521 86.9214 130.491 86.9915 130.491H88.1339C88.204 130.491 88.2441 130.521 88.2642 130.571L90.5188 135.761C90.5488 135.841 90.4987 135.92 90.4085 135.92H89.4566C89.3564 135.92 89.2862 135.871 89.2462 135.781ZM87.4725 131.567L86.5607 133.798H88.4646L87.5828 131.567H87.4725Z" fill="white"/>
<path d="M102.117 130.491H102.999C103.089 130.491 103.139 130.541 103.139 130.63V135.781C103.139 135.871 103.089 135.92 102.999 135.92H102.117C102.027 135.92 101.977 135.871 101.977 135.781V130.63C101.977 130.541 102.027 130.491 102.117 130.491Z" fill="white"/>
<path d="M119.682 135.92H118.861C118.791 135.92 118.74 135.901 118.71 135.851L117.338 134.127L115.955 132.184L115.905 132.194L115.975 133.868V135.781C115.975 135.871 115.925 135.92 115.834 135.92H114.983C114.893 135.92 114.842 135.871 114.842 135.781V130.63C114.842 130.541 114.893 130.491 114.983 130.491H115.754C115.834 130.491 115.895 130.511 115.945 130.561L117.448 132.453L118.71 134.227L118.76 134.217L118.69 132.533V130.63C118.69 130.541 118.74 130.491 118.831 130.491H119.682C119.773 130.491 119.823 130.541 119.823 130.63V135.781C119.823 135.871 119.773 135.92 119.682 135.92Z" fill="white"/>
</svg>
